<?xml version="1.0" encoding="utf-8"?>
<!-- Generator: Adobe Illustrator 27.5.0, SVG Export Plug-In . SVG Version: 6.00 Build 0)  -->
<svg version="1.1" xmlns="http://www.w3.org/2000/svg" xmlns:xlink="http://www.w3.org/1999/xlink" x="0px" y="0px"
	 viewBox="0 0 500 500" style="enable-background:new 0 0 500 500;" xml:space="preserve">
<style type="text/css">
	.st0{display:none;fill:#FFFFFF;}
	.st1{fill:#F2F2F2;}
	.st2{fill:#FFFFFF;}
	.st3{fill:#4CC8D8;}
	.st4{fill:#3BB5C4;}
	.st5{fill:#133246;}
	.st6{fill:#0A2130;}
	.st7{fill:#B5D84C;}
	.st8{fill:#9FC238;}
	.st9{fill:#1E89CC;}
	.st10{fill:#FB7E00;}
	.st11{fill:#FCBB00;}
	.st12{fill:#FA682B;}
	.st13{fill:#F25513;}
	.st14{fill:#5CD1DF;}
	.st15{display:none;}
	.st16{display:inline;}
	.st17{font-family:'Anaheim-Regular';}
	.st18{font-size:25.736px;}
	.st19{letter-spacing:1;}
	.st20{font-family:'Poppins-Black';}
	.st21{font-size:33.132px;}
</style>
<g id="BACKGROUND">
	<rect class="st0" width="500" height="500"/>
	
		<ellipse transform="matrix(0.7071 -0.7071 0.7071 0.7071 -86.0128 240.0523)" class="st1" cx="246.76" cy="223.85" rx="175.05" ry="175.05"/>
	<path class="st2" d="M391.48,158.06h-69.9c0,0,1.57-19.41,10.05-17.23c8.48,2.18,9.69,8.48,9.69,8.48s3.88-21.57,17.69-17.69
		c13.81,3.88,10.18,17.2,10.18,17.2s2.67-9.69,8.72-7.51c6.06,2.18,3.15,11.39,3.15,11.39L391.48,158.06z"/>
	<path class="st2" d="M205.17,111.97h-82.61c0,0,1.85-22.94,11.87-20.36c10.02,2.58,11.45,10.02,11.45,10.02s4.58-25.49,20.9-20.91
		c16.32,4.58,12.03,20.33,12.03,20.33s3.15-11.45,10.31-8.88c7.16,2.58,3.72,13.46,3.72,13.46L205.17,111.97z"/>
</g>
<g id="OBJECTS">
	<g>
		<g>
			<path class="st3" d="M219.37,298.46c0,0,10.38,9,17.55,3.84s11.12-12.46,12.03-17.02c0,0-27.19,2.54-27.9-6.99
				c-0.72-9.53,24.58,5.47,33.16-4.32c8.58-9.8-8.01-34.41-11.63-37.11c0,0-21.35,29.74-30.34,22.78
				c-8.99-6.95,22.17-7.36,23.03-40.44c0,0-9.24-9.46-14.55-11.74c0,0-5.4,40-16.61,40.02s13.77-22.59,6.74-45.6
				c0,0-9.33-5.63-14.66-7.22c0,0,8.29,36.7-2.35,36.1c-10.64-0.6,3.83-20.97-2.99-37.9c0,0-18.16-11.55-39.85-11.36
				c0,0-8.4,16.74-10.64,29.52c0,0,6.6,11.67,14.73,14.67c8.14,3,21.54,5.32,19.68,10.42c-1.86,5.1-29.13-6.94-36.54-16.01
				c0,0-6.47,11.67-5.71,23.73c0,0,16.66,14.22,32.69,15.55c16.03,1.32,19.35,3.88,18.52,7.19c-0.83,3.32-27.14,4.2-54.08-15.73
				c0,0,3.25,16.3,6.79,25.63c0,0,20.65,10.74,34.89,8.15c14.23-2.59,20.2-5.3,22.58-1.99c2.38,3.3-12.14,11.37-23.65,10.41
				c-11.51-0.96-23.8-5.57-26.92-8.08c0,0,8.17,22.11,23.62,24.48c15.45,2.37,24.45-7.47,28.06-11.1c3.61-3.63,6.11-2.32,4.71,2.58
				c-1.4,4.9-8.99,13.46-18.11,14.84C181.59,315.75,213.83,329.44,219.37,298.46z"/>
			<g>
				<g>
					<g>
						<path class="st4" d="M150.84,182.43c11.87,17.5,23.31,35.29,34.17,53.44c10.81,18.06,21.05,36.47,30.56,55.25
							c5.37,10.61,10.51,21.33,15.4,32.18c0.38,0.85,1.63,0.11,1.25-0.73c-8.69-19.27-18.18-38.17-28.34-56.7
							c-10.12-18.47-20.9-36.57-32.19-54.34c-6.38-10.04-12.92-19.98-19.6-29.83C151.57,180.92,150.31,181.65,150.84,182.43
							L150.84,182.43z"/>
					</g>
				</g>
				<g>
					<g>
						<path class="st4" d="M193.9,250.1c-16.37,1.25-32.9-2.03-47.52-9.52c-4.12-2.11-8.07-4.54-11.83-7.25
							c-0.76-0.55-1.48,0.71-0.73,1.25c13.41,9.66,29.31,15.59,45.79,16.94c4.76,0.39,9.53,0.39,14.29,0.03
							C194.82,251.48,194.83,250.03,193.9,250.1L193.9,250.1z"/>
					</g>
				</g>
				<g>
					<g>
						<path class="st4" d="M202.96,266.7c-15.07,11.45-35.14,10.06-52.47,5.6c-5.45-1.4-10.82-3.08-16.19-4.77
							c-0.89-0.28-1.27,1.12-0.39,1.4c18.13,5.69,37.74,11.61,56.61,5.71c4.73-1.48,9.21-3.69,13.17-6.69
							C204.42,267.4,203.7,266.14,202.96,266.7L202.96,266.7z"/>
					</g>
				</g>
				<g>
					<g>
						<path class="st4" d="M172.35,185.31c1.84,8.61,1.28,17.55-1.55,25.88c-0.3,0.89,1.1,1.27,1.4,0.39
							c2.92-8.57,3.44-17.8,1.55-26.65C173.55,184.02,172.15,184.4,172.35,185.31L172.35,185.31z"/>
					</g>
				</g>
				<g>
					<g>
						<path class="st4" d="M143.85,200.02c7.79,5.42,16.49,9.42,25.66,11.84c0.9,0.24,1.29-1.16,0.39-1.4
							c-9.06-2.39-17.62-6.35-25.31-11.7C143.82,198.24,143.09,199.49,143.85,200.02L143.85,200.02z"/>
					</g>
				</g>
				<g>
					<g>
						<path class="st4" d="M203.31,198.49c0.49,16.18,0.77,34.77-11.44,47.17c-0.66,0.67,0.37,1.69,1.03,1.03
							c12.51-12.7,12.37-31.61,11.87-48.2C204.73,197.56,203.28,197.55,203.31,198.49L203.31,198.49z"/>
					</g>
				</g>
				<g>
					<g>
						<path class="st4" d="M228.48,213.88c-1.13,14.33-8.08,27.96-18.75,37.55c-3.03,2.72-6.35,5.09-9.91,7.07
							c-0.82,0.46-0.08,1.71,0.73,1.25c12.88-7.19,22.63-19.48,27.01-33.54c1.25-4.01,2.03-8.14,2.36-12.33
							C230,212.95,228.55,212.96,228.48,213.88L228.48,213.88z"/>
					</g>
				</g>
				<g>
					<g>
						<path class="st4" d="M252.67,255.2c-7.2,4.66-14.99,8.34-23.18,10.88c-3.88,1.2-7.82,2.03-11.79,2.89
							c-3.69,0.8-7.28,1.89-10.29,4.25c-0.73,0.58,0.3,1.6,1.03,1.03c3.12-2.45,7.05-3.34,10.85-4.13
							c4.01-0.83,7.97-1.78,11.86-3.05c7.84-2.56,15.33-6.14,22.25-10.63C254.18,255.95,253.45,254.69,252.67,255.2L252.67,255.2z"
							/>
					</g>
				</g>
				<g>
					<g>
						<path class="st4" d="M242.37,296.41c-9.27,0.35-18.45-2.06-26.36-6.91c-0.8-0.49-1.53,0.76-0.73,1.25
							c8.11,4.98,17.58,7.46,27.1,7.11C243.3,297.83,243.3,296.38,242.37,296.41L242.37,296.41z"/>
					</g>
				</g>
				<g>
					<g>
						<path class="st4" d="M153.52,303c16.81,4.1,33.18-4.06,46.33-13.86c3.83-2.85,7.52-5.87,11.21-8.9
							c0.72-0.59-0.31-1.61-1.03-1.03c-12.44,10.2-25.84,21.06-42.38,23.1c-4.6,0.57-9.25,0.38-13.75-0.72
							C153,301.38,152.61,302.78,153.52,303L153.52,303z"/>
					</g>
				</g>
				<g>
					<g>
						<path class="st4" d="M214.56,289.77c-2.7,11.37-9.51,21.58-19.02,28.39c-0.75,0.54-0.03,1.8,0.73,1.25
							c9.82-7.03,16.89-17.5,19.69-29.25C216.18,289.25,214.78,288.86,214.56,289.77L214.56,289.77z"/>
					</g>
				</g>
			</g>
		</g>
		<g>
			<g>
				<path class="st5" d="M392.77,179.44c0,0,3.3-2.84,4.47-8.49c1.16-5.65,1.21-9.83-3.26-10.44
					C389.52,159.89,386.09,173.23,392.77,179.44z"/>
				<path class="st5" d="M386.82,197.21c0,0,3.4-9.42,10.45-12.38c7.05-2.96,8.87,0.61,8.89,2.83
					C406.17,189.88,399.36,198.95,386.82,197.21z"/>
				<path class="st5" d="M382.76,207.75c0,0,2.93-7.83,1.14-13.96c-1.8-6.13-5.91-6.76-8.64-5.08
					C372.53,190.4,373.63,203.58,382.76,207.75z"/>
				<path class="st5" d="M377.68,218.58c0,0,4.52-8.92,11.29-11.83c6.77-2.91,11.28,3.36,6,7.17
					C389.7,217.73,377.68,218.58,377.68,218.58z"/>
				<path class="st5" d="M372.51,227.2c0,0,3.13-6.58,0.97-14.34c-2.16-7.76-7.9-7.86-10.01-6.41
					C361.36,207.91,360.96,219.32,372.51,227.2z"/>
				<path class="st5" d="M364.95,241.19c0,0,22.79-2.01,22.66-9.06C387.47,225.08,372.52,228.74,364.95,241.19z"/>
				<path class="st5" d="M359.38,249.62c0,0,3.05-7.09,0.45-15.92c-2.6-8.83-6.67-8.83-8.36-4.9
					C349.77,232.73,351.9,244.99,359.38,249.62z"/>
			</g>
			<g>
				<g>
					<g>
						<path class="st6" d="M392.32,179c-6.91,23.68-17.25,46.33-30.76,66.97c-3.85,5.88-7.95,11.59-12.29,17.11
							c-0.39,0.5,0.31,1.21,0.7,0.7c15.33-19.5,27.63-41.29,36.53-64.43c2.54-6.6,4.79-13.3,6.77-20.09
							C393.46,178.64,392.5,178.38,392.32,179L392.32,179z"/>
					</g>
				</g>
				<g>
					<g>
						<path class="st6" d="M393.28,179.36c0.93-4.98,1.43-10.03,1.5-15.1c0.01-0.64-0.99-0.64-0.99,0
							c-0.06,4.98-0.54,9.94-1.46,14.83C392.21,179.72,393.17,179.99,393.28,179.36L393.28,179.36z"/>
					</g>
				</g>
				<g>
					<g>
						<path class="st6" d="M387.61,196.75c4.53-2.55,9.07-5.1,13.6-7.65c0.56-0.31,0.06-1.17-0.5-0.86
							c-4.53,2.55-9.07,5.1-13.6,7.65C386.55,196.21,387.05,197.07,387.61,196.75L387.61,196.75z"/>
					</g>
				</g>
				<g>
					<g>
						<path class="st6" d="M383.21,206.95c-0.98-5.14-2.4-10.18-4.23-15.07c-0.22-0.59-1.18-0.34-0.96,0.26
							c1.84,4.9,3.25,9.94,4.23,15.07C382.37,207.84,383.33,207.58,383.21,206.95L383.21,206.95z"/>
					</g>
				</g>
				<g>
					<g>
						<path class="st6" d="M378.51,218.57c4.7-2.58,9.41-5.15,14.11-7.73c0.56-0.31,0.06-1.17-0.5-0.86
							c-4.7,2.58-9.41,5.15-14.11,7.73C377.45,218.02,377.95,218.88,378.51,218.57L378.51,218.57z"/>
					</g>
				</g>
				<g>
					<g>
						<path class="st6" d="M373.33,227.64c-0.88-5.44-2.46-10.74-4.7-15.77c-0.26-0.58-1.12-0.08-0.86,0.5
							c2.2,4.96,3.74,10.18,4.6,15.54C372.47,228.53,373.43,228.27,373.33,227.64L373.33,227.64z"/>
					</g>
				</g>
				<g>
					<g>
						<path class="st6" d="M365.92,241.02c4.58-2.93,9.47-5.36,14.58-7.23c0.6-0.22,0.34-1.18-0.26-0.96
							c-5.19,1.9-10.16,4.36-14.81,7.33C364.88,240.5,365.38,241.36,365.92,241.02L365.92,241.02z"/>
					</g>
				</g>
				<g>
					<g>
						<path class="st6" d="M359.93,249.52c-1.06-5.92-2.56-11.75-4.47-17.45c-0.2-0.6-1.16-0.34-0.96,0.26
							c1.92,5.7,3.41,11.53,4.47,17.45C359.09,250.42,360.05,250.15,359.93,249.52L359.93,249.52z"/>
					</g>
				</g>
			</g>
		</g>
		<g>
			<g>
				<g>
					<path class="st6" d="M99.42,200.53c6.91,23,18.69,44.46,34.35,62.67c4.48,5.21,9.28,10.14,14.36,14.77
						c0.47,0.43,1.18-0.27,0.7-0.7c-17.65-16.1-31.82-35.9-41.4-57.79c-2.74-6.26-5.09-12.68-7.05-19.22
						C100.19,199.65,99.23,199.91,99.42,200.53L99.42,200.53z"/>
				</g>
			</g>
			<g>
				<path class="st5" d="M100.87,203.35c0,0,4.46-25.05-1.85-26.21C92.71,175.98,94.24,193.7,100.87,203.35z"/>
				<path class="st5" d="M103.73,211.72c0,0-12.54-22.59-17.63-20.78C81.01,192.75,90.63,206.31,103.73,211.72z"/>
				<path class="st5" d="M107.05,219.83c0,0-3.38-4.79-12.93-10.72c-9.55-5.93-13.85-5.47-15-2.37S96.38,221.06,107.05,219.83z"/>
				<path class="st5" d="M103.73,211.72c0,0,14.6-17.51,11.33-21.2C111.8,186.83,103.43,201.55,103.73,211.72z"/>
				<path class="st5" d="M110.55,227.18c0,0-2.86-5.6-1.76-12.66c1.1-7.06,5.92-13.84,9.01-11.93
					C120.89,204.49,110.55,227.18,110.55,227.18z"/>
				<path class="st5" d="M114.27,234.31c0,0-6.33-7.81-13.15-10.29s-11.13-2.47-11.7,0.35C88.85,227.19,105.28,235.35,114.27,234.31
					z"/>
				<path class="st5" d="M123.35,248.86c0,0-8.22-0.91-15.15-4.16c-6.93-3.26-8.81-4.62-7.81-6.33
					C101.39,236.66,109.64,234.69,123.35,248.86z"/>
				<path class="st5" d="M120.24,244.05c0,0-4.81-9.16-3.26-18.75c1.55-9.59,3.71-12.78,5.93-12.36c2.22,0.42,1.66,10.35-0.3,16.47
					C120.66,235.53,120.24,244.05,120.24,244.05z"/>
				<path class="st5" d="M131.12,259.26c0,0-9.09-8.44-18.9-8.44C102.41,250.81,109.9,262.7,131.12,259.26z"/>
				<g>
					<path class="st5" d="M128.51,232.68c-6.87,5.77,2.95,25.01,5.29,29.33C134.16,255.76,135.44,226.87,128.51,232.68z"/>
				</g>
			</g>
		</g>
		<g>
			<path class="st7" d="M246.01,304.06c0,0-1.46,18.17,9.7,21.78c11.15,3.61,22.07,2.09,27.66-0.53c0,0-24.1-27.07-14.47-35.33
				c9.62-8.26,13.48,30.59,30.7,32.05c17.22,1.47,30.49-35.63,30.53-41.62c0,0-48.58,0.56-48.22-14.52
				c0.36-15.08,25.3,17.92,61.34-7.18c0,0,2.84-17.32,1.11-24.79c0,0-47.01,25.69-55.85,13.71c-8.84-11.98,34.99-3.05,54.06-28.66
				c0,0-1.32-14.41-3.82-21.35c0,0-32.72,37.72-40.45,25.88c-7.73-11.85,25.43-12.4,38.16-33c0,0-1.93-28.5-19.19-51.54
				c0,0-24.5,4.19-39.93,11.84c0,0-7.29,16.23-4.1,27.29c3.19,11.06,11.25,27.21,4.33,29.23c-6.92,2.02-15.48-36.61-11.62-51.65
				c0,0-17.57,2.26-29.86,12.55c0,0-2.11,28.99,9.09,47.17c11.19,18.18,11.07,23.74,6.88,25.46c-4.2,1.72-25.83-25.72-25.71-70.19
				c0,0-14.88,16.29-22.06,27.41c0,0,4.76,30.53,18.72,43.71c13.96,13.18,21.55,17.43,19.89,22.57c-1.66,5.14-21.7-4.04-29.73-17.09
				c-8.03-13.06-12.76-29.83-12.53-35.13c0,0-17.21,26.12-7.6,44.5c9.61,18.38,27.21,20.26,33.94,21.26s7.29,4.71,0.94,7.06
				c-6.34,2.35-21.46,0.98-30.11-7.69C197.81,277.27,208.52,322.5,246.01,304.06z"/>
			<g>
				<g>
					<g>
						<path class="st8" d="M316.13,139.66c-9.35,26.4-19.36,52.57-30.19,78.4c-10.82,25.8-22.48,51.26-35.1,76.23
							c-7.09,14.03-14.49,27.91-22.21,41.6c-0.61,1.08,1.05,2.05,1.66,0.97c13.82-24.52,26.6-49.62,38.46-75.15
							c11.76-25.32,22.63-51.06,32.74-77.08c5.73-14.73,11.21-29.56,16.49-44.46C318.4,139.01,316.54,138.5,316.13,139.66
							L316.13,139.66z"/>
					</g>
				</g>
				<g>
					<g>
						<path class="st8" d="M277.58,238.68c-14.17-16.46-23.58-36.7-27.1-58.13c-0.99-6.05-1.49-12.17-1.55-18.3
							c-0.01-1.24-1.94-1.24-1.93,0c0.21,22.03,6.41,43.86,18.04,62.6c3.32,5.35,7.07,10.42,11.17,15.19
							C277.03,240.98,278.39,239.62,277.58,238.68L277.58,238.68z"/>
					</g>
				</g>
				<g>
					<g>
						<path class="st8" d="M266.93,261.49c-23.97-7.03-38.29-29.67-47.1-51.57c-2.79-6.93-5.21-13.99-7.63-21.05
							c-0.4-1.17-2.26-0.66-1.86,0.51c8.22,24,17.35,49.66,38.65,65.26c5.27,3.86,11.15,6.87,17.43,8.71
							C267.61,263.7,268.12,261.84,266.93,261.49L266.93,261.49z"/>
					</g>
				</g>
				<g>
					<g>
						<path class="st8" d="M330.07,164.72c-7.74,8.73-17.74,15.25-28.88,18.75c-1.18,0.37-0.67,2.23,0.51,1.86
							c11.44-3.6,21.77-10.27,29.72-19.25C332.25,165.16,330.9,163.79,330.07,164.72L330.07,164.72z"/>
					</g>
				</g>
				<g>
					<g>
						<path class="st8" d="M291.86,145.81c0.33,12.59,2.86,25.05,7.49,36.76c0.45,1.14,2.31,0.64,1.86-0.51
							c-4.57-11.55-7.1-23.83-7.42-36.25C293.75,144.57,291.82,144.56,291.86,145.81L291.86,145.81z"/>
					</g>
				</g>
				<g>
					<g>
						<path class="st8" d="M340.15,208.36c-13.38,10.48-27.49,21.41-44.65,24.47c-4.8,0.86-9.74,1.02-14.56,0.32
							c-1.21-0.18-1.74,1.68-0.51,1.86c17.96,2.62,34.81-5.86,48.97-16.06c4.12-2.97,8.12-6.1,12.12-9.23
							C342.49,208.96,341.12,207.61,340.15,208.36L340.15,208.36z"/>
					</g>
				</g>
				<g>
					<g>
						<path class="st8" d="M343.68,247.23c-16.16,10.04-36.15,13.41-54.76,9.58c-5.32-1.09-10.52-2.77-15.46-5.02
							c-1.12-0.51-2.1,1.15-0.97,1.66c17.85,8.14,38.7,8.97,57.22,2.55c5.23-1.81,10.25-4.19,14.95-7.11
							C345.71,248.24,344.74,246.57,343.68,247.23L343.68,247.23z"/>
					</g>
				</g>
				<g>
					<g>
						<path class="st8" d="M318.31,305.6c-8.12-3.07-15.9-6.99-23.2-11.68c-3.71-2.38-7.29-4.95-10.72-7.72
							c-3.21-2.59-6.19-5.43-9.33-8.1c-3.38-2.88-7.05-5.46-11.38-6.64c-1.2-0.33-1.71,1.53-0.51,1.86
							c4.01,1.09,7.4,3.49,10.53,6.15c3.14,2.67,6.12,5.51,9.33,8.1c6.66,5.37,13.85,10.07,21.45,13.98
							c4.32,2.22,8.78,4.19,13.32,5.91C318.96,307.89,319.46,306.03,318.31,305.6L318.31,305.6z"/>
					</g>
				</g>
				<g>
					<g>
						<path class="st8" d="M266.19,326.93c-7.59-9.53-12.24-21.27-13.24-33.41c-0.1-1.23-2.03-1.24-1.93,0
							c1.05,12.69,5.87,24.81,13.81,34.77C265.6,329.26,266.95,327.89,266.19,326.93L266.19,326.93z"/>
					</g>
				</g>
				<g>
					<g>
						<path class="st8" d="M189.33,237.14c8.54,20.63,29.32,31.8,49.58,38.2c6.57,2.07,13.25,3.78,19.93,5.49
							c1.2,0.31,1.71-1.55,0.51-1.86c-21.15-5.4-43.78-11.34-59.01-28.11c-3.81-4.2-6.98-8.99-9.16-14.24
							C190.72,235.5,188.86,236,189.33,237.14L189.33,237.14z"/>
					</g>
				</g>
				<g>
					<g>
						<path class="st8" d="M251.37,292.16c-14.27,6.06-30.57,6.68-45.3,1.87c-1.18-0.39-1.69,1.47-0.51,1.86
							c15.25,4.98,32.03,4.19,46.78-2.07C253.48,293.34,252.5,291.68,251.37,292.16L251.37,292.16z"/>
					</g>
				</g>
			</g>
		</g>
		<g>
			<path class="st7" d="M212.3,355.52c0,0-19.95,3.04-43.99,7.64c-24.04,4.6-54.58-10.58-68.73-22.47
				c-14.15-11.89-23.65-31.75-26.84-44.35c-3.19-12.59-6.25-26.15-16.63-36.59c0,0,44.92-14.59,77.69-8.19s49.97,19.74,66.05,41.5
				C215.93,314.82,212.3,355.52,212.3,355.52z"/>
			<g>
				<g>
					<g>
						<path class="st8" d="M56.87,261.64c24.91,8.42,49,19.23,71.87,32.21c22.87,12.98,44.52,28.1,64.56,45.14
							c11.27,9.58,22.02,19.77,32.2,30.5c0.81,0.85,2.09-0.44,1.28-1.28c-18.21-19.19-38.25-36.62-59.75-52.03
							c-21.44-15.36-44.32-28.7-68.26-39.77c-13.5-6.24-27.33-11.76-41.41-16.52C56.25,259.52,55.77,261.27,56.87,261.64
							L56.87,261.64z"/>
					</g>
				</g>
				<g>
					<g>
						<path class="st8" d="M73.02,297.06c17.14-6.09,35.78-7.48,53.63-3.94c1.14,0.23,1.63-1.52,0.48-1.75
							c-18.16-3.6-37.14-2.26-54.6,3.94C71.44,295.7,71.91,297.45,73.02,297.06L73.02,297.06z"/>
					</g>
				</g>
				<g>
					<g>
						<path class="st8" d="M75.74,304.95c16.32-4.9,33.48-6.79,50.48-5.55c4.88,0.36,9.74,0.98,14.56,1.85
							c1.14,0.21,1.63-1.54,0.48-1.75c-17.01-3.08-34.51-3.03-51.51,0.16c-4.89,0.92-9.73,2.11-14.49,3.54
							C74.14,303.53,74.62,305.28,75.74,304.95L75.74,304.95z"/>
					</g>
				</g>
				<g>
					<g>
						<path class="st8" d="M108.69,281.03c-8.14-7.42-13.37-17.77-14.41-28.75c-0.11-1.15-1.93-1.16-1.81,0
							c1.09,11.46,6.43,22.27,14.94,30.03C108.26,283.1,109.55,281.82,108.69,281.03L108.69,281.03z"/>
					</g>
				</g>
				<g>
					<g>
						<path class="st8" d="M117.25,285.29c-8.29-9.44-13.09-21.67-13.47-34.23c-0.03-1.16-1.85-1.17-1.81,0
							c0.39,13.05,5.39,25.7,14,35.51C116.74,287.45,118.02,286.16,117.25,285.29L117.25,285.29z"/>
					</g>
				</g>
				<g>
					<g>
						<path class="st8" d="M165.35,314.91c-20.3-3.27-41.3-1.65-60.84,4.74c-5.5,1.8-10.87,3.98-16.07,6.49
							c-1.05,0.51-0.13,2.07,0.92,1.57c18.15-8.77,38.36-13.1,58.51-12.62c5.7,0.14,11.38,0.66,17.01,1.57
							C166.01,316.85,166.5,315.1,165.35,314.91L165.35,314.91z"/>
					</g>
				</g>
				<g>
					<g>
						<path class="st8" d="M193.13,337.11c-19.6-5.84-41.07-3.29-58.71,7.08c-4.63,2.72-8.94,5.95-12.88,9.59
							c-0.86,0.79,0.43,2.08,1.28,1.28c14.22-13.16,33.4-20.15,52.76-19.16c5.79,0.3,11.51,1.3,17.06,2.96
							C193.77,339.19,194.25,337.44,193.13,337.11L193.13,337.11z"/>
					</g>
				</g>
				<g>
					<g>
						<path class="st8" d="M203.81,346.47c-17.74-4.68-36.91-2.9-53.6,4.65c-4.74,2.15-9.25,4.78-13.47,7.83
							c-0.94,0.68-0.03,2.25,0.92,1.57c14.58-10.58,32.76-15.76,50.73-14.7c5.05,0.3,10.05,1.11,14.94,2.4
							C204.46,348.51,204.94,346.76,203.81,346.47L203.81,346.47z"/>
					</g>
				</g>
				<g>
					<g>
						<path class="st8" d="M204.65,346.58c-7.42-13.77-2.87-29.79,1.3-43.79c0.33-1.12-1.42-1.6-1.75-0.48
							c-4.33,14.52-8.8,30.94-1.12,45.19C203.63,348.52,205.2,347.61,204.65,346.58L204.65,346.58z"/>
					</g>
				</g>
				<g>
					<g>
						<path class="st8" d="M162.77,261.24c-5.1,16.5-1.71,34.07,5.09,49.54c1.96,4.46,4.22,8.79,6.63,13.02
							c0.58,1.01,2.15,0.1,1.57-0.92c-8.18-14.35-14.55-30.31-13.91-47.1c0.18-4.78,0.96-9.5,2.37-14.06
							C164.86,260.6,163.11,260.12,162.77,261.24L162.77,261.24z"/>
					</g>
				</g>
				<g>
					<g>
						<path class="st8" d="M150.38,255.85c-2.4,15.58-0.72,31.71,4.91,46.45c1.57,4.12,3.45,8.12,5.6,11.96
							c0.57,1.02,2.14,0.11,1.57-0.92c-7.47-13.35-11.4-28.59-11.35-43.89c0.01-4.39,0.35-8.78,1.02-13.12
							C152.3,255.19,150.55,254.7,150.38,255.85L150.38,255.85z"/>
					</g>
				</g>
			</g>
		</g>
		<g>
			<path class="st7" d="M290.67,348.44c0,0,3.42-19.89,6.66-44.15c3.24-24.26,27.3-48.43,43.06-58.09s37.61-12.39,50.56-11.43
				c12.96,0.96,26.78,2.35,39.97-4.2c0,0-0.37,47.23-16.8,76.29c-16.43,29.06-34.54,41.16-60.26,49.53
				C328.13,364.76,290.67,348.44,290.67,348.44z"/>
			<g>
				<g>
					<g>
						<path class="st8" d="M428.86,230.73c-15.92,21.04-33.88,40.53-53.51,58.17c-19.52,17.55-40.69,33.25-63.16,46.84
							c-12.62,7.63-25.65,14.58-39.01,20.83c-1.06,0.49-0.14,2.06,0.92,1.57c23.98-11.21,46.86-24.71,68.28-40.26
							c21.37-15.51,41.28-33.02,59.37-52.26c10.16-10.8,19.72-22.15,28.67-33.97C431.13,230.72,429.55,229.81,428.86,230.73
							L428.86,230.73z"/>
					</g>
				</g>
				<g>
					<g>
						<path class="st8" d="M390.18,234.84c0.35,18.19-4.25,36.31-13.26,52.12c-0.58,1.02,0.99,1.93,1.57,0.92
							c9.16-16.08,13.86-34.53,13.51-53.04C391.97,233.67,390.16,233.67,390.18,234.84L390.18,234.84z"/>
					</g>
				</g>
				<g>
					<g>
						<path class="st8" d="M381.84,234.93c-0.51,17.01-4.15,33.87-10.69,49.58c-1.89,4.54-4.04,8.97-6.4,13.29
							c-0.56,1.02,1.01,1.94,1.57,0.92c8.32-15.2,13.82-31.89,16.14-49.07c0.66-4.88,1.06-9.79,1.21-14.71
							C383.69,233.76,381.87,233.76,381.84,234.93L381.84,234.93z"/>
					</g>
				</g>
				<g>
					<g>
						<path class="st8" d="M394.16,273.67c9.63-5.38,21.08-7.01,31.82-4.54c1.14,0.26,1.62-1.49,0.48-1.75
							c-11.22-2.59-23.17-0.9-33.22,4.72C392.22,272.68,393.14,274.24,394.16,273.67L394.16,273.67z"/>
					</g>
				</g>
				<g>
					<g>
						<path class="st8" d="M387.19,280.54c11.67-4.91,24.81-5.64,36.94-2c1.12,0.34,1.6-1.41,0.48-1.75
							c-12.41-3.73-25.96-3.03-37.9,2C385.65,279.24,386.12,281,387.19,280.54L387.19,280.54z"/>
					</g>
				</g>
				<g>
					<g>
						<path class="st8" d="M344.07,316.69c9.47-18.11,14.54-38.43,14.71-58.87c0.05-5.82-0.31-11.64-1.05-17.41
							c-0.15-1.14-1.96-1.16-1.81,0c2.59,20.04,0.34,40.59-6.49,59.61c-1.94,5.41-4.26,10.67-6.92,15.76
							C341.96,316.81,343.53,317.73,344.07,316.69L344.07,316.69z"/>
					</g>
				</g>
				<g>
					<g>
						<path class="st8" d="M314.23,336.02c11.48-16.37,15.89-37.01,12.08-56.64c-1.11-5.71-2.91-11.25-5.31-16.55
							c-0.48-1.06-2.04-0.14-1.57,0.92c8.15,18.03,8.51,38.92,1,57.22c-2.05,4.99-4.68,9.73-7.77,14.14
							C311.99,336.07,313.56,336.97,314.23,336.02L314.23,336.02z"/>
					</g>
				</g>
				<g>
					<g>
						<path class="st8" d="M301.97,343.2c10.05-15.34,14.46-34.19,12.49-52.4c-0.56-5.15-1.61-10.24-3.17-15.18
							c-0.35-1.11-2.1-0.64-1.75,0.48c5.41,17.15,4.56,35.99-2.09,52.68c-1.88,4.73-4.26,9.25-7.05,13.5
							C299.76,343.26,301.33,344.17,301.97,343.2L301.97,343.2z"/>
					</g>
				</g>
				<g>
					<g>
						<path class="st8" d="M301.62,343.99c15.4-2.68,29.18,6.76,41.12,15.13c0.96,0.67,1.87-0.9,0.92-1.57
							c-12.43-8.72-26.55-18.09-42.52-15.31C299.99,342.44,300.48,344.19,301.62,343.99L301.62,343.99z"/>
					</g>
				</g>
				<g>
					<g>
						<path class="st8" d="M395.73,331.24c-13.83-9.91-31.38-12.35-47.99-10.86c-5.06,0.46-10.09,1.25-15.08,2.24
							c-1.14,0.23-0.66,1.98,0.48,1.75c16.44-3.26,33.89-4.21,49.78,2c4.21,1.65,8.21,3.81,11.89,6.45
							C395.77,333.48,396.67,331.91,395.73,331.24L395.73,331.24z"/>
					</g>
				</g>
				<g>
					<g>
						<path class="st8" d="M404.76,321.19c-13.99-7.19-29.8-10.67-45.52-10.01c-4.44,0.19-8.86,0.71-13.22,1.55
							c-1.15,0.22-0.66,1.97,0.48,1.75c15.07-2.87,30.8-1.73,45.33,3.18c4.13,1.4,8.14,3.11,12.01,5.1
							C404.88,323.29,405.8,321.72,404.76,321.19L404.76,321.19z"/>
					</g>
				</g>
			</g>
		</g>
		<g>
			<path class="st3" d="M211.55,373.28c0,0,20.37-0.49,45.06-0.15c24.69,0.34,52.37-20.13,64.34-34.43
				c11.97-14.31,17.91-35.72,18.86-48.8c0.95-13.08,1.6-27.08,10.08-39.29c0,0-47.21-6.58-78.64,5.54
				c-31.43,12.13-46.18,28.42-58.33,52.87C200.77,333.48,211.55,373.28,211.55,373.28z"/>
			<g>
				<g>
					<g>
						<path class="st4" d="M348.61,251.01c-23.45,12.85-45.64,27.96-66.23,45.02c-20.53,17.01-39.45,35.95-56.42,56.51
							c-9.5,11.51-18.38,23.52-26.6,35.96c-0.65,0.99,0.93,1.9,1.58,0.92c14.65-22.19,31.42-42.94,50-61.96
							c18.58-19.01,38.95-36.27,60.77-51.45c12.18-8.48,24.82-16.3,37.83-23.43C350.57,252.02,349.65,250.44,348.61,251.01
							L348.61,251.01z"/>
					</g>
				</g>
				<g>
					<g>
						<path class="st4" d="M339.99,288.87c-18.43-3.08-37.53-1.17-54.95,5.62c-1.09,0.42-0.61,2.19,0.49,1.77
							c17.1-6.66,35.87-8.65,53.98-5.62C340.66,290.83,341.16,289.07,339.99,288.87L339.99,288.87z"/>
					</g>
				</g>
				<g>
					<g>
						<path class="st4" d="M338.43,297.15c-17.26-2.02-34.86-0.84-51.71,3.44c-4.84,1.23-9.61,2.73-14.3,4.46
							c-1.1,0.41-0.62,2.18,0.49,1.77c16.23-6.01,33.5-9.01,50.8-8.79c4.92,0.06,9.83,0.39,14.71,0.96
							C339.6,299.12,339.59,297.29,338.43,297.15L338.43,297.15z"/>
					</g>
				</g>
				<g>
					<g>
						<path class="st4" d="M302.94,282c7.02-9.12,10.46-20.78,9.53-32.25c-0.09-1.17-1.93-1.18-1.83,0
							c0.9,11.2-2.43,22.43-9.28,31.33C300.64,282.01,302.23,282.92,302.94,282L302.94,282z"/>
					</g>
				</g>
				<g>
					<g>
						<path class="st4" d="M295.18,287.74c6.84-11.28,9.51-24.73,7.6-37.77c-0.17-1.16-1.93-0.67-1.77,0.49
							c1.84,12.54-0.85,25.53-7.41,36.36C292.98,287.83,294.57,288.75,295.18,287.74L295.18,287.74z"/>
					</g>
				</g>
				<g>
					<g>
						<path class="st4" d="M251.7,326.38c19.28-6.72,40.13-8.78,60.36-5.91c5.69,0.81,11.32,2,16.86,3.56
							c1.14,0.32,1.62-1.45,0.49-1.77c-19.83-5.59-40.93-6.37-61.13-2.32c-5.79,1.16-11.48,2.72-17.05,4.67
							C250.1,324.99,250.58,326.76,251.7,326.38L251.7,326.38z"/>
					</g>
				</g>
				<g>
					<g>
						<path class="st4" d="M228.22,353.23c17.85-8.95,38.88-10.19,57.65-3.37c5.12,1.86,10,4.31,14.58,7.25
							c0.99,0.64,1.91-0.95,0.92-1.58c-17.04-10.95-38.1-14.56-57.8-9.85c-5.64,1.35-11.1,3.37-16.28,5.97
							C226.24,352.18,227.17,353.76,228.22,353.23L228.22,353.23z"/>
					</g>
				</g>
				<g>
					<g>
						<path class="st4" d="M219.25,364.41c16.38-7.58,35.36-9.14,52.82-4.65c4.96,1.28,9.78,3.04,14.39,5.28
							c1.06,0.51,1.99-1.07,0.92-1.58c-16.7-8.11-36.09-10.12-54.14-5.82c-5.14,1.22-10.13,2.97-14.92,5.19
							C217.26,363.32,218.19,364.9,219.25,364.41L219.25,364.41z"/>
					</g>
				</g>
				<g>
					<g>
						<path class="st4" d="M219.33,363.61c5.11-15.5-2.28-31.05-9.13-44.7c-0.53-1.05-2.11-0.13-1.58,0.92
							c6.63,13.21,13.9,28.28,8.95,43.29C217.19,364.25,218.96,364.73,219.33,363.61L219.33,363.61z"/>
					</g>
				</g>
				<g>
					<g>
						<path class="st4" d="M242.55,271.73c7.75,15.05,7.46,32.66,3.53,48.76c-1.16,4.76-2.63,9.45-4.28,14.06
							c-0.4,1.11,1.37,1.59,1.77,0.49c5.79-16.25,9.34-33.89,5.4-51c-1.06-4.59-2.67-9.04-4.83-13.23
							C243.6,269.76,242.01,270.68,242.55,271.73L242.55,271.73z"/>
					</g>
				</g>
				<g>
					<g>
						<path class="st4" d="M253.82,263.98c5.01,14.7,6.15,30.63,3.25,45.89c-0.83,4.35-1.98,8.62-3.44,12.8
							c-0.39,1.12,1.38,1.59,1.77,0.49c5.19-14.91,6.39-31.09,3.58-46.62c-0.8-4.43-1.94-8.79-3.39-13.05
							C255.21,262.38,253.44,262.86,253.82,263.98L253.82,263.98z"/>
					</g>
				</g>
			</g>
		</g>
		<g>
			<path class="st5" d="M308.08,328.98c0.13,8.74-17.98,11.89-25.91-1.26c0,0-5.85,12.24,2.72,17.61
				c8.57,5.37,17.86-5.94,21.78-2.67c3.92,3.27-4.6,14.7-19.09,11.88c0,0,5.72,16.03,25.83,2.17c0,0-0.95,17.38,8.7,24.09
				c9.65,6.71,14.98,1.49,14.98,1.49s-16.57-18.05-10.32-23.68c6.25-5.64,8.87,20.99,14.25,24.29c5.39,3.29,18.42,2.02,26.31-5.09
				c0,0-23.2-10.32-21.17-19.01c2.02-8.69,16.6,11.35,27.41,11.35c10.8,0,15.56-18.23,15.56-18.23s-24.6,3.46-24.99-5.52
				s13.46,3.52,24.04-1.32c10.59-4.84,8.31-18.84,8.31-18.84s-42.65,8.12-42.25-5.58c0.41-13.7,32.68,5.54,41.86-4.74
				c0,0,2.27-6.8-3.16-16.75c0,0-8.77,0.5-15.64,4.68c-6.87,4.18-16.23,5.05-16.46,1.02c-0.23-4.03,4.66-4.14,12.18-4.59
				c7.52-0.45,22.97-6.75,7.71-26.01c0,0-8.56-1.45-17.2-4.97c-8.64-3.52-13.49,2.62-13.81,8.86c-0.32,6.23-1.35,10.28-5.02,8.52
				c-3.67-1.75-6.08-10.44-0.46-17.6c0,0-8.89-4.56-13.31,2.79c-4.41,7.35,4.05,15.9-3.37,19.22c-7.42,3.32-10.3-14.03-8.77-16.59
				c0,0-12.28,2.86-14.33,11.64c-2.04,8.77,10.58,16.36,10.31,21.47c-0.27,5.1-5.43,9.17-13.41,1.02c-7.98-8.15-9.16-13.5-9.16-13.5
				s-11.1,9.12-7.65,19.28C287.99,324.55,307.94,320.25,308.08,328.98z M349.96,331.34c0,0,7.98,0.96,7.57,5.54
				c-0.41,4.58-8.77,5.08-13.54,1.07C339.23,333.94,342.61,330.05,349.96,331.34z M333.17,336.74c0,0,4.24,1.19,3.33,3.77
				c-0.91,2.58-5.25,1.26-6.84,0.03C328.06,339.31,328.73,335.46,333.17,336.74z M327.92,302.41c-0.39-2.06,0.42-4.64,2.27-5.24
				c1.86-0.6,4.43,1.24,5.42,4.74c0.99,3.51-1.43,6.81-4.38,5.92C328.28,306.94,327.92,302.41,327.92,302.41z M316.44,312.9
				c1.35-0.77,4.04,0.97,5.02,1.77c0,0,3.53,1.96,1.79,4.65c-1.74,2.69-6.17-0.09-7.2-1.79
				C315.01,315.82,315.09,313.67,316.44,312.9z"/>
			<g>
				<g>
					<path class="st6" d="M380.58,273.87c-13.58,5.29-24.3,15.62-34.06,26.12c-9.82,10.57-18.9,22.06-25.46,34.96
						c-3.65,7.18-6.47,14.77-8.15,22.65c-0.18,0.86,1.14,1.23,1.32,0.36c2.94-13.86,9.47-26.61,17.65-38.09
						c4.14-5.81,8.7-11.32,13.48-16.61c4.74-5.23,9.66-10.35,14.98-15c6.15-5.38,12.95-10.09,20.59-13.08
						C381.76,274.88,381.41,273.55,380.58,273.87L380.58,273.87z"/>
				</g>
			</g>
		</g>
	</g>
	<polygon class="st9" points="399.18,354.55 262.07,354.55 237.93,354.55 100.82,354.55 25.08,408.04 237.93,408.04 262.07,408.04 
		474.92,408.04 	"/>
	<g>
		<g>
			<path class="st6" d="M274.88,362.11c-0.14,1.2-0.29,2.5-0.43,3.86c-0.62,5.9-1.08,12.88-0.34,17.62
				c0.92,5.83-1.06,7.02-1.06,7.02c-12.81,1.02-39.85,5.49-39.85,0c0-5.49,22.02-11.73,24.44-16.41c0.52-1.01,0.63-3.77,0.4-7.84
				c-0.83-14.76-6.1-46.72-12.06-74.47c-7.16-33.36-15.96-84.38-16.95-90.11c-0.06-0.35-0.09-0.53-0.09-0.53l45.06,8.81
				c0,0-3.43,54.88-4.64,64.16c-1.21,9.28,3.83,21.79,6.86,38.74C279.26,329.9,275.65,355.67,274.88,362.11z"/>
			<path class="st2" d="M274.11,383.59c0.92,5.83-1.06,7.02-1.06,7.02c-12.81,1.02-39.85,5.49-39.85,0
				c0-5.49,22.02-11.73,24.44-16.41c0.52-1.01,0.63-3.77,0.4-7.84c8.91,1.38,13.86,0.52,16.39-0.39
				C273.83,371.87,273.37,378.84,274.11,383.59z"/>
		</g>
		<g>
			<g>
				<path class="st10" d="M66.82,130.75l6.82-1.75l0.47,0.89l0.59-0.2l1.01,1.63c0,0-0.24,0.05-0.72,0.22l0.44,0.83
					c0,0-0.17,0.02-0.46,0.06l0.05,0.05c0,0-4.7,2.16-5.31,2.84s-3,2.82-3.13,1.74l1.33-1.97c-3.31,1.54-7.07,2.74-7.51,2.5
					c-0.23-0.13,0.91-1.07,2.32-2.13c-2.17,0.56-4.26,0.97-4.73,0.77C57.08,135.81,66.82,130.75,66.82,130.75z"/>
				<path class="st11" d="M220.07,131.19c0,0-25.46,1.42-53.66,2.95c-33.41,1.81-70.64,3.75-73.89,3.62
					c-5.98-0.23-17.4,5.1-18.14,3.1c-0.75-2,8.34-6.66,8.34-6.66s-3.7-1.29-7.87-1.65c-1.77-0.15-3.62-0.13-5.31,0.23
					c-2.86,0.61-6.06,1.03-8.54,1.16c-2.44,0.14-4.17-0.01-4.16-0.53c0.01-1.05,14-5.91,17.73-7.27c3.73-1.37,13.45,0.59,21.98-1.2
					c7.68-1.61,56.14-7.59,67.82-9.19c0.13-0.02,0.26-0.04,0.4-0.06c12.14-1.77,50.38-11.76,50.38-11.76L220.07,131.19z"/>
			</g>
			<path class="st4" d="M220.07,131.19c0,0-25.46,1.42-53.66,2.95l-1.64-18.44c12.14-1.77,50.38-11.76,50.38-11.76L220.07,131.19z"
				/>
		</g>
		<g>
			<path class="st5" d="M356.45,214.35c-6.52,11.13-43.72,10.59-84.18,7.87c-40.46-2.71-54.96-35.05-54.96-35.05l33.78-23.58
				c0,0,8.5,4.57,14.98,8.24c7.93,4.48,12.18,15.05,12.18,15.05c15.36,3.11,53.43,6.67,53.43,6.67c-6.91-14.47,0.78-53.6,1.05-60.96
				c5.35-3.91,10.7-4.26,13.39-4.14C346.53,134.43,362.95,203.23,356.45,214.35z"/>
			<path class="st2" d="M346.12,128.41v0.04c-2.69-0.12-8.04,0.23-13.39,4.14c0.01-0.22,0.01-0.41,0.01-0.58
				c-0.21-5.54-4.34-5.54-5.64-9.46c-1.31-3.93,1.1-8.76,3.72-14.81c2.62-6.04,3.24-20.89,7.44-19.85
				C342.45,88.94,345.77,122.65,346.12,128.41z"/>
		</g>
		<g>
			<g>
				<path class="st12" d="M208.83,54.07c0,0-0.35-6.81,6.89-7.07c7.24-0.26,12.22,10.91,9.86,15.45c-2.36,4.54-8.2,4.01-8.2,4.01
					L208.83,54.07z"/>
				<path class="st12" d="M207.91,100.1c0,0-0.61-4.39,3.51-8.51c4.13-4.13,9.57-12.38,7.99-21.85
					c-1.58-9.48-6.06-18.69-19.75-19.13c-13.69-0.44-22.91,5.09-24.75,10.53c-1.84,5.44-1.58,8.78,2.37,11.06
					C181.23,74.47,207.91,100.1,207.91,100.1z"/>
				<g>
					<g>
						<path class="st13" d="M208.69,52.84c5.27,3.08,8.94,8.49,9.89,14.52c0.07,0.46,0.76,0.26,0.69-0.19
							c-0.97-6.2-4.8-11.78-10.22-14.94C208.65,51.99,208.29,52.61,208.69,52.84L208.69,52.84z"/>
					</g>
				</g>
			</g>
			<g>
				<polygon class="st11" points="209.18,102.61 195.92,112.28 191.27,104.05 187.72,97.79 187.66,97.67 201.97,88.35 				"/>
				<polygon class="st10" points="196.54,94.68 191.27,104.05 187.72,97.79 				"/>
			</g>
			<g>
				<polygon class="st10" points="176.7,74.67 172.51,82.5 176,84.79 				"/>
				<path class="st11" d="M186.94,57.57c0,0-9.13,2.23-10.42,17.09c-1.29,14.86-0.57,20.8,4.25,22.97
					c4.83,2.18,15.61,0.85,21.19-9.27c0,0,5.77-1.42,6.72-6.72c0.95-5.3-1.18-7.57-4.03-7.72c-2.85-0.14-5.41,1.85-6.33,5.91
					C198.33,79.83,186.52,76.35,186.94,57.57z"/>
				<g>
					<g>
						<path class="st10" d="M205.14,77.25c-2.01,0.33-3.51,2.05-3.66,4.06c-0.01,0.19,0.18,0.36,0.36,0.36
							c0.21,0,0.34-0.17,0.36-0.36c0.13-1.72,1.45-3.09,3.13-3.37c0.19-0.03,0.3-0.27,0.25-0.44
							C205.52,77.3,205.33,77.22,205.14,77.25L205.14,77.25z"/>
					</g>
				</g>
				<g>
					<g>
						<path class="st10" d="M176.44,89.64c2.51-0.09,4.92-1.2,6.61-3.05c0.31-0.34-0.2-0.85-0.51-0.51
							c-1.57,1.71-3.78,2.75-6.1,2.84C175.98,88.94,175.98,89.66,176.44,89.64L176.44,89.64z"/>
					</g>
				</g>
			</g>
		</g>
		<g>
			<path class="st14" d="M251.09,163.59c-9.07,21.31-33.77,23.57-33.77,23.57s-24.48-33.32-28.33-47.83
				c-3.85-14.51,5.85-29.24,5.85-29.24c6.16-1.27,13.08-10.01,13.08-10.01s22.64,3.35,27.02,12.76c0.05,0.11,0.11,0.23,0.15,0.35
				c1.32,3.2,2.29,7,3.11,11.04c1.66,8.17,2.7,17.33,4.74,24.52C245.98,159.49,251.09,163.59,251.09,163.59z"/>
			<path class="st4" d="M238.2,124.24l-15.72-5.71l12.46-5.68c0.05,0.11,0.11,0.23,0.15,0.35
				C236.41,116.4,237.38,120.2,238.2,124.24z"/>
			<g>
				<g>
					<path class="st4" d="M193.55,113.01c6.69-1.59,12.55-5.93,16.03-11.86c0.25-0.43-0.42-0.83-0.67-0.39
						c-3.37,5.76-9.06,9.96-15.56,11.5C192.86,112.37,193.06,113.13,193.55,113.01L193.55,113.01z"/>
				</g>
			</g>
			<g>
				<g>
					<path class="st4" d="M215.65,185.19c14.12-2.18,27.32-10.59,34.26-23.23c0.24-0.44-0.43-0.84-0.67-0.39
						c-6.86,12.48-19.86,20.71-33.8,22.87C214.94,184.52,215.16,185.27,215.65,185.19L215.65,185.19z"/>
				</g>
			</g>
		</g>
		<g>
			<g>
				<path class="st11" d="M345.49,121.34l-0.49-2.93l-5.44-0.96c0,0,5.88,4.67,5.18,5.18c-0.7,0.51-7.93-1.15-11.13-3.26
					c-3.2-2.11-4.35-3.26-4.35-3.26s-34.7,2.06-57.32,1.69c-10.82-0.18-22.6-0.02-31.95,0.2c-10.21,0.23-17.52,0.53-17.52,0.53
					l-14.57-18.44c0,0,3.17-2.54,11.64-3.21c5.79-0.46,15.21,0.33,23.07,0.88c3.65,0.26,6.96,0.46,9.41,0.46
					c7.72,0,33.64,0.97,47.57,2.34c13.93,1.38,28.33,2.86,28.33,2.86s15.78-0.99,17.37-0.4c1.59,0.6,7.44,9.92,7.54,12.11
					C352.95,117.31,347.28,120.74,345.49,121.34z"/>
				<g>
					<g>
						<path class="st10" d="M353.09,115.41c-2.94-1.26-6.01-2.16-9.17-2.67c-0.45-0.07-0.65,0.62-0.19,0.69
							c3.09,0.49,6.12,1.36,9,2.59C353.15,116.21,353.52,115.59,353.09,115.41L353.09,115.41z"/>
					</g>
				</g>
				<g>
					<g>
						<path class="st10" d="M342.31,113.16c0.46,0,0.46-0.72,0-0.72C341.85,112.44,341.85,113.16,342.31,113.16L342.31,113.16z"/>
					</g>
				</g>
				<g>
					<g>
						<path class="st10" d="M352.04,111.78c-2.26-1.64-5-2.54-7.79-2.57c-0.46-0.01-0.46,0.71,0,0.72c2.67,0.03,5.26,0.9,7.42,2.47
							C352.05,112.67,352.41,112.05,352.04,111.78L352.04,111.78z"/>
					</g>
				</g>
				<g>
					<g>
						<path class="st10" d="M348.85,106.78c-1.78-0.72-3.68-1.11-5.6-1.17c-0.46-0.01-0.46,0.7,0,0.72
							c1.86,0.06,3.68,0.45,5.41,1.14C349.08,107.64,349.27,106.95,348.85,106.78L348.85,106.78z"/>
					</g>
				</g>
				<g>
					<g>
						<path class="st10" d="M338.02,116.52c2.15,1.91,4.31,3.82,6.46,5.73c0.34,0.31,0.85-0.2,0.51-0.51
							c-2.15-1.91-4.31-3.82-6.46-5.73C338.18,115.71,337.67,116.21,338.02,116.52L338.02,116.52z"/>
					</g>
				</g>
				<g>
					<g>
						<path class="st10" d="M339.74,117.77c2.6,0.78,5.25,1.36,7.94,1.75c0.45,0.07,0.65-0.63,0.19-0.69
							c-2.69-0.39-5.34-0.97-7.94-1.75C339.48,116.94,339.29,117.64,339.74,117.77L339.74,117.77z"/>
					</g>
				</g>
			</g>
			<g>
				<path class="st14" d="M240,118c-10.21,0.23-17.52,0.53-17.52,0.53l-14.57-18.44c0,0,3.17-2.54,11.64-3.21
					c5.79-0.46,15.21,0.33,23.07,0.88C241.19,100.05,237.56,107.18,240,118z"/>
				<g>
					<g>
						<path class="st4" d="M238.65,97.23c-3.27,6.44-4.15,13.87-2.47,20.89c0.12,0.49,0.87,0.28,0.75-0.21
							c-1.63-6.81-0.78-14.04,2.39-20.29C239.55,97.18,238.88,96.78,238.65,97.23L238.65,97.23z"/>
					</g>
				</g>
			</g>
		</g>
	</g>
</g>
<g id="TEXTS" class="st15">
	<g class="st16">
		<text transform="matrix(1 0 0 1 153.351 448.2939)" class="st9 st17 st18 st19">international</text>
		<text transform="matrix(1 0 0 1 168.5131 479.0127)" class="st3 st20 st21 st19">yoga day</text>
	</g>
</g>
</svg>
