<?xml version="1.0" encoding="utf-8"?>
<!-- Generator: Adobe Illustrator 27.5.0, SVG Export Plug-In . SVG Version: 6.00 Build 0)  -->
<svg version="1.1" xmlns="http://www.w3.org/2000/svg" xmlns:xlink="http://www.w3.org/1999/xlink" x="0px" y="0px"
	 viewBox="0 0 500 500" style="enable-background:new 0 0 500 500;" xml:space="preserve">
<style type="text/css">
	.st0{display:none;fill:#FFFFFF;}
	.st1{fill:#F2F2F2;}
	.st2{fill:#FFFFFF;}
	.st3{fill:#4CC8D8;}
	.st4{fill:#3BB5C4;}
	.st5{fill:#133246;}
	.st6{fill:#0A2130;}
	.st7{fill:#B5D84C;}
	.st8{fill:#9FC238;}
	.st9{fill:#FDC400;}
	.st10{fill:#FB7E00;}
	.st11{fill:#FB7C00;}
	.st12{fill:#E04B00;}
	.st13{fill:#1E89CC;}
	.st14{fill:#FCBB00;}
	.st15{fill:#FA682B;}
	.st16{fill:#F25513;}
	.st17{fill:#2497D5;}
	.st18{display:none;}
	.st19{display:inline;}
	.st20{font-family:'Anaheim-Regular';}
	.st21{font-size:25.736px;}
	.st22{letter-spacing:1;}
	.st23{font-family:'Poppins-Black';}
	.st24{font-size:33.132px;}
</style>
<g id="BACKGROUND">
	<rect class="st0" width="500" height="500"/>
	
		<ellipse transform="matrix(0.7071 -0.7071 0.7071 0.7071 -86.0128 240.0523)" class="st1" cx="246.76" cy="223.85" rx="175.05" ry="175.05"/>
	<path class="st2" d="M411.78,125.26H300.81c0,0,2.49-30.82,15.95-27.35c13.46,3.46,15.39,13.46,15.39,13.46s6.15-34.24,28.08-28.08
		c21.93,6.15,16.16,27.31,16.16,27.31s4.23-15.39,13.85-11.92c9.62,3.46,5,18.08,5,18.08L411.78,125.26z"/>
	<path class="st2" d="M205.17,111.97h-82.61c0,0,1.85-22.94,11.87-20.36c10.02,2.58,11.45,10.02,11.45,10.02s4.58-25.49,20.9-20.91
		c16.32,4.58,12.03,20.33,12.03,20.33s3.15-11.45,10.31-8.88c7.16,2.58,3.72,13.46,3.72,13.46L205.17,111.97z"/>
</g>
<g id="OBJECTS">
	<g>
		<g>
			<g>
				<path class="st3" d="M361.93,188.45c0,0,2.51-2.73,2.92-7.62c0.42-4.89,0.03-8.42-3.8-8.49
					C357.22,172.27,355.66,183.88,361.93,188.45z"/>
				<path class="st3" d="M358.69,204.06c0,0,1.92-8.3,7.58-11.51c5.66-3.21,7.55-0.37,7.79,1.5
					C374.3,195.92,369.46,204.27,358.69,204.06z"/>
				<path class="st3" d="M356.32,213.38c0,0,1.69-6.91-0.44-11.9c-2.13-5-5.68-5.12-7.81-3.42
					C345.93,199.75,348.19,210.77,356.32,213.38z"/>
				<path class="st3" d="M353.12,223.04c0,0,2.92-7.99,8.35-11.13c5.43-3.14,9.86,1.7,5.79,5.45
					C363.19,221.11,353.12,223.04,353.12,223.04z"/>
				<path class="st3" d="M349.62,230.83c0,0,1.98-5.87-0.62-12.21c-2.61-6.34-7.46-5.85-9.1-4.4
					C338.26,215.66,339.07,225.34,349.62,230.83z"/>
				<path class="st3" d="M344.64,243.41c0,0,19.05-3.99,18.23-9.93C362.04,227.54,349.78,232.13,344.64,243.41z"/>
				<path class="st3" d="M340.78,251.09c0,0,1.87-6.3-1.22-13.5c-3.09-7.2-6.52-6.78-7.56-3.29
					C330.97,237.79,334,247.94,340.78,251.09z"/>
			</g>
			<g>
				<g>
					<g>
						<path class="st4" d="M361.51,188.07c-3.46,20.73-9.92,40.95-19.28,59.78c-2.66,5.35-5.55,10.58-8.66,15.68
							c-0.28,0.47,0.45,0.89,0.73,0.43c10.98-18.01,19.19-37.67,24.36-58.12c1.47-5.79,2.68-11.64,3.67-17.53
							C362.42,187.77,361.6,187.54,361.51,188.07L361.51,188.07z"/>
					</g>
				</g>
				<g>
					<g>
						<path class="st4" d="M362.36,188.27c0.28-4.26,0.2-8.54-0.26-12.79c-0.06-0.54-0.9-0.54-0.85,0
							c0.45,4.25,0.54,8.53,0.26,12.79C361.48,188.82,362.32,188.81,362.36,188.27L362.36,188.27z"/>
					</g>
				</g>
				<g>
					<g>
						<path class="st4" d="M359.27,203.63c3.57-2.61,7.15-5.22,10.72-7.83c0.44-0.32,0.01-1.05-0.43-0.73
							c-3.57,2.61-7.15,5.22-10.72,7.83C358.41,203.21,358.83,203.95,359.27,203.63L359.27,203.63z"/>
					</g>
				</g>
				<g>
					<g>
						<path class="st4" d="M356.63,212.7c-1.36-4.27-3.07-8.43-5.13-12.41c-0.25-0.48-0.98-0.06-0.73,0.43
							c2.03,3.92,3.71,8,5.05,12.21C355.98,213.44,356.8,213.22,356.63,212.7L356.63,212.7z"/>
					</g>
				</g>
				<g>
					<g>
						<path class="st4" d="M353.78,222.97c3.71-2.65,7.43-5.3,11.14-7.95c0.44-0.31,0.02-1.05-0.43-0.73
							c-3.71,2.65-7.43,5.3-11.14,7.95C352.91,222.55,353.33,223.29,353.78,222.97L353.78,222.97z"/>
					</g>
				</g>
				<g>
					<g>
						<path class="st4" d="M350.37,231.17c-1.29-4.51-3.15-8.83-5.55-12.86c-0.28-0.47-1.01-0.04-0.73,0.43
							c2.36,3.97,4.2,8.21,5.46,12.65C349.7,231.92,350.52,231.7,350.37,231.17L350.37,231.17z"/>
					</g>
				</g>
				<g>
					<g>
						<path class="st4" d="M345.48,243.13c3.58-2.94,7.47-5.47,11.59-7.56c0.49-0.25,0.06-0.98-0.43-0.73
							c-4.19,2.13-8.13,4.71-11.77,7.7C344.46,242.88,345.06,243.47,345.48,243.13L345.48,243.13z"/>
					</g>
				</g>
				<g>
					<g>
						<path class="st4" d="M341.26,251c-1.5-4.93-3.37-9.74-5.58-14.39c-0.23-0.49-0.96-0.06-0.73,0.43
							c2.18,4.59,4.01,9.33,5.49,14.19C340.6,251.75,341.42,251.53,341.26,251L341.26,251z"/>
					</g>
				</g>
			</g>
		</g>
		<g>
			<path class="st5" d="M383.8,258.16c0,0,42.48-40.8,23.94-57.05c-18.53-16.25-52.02,20.31-59.21,26.83
				c-7.19,6.53-26.68,32.24-12.23,48.01C350.76,291.72,378.42,264.18,383.8,258.16z"/>
			<g>
				<g>
					<g>
						<path class="st6" d="M407.08,200.77c-11.66,11.11-23.08,22.46-34.23,34.07c-11.1,11.55-21.95,23.35-32.53,35.38
							c-5.99,6.82-11.9,13.71-17.72,20.67c-0.42,0.5,0.3,1.23,0.73,0.73c10.33-12.35,20.93-24.48,31.79-36.36
							c10.81-11.82,21.89-23.41,33.21-34.74c6.41-6.42,12.91-12.76,19.48-19.02C408.28,201.04,407.55,200.31,407.08,200.77
							L407.08,200.77z"/>
					</g>
				</g>
				<g>
					<g>
						<path class="st6" d="M389.13,219.94c7.04,0.62,14.12,0.72,21.17,0.3c0.66-0.04,0.66-1.07,0-1.03
							c-7.06,0.42-14.13,0.32-21.17-0.3C388.47,218.85,388.47,219.88,389.13,219.94L389.13,219.94z"/>
					</g>
				</g>
				<g>
					<g>
						<path class="st6" d="M385.71,223.47c7.73,0.34,15.47,0.68,23.2,1.02c0.66,0.03,0.66-1,0-1.03c-7.73-0.34-15.47-0.68-23.2-1.02
							C385.05,222.42,385.05,223.44,385.71,223.47L385.71,223.47z"/>
					</g>
				</g>
				<g>
					<g>
						<path class="st6" d="M365.2,244.15c10.72,0.18,21.43-0.1,32.12-0.85c0.66-0.05,0.66-1.07,0-1.03
							c-10.69,0.75-21.41,1.03-32.12,0.85C364.54,243.12,364.54,244.14,365.2,244.15L365.2,244.15z"/>
					</g>
				</g>
				<g>
					<g>
						<path class="st6" d="M362.11,247.8c10.94-0.26,21.88-0.51,32.82-0.77c0.66-0.02,0.66-1.04,0-1.03
							c-10.94,0.26-21.88,0.51-32.82,0.77C361.45,246.79,361.45,247.82,362.11,247.8L362.11,247.8z"/>
					</g>
				</g>
				<g>
					<g>
						<path class="st6" d="M346.32,264.82c9.87,0.61,19.73,1.22,29.6,1.82c0.66,0.04,0.66-0.99,0-1.03
							c-9.87-0.61-19.73-1.22-29.6-1.82C345.66,263.76,345.66,264.78,346.32,264.82L346.32,264.82z"/>
					</g>
				</g>
				<g>
					<g>
						<path class="st6" d="M343.87,267.68c9.36,0.68,18.73,1.37,28.09,2.05c0.66,0.05,0.66-0.98,0-1.03
							c-9.36-0.68-18.73-1.37-28.09-2.05C343.21,266.61,343.21,267.64,343.87,267.68L343.87,267.68z"/>
					</g>
				</g>
				<g>
					<g>
						<path class="st6" d="M379.59,202.38c-0.02,8.92-0.44,17.84-1.27,26.73c-0.06,0.66,0.97,0.65,1.03,0
							c0.83-8.89,1.25-17.8,1.27-26.73C380.61,201.72,379.59,201.72,379.59,202.38L379.59,202.38z"/>
					</g>
				</g>
				<g>
					<g>
						<path class="st6" d="M375.95,204.23c-0.19,9.26-0.39,18.53-0.58,27.79c-0.01,0.66,1.01,0.66,1.03,0
							c0.19-9.26,0.39-18.53,0.58-27.79C376.99,203.57,375.97,203.57,375.95,204.23L375.95,204.23z"/>
					</g>
				</g>
				<g>
					<g>
						<path class="st6" d="M354.35,222.23c0.36,10.3,0.71,20.61,1.07,30.91c0.02,0.66,1.05,0.66,1.03,0
							c-0.36-10.3-0.71-20.61-1.07-30.91C355.35,221.57,354.33,221.57,354.35,222.23L354.35,222.23z"/>
					</g>
				</g>
				<g>
					<g>
						<path class="st6" d="M350.9,225.27c0.38,10.6,0.76,21.21,1.14,31.81c0.02,0.66,1.05,0.66,1.03,0
							c-0.38-10.6-0.76-21.21-1.14-31.81C351.9,224.61,350.88,224.6,350.9,225.27L350.9,225.27z"/>
					</g>
				</g>
			</g>
		</g>
		<g>
			<g>
				<path class="st5" d="M105.96,230.03c0,0-3.58-0.97-6.54-4.88c-2.96-3.91-4.52-7.11-1.32-9.21
					C101.31,213.83,108.82,222.81,105.96,230.03z"/>
				<path class="st5" d="M117.03,241.49c0,0-6.06-5.99-12.55-5.68s-6.58,3.72-5.79,5.43C99.49,242.95,108.04,247.42,117.03,241.49z"
					/>
				<path class="st5" d="M124.01,248.11c0,0-5.12-4.94-5.98-10.3c-0.86-5.36,2.07-7.36,4.78-7.06
					C125.52,231.04,129.49,241.56,124.01,248.11z"/>
				<path class="st5" d="M131.87,254.57c0,0-6.74-5.2-13-4.95c-6.27,0.25-7.43,6.71-1.99,7.7
					C122.33,258.31,131.87,254.57,131.87,254.57z"/>
				<path class="st5" d="M138.99,259.29c0,0-4.81-3.91-5.99-10.66c-1.18-6.75,3.19-8.93,5.34-8.58
					C140.5,240.4,144.98,249.01,138.99,259.29z"/>
				<path class="st5" d="M149.92,267.27c0,0-18.24,6.79-20.71,1.33C126.73,263.14,139.55,260.48,149.92,267.27z"/>
				<path class="st5" d="M157.28,271.71c0,0-4.94-4.33-6.17-12.07c-1.23-7.74,1.89-9.22,4.63-6.82
					C158.48,255.22,161.33,265.42,157.28,271.71z"/>
			</g>
			<g>
				<g>
					<g>
						<path class="st6" d="M105.53,230.1c14.04,15.74,30.36,29.42,48.39,40.38c5.1,3.1,10.34,5.98,15.7,8.63
							c0.49,0.24,0.91-0.49,0.43-0.73c-18.84-9.34-36.21-21.53-51.45-36.01c-4.33-4.12-8.49-8.41-12.47-12.87
							C105.76,229.09,105.16,229.69,105.53,230.1L105.53,230.1z"/>
					</g>
				</g>
				<g>
					<g>
						<path class="st6" d="M106.22,229.67c-2.52-3.45-4.73-7.12-6.61-10.95c-0.24-0.49-0.97-0.06-0.73,0.43
							c1.88,3.84,4.09,7.5,6.61,10.95C105.81,230.53,106.54,230.11,106.22,229.67L106.22,229.67z"/>
					</g>
				</g>
				<g>
					<g>
						<path class="st6" d="M116.29,240.59c-4.42-0.3-8.83-0.6-13.25-0.9c-0.54-0.04-0.54,0.81,0,0.85c4.42,0.3,8.83,0.6,13.25,0.9
							C116.84,241.48,116.84,240.63,116.29,240.59L116.29,240.59z"/>
					</g>
				</g>
				<g>
					<g>
						<path class="st6" d="M124.2,247.47c-1.12-4.27-1.87-8.62-2.25-13.01c-0.05-0.54-0.89-0.54-0.85,0
							c0.39,4.47,1.15,8.9,2.28,13.24C123.52,248.22,124.33,248,124.2,247.47L124.2,247.47z"/>
					</g>
				</g>
				<g>
					<g>
						<path class="st6" d="M131.27,254.02c-4.55-0.26-9.11-0.52-13.66-0.77c-0.54-0.03-0.54,0.81,0,0.85
							c4.55,0.26,9.11,0.52,13.66,0.77C131.81,254.9,131.81,254.05,131.27,254.02L131.27,254.02z"/>
					</g>
				</g>
				<g>
					<g>
						<path class="st6" d="M139.35,259.74c-1.3-4.43-2.02-9-2.14-13.61c-0.01-0.54-0.86-0.55-0.85,0c0.12,4.69,0.85,9.34,2.17,13.84
							C138.69,260.49,139.51,260.27,139.35,259.74L139.35,259.74z"/>
					</g>
				</g>
				<g>
					<g>
						<path class="st6" d="M149.15,266.65c-4.63-0.58-9.3-0.65-13.95-0.22c-0.54,0.05-0.54,0.9,0,0.85
							c4.65-0.43,9.32-0.36,13.95,0.22C149.69,267.56,149.68,266.72,149.15,266.65L149.15,266.65z"/>
					</g>
				</g>
				<g>
					<g>
						<path class="st6" d="M157.65,271.65c-1.34-4.9-2.32-9.89-2.93-14.93c-0.06-0.53-0.91-0.54-0.85,0
							c0.62,5.12,1.61,10.18,2.96,15.15C156.97,272.4,157.79,272.18,157.65,271.65L157.65,271.65z"/>
					</g>
				</g>
			</g>
		</g>
		<g>
			<g>
				<g>
					<path class="st6" d="M90.75,283.87c15.95,12.84,34.57,22.26,54.36,27.49c5.61,1.48,11.31,2.62,17.06,3.42
						c0.53,0.07,0.76-0.74,0.22-0.82c-20.1-2.8-39.54-9.85-56.78-20.57c-4.96-3.08-9.72-6.47-14.27-10.13
						C90.93,282.93,90.32,283.53,90.75,283.87L90.75,283.87z"/>
				</g>
			</g>
			<g>
				<path class="st5" d="M93.15,285.18c0,0-8.92-19.72-13.91-17.5C74.26,269.9,83.86,281.59,93.15,285.18z"/>
				<path class="st5" d="M99.18,289.67c0,0-19.67-9.81-22.37-6.1C74.12,287.29,87.39,292.18,99.18,289.67z"/>
				<path class="st5" d="M105.41,293.76c0,0-4.68-1.74-14.23-1.3c-9.55,0.43-12.35,2.83-11.66,5.56
					C80.21,300.75,98.53,299.76,105.41,293.76z"/>
				<path class="st5" d="M99.18,289.67c0,0,1.82-19.31-2.25-20.33C92.87,268.33,94.08,282.68,99.18,289.67z"/>
				<path class="st5" d="M111.41,297.24c0,0-4.7-2.56-7.33-8.04c-2.63-5.48-2.5-12.56,0.58-12.71
					C107.74,276.35,111.41,297.24,111.41,297.24z"/>
				<path class="st5" d="M117.45,300.45c0,0-8.2-2.44-14.18-0.89c-5.98,1.54-8.99,3.62-8.04,5.88
					C96.19,307.69,111.64,305.51,117.45,300.45z"/>
				<path class="st5" d="M130.82,306.29c0,0-6.2,3.32-12.63,4.37c-6.43,1.05-8.4,1-8.52-0.68
					C109.55,308.29,114.38,302.95,130.82,306.29z"/>
				<path class="st5" d="M126.33,304.41c0,0-7.78-4.11-11.31-11.59c-3.53-7.47-3.54-10.75-1.79-11.52c1.76-0.77,6.15,6.47,7.72,11.7
					C122.52,298.23,126.33,304.41,126.33,304.41z"/>
				<path class="st5" d="M141.27,309.84c0,0-10.44-1.55-17.32,3.17S128.04,322.47,141.27,309.84z"/>
				<g>
					<path class="st5" d="M126.66,292.45c-2.04,7.35,14.1,16.13,17.82,18.04C141.72,305.93,128.72,285.04,126.66,292.45z"/>
				</g>
			</g>
		</g>
		<g>
			<path class="st7" d="M273.57,270.09c0,0-1.04,12.96,6.91,15.53c7.95,2.57,15.74,1.49,19.73-0.38c0,0-17.19-19.31-10.32-25.2
				c6.86-5.89,9.61,21.81,21.89,22.86c12.28,1.05,21.74-25.41,21.78-29.68c0,0-34.65,0.4-34.39-10.36
				c0.26-10.76,18.05,12.78,43.75-5.12c0,0,2.03-12.35,0.8-17.68c0,0-33.53,18.32-39.83,9.78c-6.3-8.55,24.95-2.17,38.55-20.44
				c0,0-0.94-10.28-2.72-15.23c0,0-23.34,26.91-28.85,18.46c-5.51-8.45,18.14-8.84,27.22-23.54c0,0-1.37-20.32-13.69-36.76
				c0,0-17.48,2.99-28.48,8.44c0,0-5.2,11.57-2.92,19.46c2.27,7.89,8.02,19.41,3.09,20.85c-4.94,1.44-11.04-26.11-8.28-36.84
				c0,0-12.53,1.61-21.3,8.95c0,0-1.5,20.68,6.48,33.65c7.98,12.97,7.9,16.93,4.9,18.16c-2.99,1.23-18.42-18.34-18.34-50.06
				c0,0-10.61,11.62-15.73,19.55c0,0,3.4,21.77,13.35,31.18c9.96,9.4,15.37,12.43,14.18,16.1c-1.19,3.67-15.48-2.88-21.2-12.19
				c-5.72-9.31-9.1-21.27-8.94-25.06c0,0-12.28,18.63-5.42,31.74c6.86,13.11,19.41,14.45,24.2,15.17c4.8,0.71,5.2,3.36,0.67,5.04
				c-4.52,1.68-15.31,0.7-21.47-5.48C239.19,250.98,246.83,283.24,273.57,270.09z"/>
			<g>
				<g>
					<g>
						<path class="st8" d="M323.58,152.84c-6.64,18.75-13.75,37.34-21.44,55.69c-7.75,18.49-16.1,36.74-25.15,54.63
							c-5.05,9.99-10.32,19.87-15.82,29.63c-0.43,0.77,0.75,1.46,1.19,0.69c9.84-17.46,18.94-35.33,27.38-53.5
							c8.4-18.08,16.16-36.47,23.39-55.05c4.09-10.51,8-21.1,11.77-31.73C325.2,152.37,323.87,152.01,323.58,152.84L323.58,152.84z"
							/>
					</g>
				</g>
				<g>
					<g>
						<path class="st8" d="M296.09,223.46c-10.05-11.69-16.76-26.04-19.29-41.25c-0.73-4.38-1.09-8.82-1.14-13.26
							c-0.01-0.88-1.38-0.89-1.37,0c0.16,15.72,4.57,31.27,12.86,44.64c2.37,3.82,5.05,7.43,7.97,10.84
							C295.69,225.1,296.66,224.13,296.09,223.46L296.09,223.46z"/>
					</g>
				</g>
				<g>
					<g>
						<path class="st8" d="M288.49,239.73c-17.11-5.05-27.3-21.15-33.6-36.79c-1.99-4.94-3.71-9.97-5.44-15.01
							c-0.28-0.83-1.61-0.47-1.32,0.37c5.86,17.09,12.35,35.36,27.49,46.49c3.78,2.78,7.99,4.93,12.5,6.26
							C288.97,241.3,289.33,239.98,288.49,239.73L288.49,239.73z"/>
					</g>
				</g>
				<g>
					<g>
						<path class="st8" d="M333.52,170.71c-5.52,6.23-12.65,10.87-20.59,13.37c-0.84,0.26-0.48,1.59,0.36,1.32
							c8.16-2.57,15.52-7.33,21.2-13.73C335.08,171.02,334.11,170.05,333.52,170.71L333.52,170.71z"/>
					</g>
				</g>
				<g>
					<g>
						<path class="st8" d="M306.27,157.22c0.24,8.98,2.04,17.86,5.34,26.22c0.32,0.81,1.65,0.46,1.32-0.37
							c-3.26-8.25-5.06-16.99-5.29-25.85C307.62,156.34,306.24,156.34,306.27,157.22L306.27,157.22z"/>
					</g>
				</g>
				<g>
					<g>
						<path class="st8" d="M340.71,201.84c-12,9.4-26.01,20.01-42.23,17.68c-0.86-0.12-1.24,1.2-0.36,1.32
							c16.81,2.42,31.11-8.27,43.57-18.04C342.38,202.26,341.4,201.3,340.71,201.84L340.71,201.84z"/>
					</g>
				</g>
				<g>
					<g>
						<path class="st8" d="M343.23,229.56c-14.87,9.21-34.15,10.5-50.08,3.25c-0.8-0.36-1.5,0.82-0.69,1.19
							c12.75,5.8,27.61,6.4,40.83,1.81c3.72-1.29,7.29-2.99,10.64-5.06C344.67,230.28,343.98,229.09,343.23,229.56L343.23,229.56z"
							/>
					</g>
				</g>
				<g>
					<g>
						<path class="st8" d="M325.14,271.19c-7.45-2.82-14.51-6.64-20.94-11.34c-3.18-2.32-6.08-4.91-9.03-7.51
							c-2.67-2.35-5.52-4.53-8.99-5.5c-0.85-0.24-1.22,1.09-0.36,1.32c3.72,1.03,6.64,3.57,9.46,6.1c2.86,2.57,5.8,5.04,8.94,7.28
							c6.35,4.54,13.28,8.2,20.57,10.97C325.6,272.82,325.96,271.5,325.14,271.19L325.14,271.19z"/>
					</g>
				</g>
				<g>
					<g>
						<path class="st8" d="M287.96,286.4c-5.41-6.81-8.72-15.16-9.45-23.83c-0.07-0.87-1.45-0.88-1.37,0
							c0.76,9.06,4.19,17.68,9.85,24.8C287.54,288.06,288.51,287.09,287.96,286.4L287.96,286.4z"/>
					</g>
				</g>
				<g>
					<g>
						<path class="st8" d="M233.15,222.36c6.07,14.6,20.69,22.57,35.05,27.14c4.79,1.53,9.66,2.77,14.53,4.01
							c0.86,0.22,1.22-1.11,0.36-1.32c-15.03-3.84-31.11-8.05-41.97-19.92c-2.77-3.03-5.07-6.48-6.64-10.28
							C234.14,221.2,232.81,221.55,233.15,222.36L233.15,222.36z"/>
					</g>
				</g>
				<g>
					<g>
						<path class="st8" d="M277.39,261.6c-10.2,4.31-21.78,4.76-32.3,1.34c-0.84-0.27-1.2,1.05-0.37,1.32
							c10.9,3.54,22.82,2.98,33.36-1.47C278.9,262.44,278.2,261.26,277.39,261.6L277.39,261.6z"/>
					</g>
				</g>
			</g>
		</g>
		<g>
			<path class="st3" d="M221.97,322.37c0,0,10.73,9.3,18.14,3.97c7.41-5.33,11.5-12.89,12.44-17.6c0,0-28.11,2.62-28.85-7.23
				c-0.74-9.85,25.42,5.66,34.29-4.47c8.87-10.13-8.28-35.58-12.02-38.37c0,0-22.07,30.75-31.37,23.56
				c-9.3-7.19,22.93-7.61,23.81-41.81c0,0-9.56-9.78-15.04-12.14c0,0-5.58,41.36-17.18,41.38c-11.6,0.01,14.24-23.36,6.97-47.16
				c0,0-9.65-5.82-15.16-7.46c0,0,8.57,37.95-2.43,37.33c-11-0.62,3.96-21.69-3.09-39.18c0,0-18.77-11.95-41.2-11.75
				c0,0-8.68,17.31-11,30.53c0,0,6.82,12.06,15.23,15.17c8.41,3.1,22.27,5.5,20.35,10.78c-1.93,5.28-30.12-7.18-37.78-16.55
				c0,0-6.69,12.07-5.91,24.54c0,0,17.22,14.71,33.8,16.07c16.58,1.37,20.01,4.01,19.15,7.44c-0.86,3.43-28.06,4.34-55.92-16.27
				c0,0,3.36,16.86,7.02,26.5c0,0,21.36,11.1,36.07,8.43c14.72-2.67,20.89-5.48,23.35-2.06c2.46,3.42-12.55,11.76-24.45,10.77
				c-11.9-0.99-24.61-5.76-27.84-8.35c0,0,8.44,22.86,24.42,25.31c15.97,2.45,25.28-7.73,29.01-11.48c3.73-3.76,6.32-2.4,4.87,2.67
				c-1.45,5.07-9.29,13.92-18.72,15.35C182.9,340.25,216.23,354.4,221.97,322.37z"/>
			<g>
				<g>
					<g>
						<path class="st4" d="M151.1,202.39c12.26,18.07,24.08,36.44,35.29,55.18c11.21,18.72,21.82,37.8,31.67,57.27
							c5.55,10.95,10.85,22.02,15.89,33.21c0.4,0.88,1.69,0.12,1.29-0.76c-8.97-19.9-18.77-39.41-29.26-58.55
							c-10.49-19.14-21.66-37.9-33.36-56.32c-6.59-10.37-13.34-20.62-20.24-30.79C151.86,200.84,150.56,201.59,151.1,202.39
							L151.1,202.39z"/>
					</g>
				</g>
				<g>
					<g>
						<path class="st4" d="M195.62,272.36c-16.94,1.29-34.05-2.1-49.17-9.86c-4.25-2.18-8.32-4.69-12.2-7.48
							c-0.78-0.56-1.53,0.74-0.76,1.3c13.88,10,30.34,16.13,47.4,17.52c4.9,0.4,9.82,0.4,14.72,0.02
							C196.58,273.79,196.59,272.29,195.62,272.36L195.62,272.36z"/>
					</g>
				</g>
				<g>
					<g>
						<path class="st4" d="M204.99,289.53c-15.57,11.83-36.32,10.4-54.23,5.8c-5.65-1.45-11.21-3.19-16.77-4.94
							c-0.92-0.29-1.32,1.16-0.4,1.45c18.77,5.89,39.09,12.02,58.63,5.88c4.86-1.53,9.46-3.81,13.53-6.89
							C206.51,290.25,205.76,288.95,204.99,289.53L204.99,289.53z"/>
					</g>
				</g>
				<g>
					<g>
						<path class="st4" d="M173.34,205.37c1.9,8.9,1.33,18.15-1.6,26.76c-0.31,0.92,1.14,1.31,1.45,0.4
							c3.02-8.86,3.56-18.4,1.6-27.56C174.58,204.03,173.14,204.43,173.34,205.37L173.34,205.37z"/>
					</g>
				</g>
				<g>
					<g>
						<path class="st4" d="M143.88,220.58c8.05,5.6,17.05,9.75,26.53,12.25c0.93,0.25,1.33-1.2,0.4-1.45
							c-9.37-2.47-18.22-6.56-26.17-12.1C143.84,218.74,143.09,220.04,143.88,220.58L143.88,220.58z"/>
					</g>
				</g>
				<g>
					<g>
						<path class="st4" d="M205.36,219c0.51,16.73,0.8,35.96-11.83,48.78c-0.68,0.69,0.38,1.75,1.06,1.06
							c12.93-13.13,12.79-32.68,12.27-49.84C206.83,218.03,205.33,218.03,205.36,219L205.36,219z"/>
					</g>
				</g>
				<g>
					<g>
						<path class="st4" d="M231.38,234.91c-1.17,14.83-8.37,28.93-19.42,38.85c-3.12,2.8-6.55,5.24-10.22,7.28
							c-0.84,0.47-0.09,1.77,0.76,1.3c13.33-7.44,23.42-20.17,27.95-34.72c1.28-4.13,2.09-8.4,2.43-12.71
							C232.96,233.95,231.46,233.96,231.38,234.91L231.38,234.91z"/>
					</g>
				</g>
				<g>
					<g>
						<path class="st4" d="M256.39,277.64c-7.41,4.8-15.43,8.59-23.86,11.22c-4.01,1.25-8.09,2.12-12.2,3.01
							c-3.84,0.83-7.6,1.95-10.74,4.42c-0.76,0.6,0.31,1.65,1.06,1.06c3.24-2.55,7.34-3.46,11.28-4.28
							c4.14-0.86,8.24-1.84,12.26-3.16c8.09-2.64,15.81-6.34,22.95-10.97C257.96,278.41,257.21,277.12,256.39,277.64L256.39,277.64z
							"/>
					</g>
				</g>
				<g>
					<g>
						<path class="st4" d="M245.74,320.25c-9.59,0.36-19.09-2.13-27.26-7.15c-0.82-0.51-1.58,0.79-0.76,1.3
							c8.39,5.15,18.18,7.72,28.02,7.35C246.71,321.71,246.71,320.21,245.74,320.25L245.74,320.25z"/>
					</g>
				</g>
				<g>
					<g>
						<path class="st4" d="M153.87,327.07c17.36,4.24,34.28-4.18,47.87-14.3c3.97-2.96,7.8-6.09,11.63-9.23
							c0.75-0.61-0.32-1.67-1.06-1.06c-12.91,10.58-26.8,21.82-43.96,23.91c-4.7,0.57-9.47,0.37-14.08-0.76
							C153.33,325.39,152.93,326.84,153.87,327.07L153.87,327.07z"/>
					</g>
				</g>
				<g>
					<g>
						<path class="st4" d="M216.99,313.39c-2.79,11.76-9.84,22.31-19.67,29.35c-0.78,0.56-0.03,1.86,0.76,1.3
							c10.15-7.27,17.47-18.1,20.36-30.25C218.66,312.85,217.21,312.45,216.99,313.39L216.99,313.39z"/>
					</g>
				</g>
			</g>
		</g>
		<g>
			<path class="st7" d="M217.95,381.55c0,0-16.97,2.59-37.42,6.5c-20.45,3.91-46.43-9-58.47-19.12
				c-12.04-10.12-20.12-27.01-22.83-37.73c-2.71-10.71-5.31-22.24-14.15-31.12c0,0,38.22-12.41,66.09-6.97
				c27.87,5.44,42.51,16.8,56.19,35.3C221.04,346.94,217.95,381.55,217.95,381.55z"/>
			<g>
				<g>
					<g>
						<path class="st8" d="M85.73,301.7c21.21,7.17,41.71,16.37,61.18,27.42c19.47,11.05,37.9,23.93,54.95,38.43
							c9.56,8.13,18.68,16.78,27.32,25.88c0.69,0.72,1.78-0.37,1.09-1.09c-15.5-16.34-32.56-31.17-50.87-44.29
							c-18.25-13.07-37.74-24.42-58.12-33.84c-11.45-5.29-23.19-9.97-35.14-14.01C85.2,299.89,84.8,301.38,85.73,301.7L85.73,301.7z
							"/>
					</g>
				</g>
				<g>
					<g>
						<path class="st8" d="M99.46,331.83c14.59-5.17,30.43-6.36,45.62-3.35c0.97,0.19,1.39-1.3,0.41-1.49
							c-15.46-3.06-31.59-1.92-46.44,3.35C98.12,330.67,98.52,332.16,99.46,331.83L99.46,331.83z"/>
					</g>
				</g>
				<g>
					<g>
						<path class="st8" d="M101.78,338.54c17.89-5.37,36.94-6.46,55.33-3.14c0.97,0.18,1.39-1.31,0.41-1.49
							c-18.66-3.37-37.98-2.31-56.15,3.14C100.42,337.33,100.83,338.82,101.78,338.54L101.78,338.54z"/>
					</g>
				</g>
				<g>
					<g>
						<path class="st8" d="M129.81,318.19c-6.93-6.33-11.36-15.11-12.26-24.46c-0.09-0.98-1.64-0.99-1.54,0
							c0.94,9.75,5.47,18.93,12.71,25.55C129.45,319.95,130.54,318.86,129.81,318.19L129.81,318.19z"/>
					</g>
				</g>
				<g>
					<g>
						<path class="st8" d="M137.09,321.81c-7.05-8.04-11.13-18.43-11.46-29.12c-0.03-0.99-1.57-1-1.54,0
							c0.34,11.11,4.58,21.85,11.91,30.21C136.66,323.65,137.75,322.56,137.09,321.81L137.09,321.81z"/>
					</g>
				</g>
				<g>
					<g>
						<path class="st8" d="M178.01,347.01c-17.24-2.78-35.07-1.41-51.68,4.01c-4.7,1.53-9.3,3.4-13.75,5.55
							c-0.89,0.43-0.11,1.76,0.78,1.33c15.41-7.44,32.55-11.13,49.66-10.74c4.89,0.11,9.76,0.56,14.58,1.34
							C178.57,348.66,178.99,347.17,178.01,347.01L178.01,347.01z"/>
					</g>
				</g>
				<g>
					<g>
						<path class="st8" d="M201.64,365.89c-16.63-4.94-34.83-2.81-49.81,5.95c-3.98,2.33-7.7,5.1-11.09,8.24
							c-0.73,0.68,0.36,1.77,1.09,1.09c12.1-11.18,28.39-17.13,44.85-16.3c4.94,0.25,9.81,1.11,14.54,2.52
							C202.18,367.67,202.59,366.18,201.64,365.89L201.64,365.89z"/>
					</g>
				</g>
				<g>
					<g>
						<path class="st8" d="M210.73,373.86c-15.06-3.97-31.3-2.48-45.48,3.91c-4.08,1.84-7.95,4.09-11.58,6.72
							c-0.8,0.58-0.03,1.92,0.78,1.33c12.38-8.97,27.79-13.38,43.05-12.51c4.33,0.25,8.62,0.94,12.81,2.05
							C211.28,375.6,211.69,374.11,210.73,373.86L210.73,373.86z"/>
					</g>
				</g>
				<g>
					<g>
						<path class="st8" d="M211.44,373.95c-6.3-11.73-2.44-25.33,1.11-37.25c0.28-0.95-1.21-1.36-1.49-0.41
							c-3.68,12.37-7.47,26.31-0.95,38.44C210.58,375.61,211.91,374.83,211.44,373.95L211.44,373.95z"/>
					</g>
				</g>
				<g>
					<g>
						<path class="st8" d="M175.81,301.35c-5.64,18.31,0.87,37.25,9.97,53.22c0.49,0.86,1.83,0.09,1.33-0.78
							c-8.9-15.62-15.34-34.12-9.82-52.03C177.59,300.81,176.1,300.41,175.81,301.35L175.81,301.35z"/>
					</g>
				</g>
				<g>
					<g>
						<path class="st8" d="M165.27,296.77c-2.62,17.02,0.54,34.65,8.94,49.69c0.48,0.87,1.82,0.09,1.33-0.78
							c-8.19-14.64-11.34-31.91-8.79-48.5C166.91,296.21,165.42,295.79,165.27,296.77L165.27,296.77z"/>
					</g>
				</g>
			</g>
		</g>
		<g>
			<path class="st7" d="M273.39,385.26c0,0,3.32-19.27,6.46-42.77c3.14-23.5,26.45-46.92,41.72-56.28
				c15.27-9.36,36.43-12.01,48.99-11.08c12.55,0.93,25.94,2.27,38.72-4.07c0,0-0.36,45.76-16.28,73.91
				c-15.92,28.15-33.46,39.88-58.38,47.99C309.68,401.06,273.39,385.26,273.39,385.26z"/>
			<g>
				<g>
					<g>
						<path class="st8" d="M407.27,271.22c-15.37,20.3-32.69,39.12-51.61,56.15c-18.93,17.04-39.45,32.29-61.24,45.47
							c-12.28,7.44-24.96,14.21-37.97,20.29c-1.02,0.48-0.13,1.99,0.89,1.52c23.26-10.87,45.47-23.98,66.24-39.07
							c20.72-15.05,40.04-32.04,57.57-50.71c9.79-10.42,19-21.36,27.63-32.76C409.47,271.2,407.94,270.32,407.27,271.22
							L407.27,271.22z"/>
					</g>
				</g>
				<g>
					<g>
						<path class="st8" d="M369.8,275.2c0.34,17.63-4.12,35.18-12.84,50.5c-0.56,0.98,0.96,1.87,1.52,0.89
							c8.87-15.58,13.43-33.46,13.08-51.39C371.53,274.07,369.78,274.06,369.8,275.2L369.8,275.2z"/>
					</g>
				</g>
				<g>
					<g>
						<path class="st8" d="M361.72,275.28c-0.5,16.53-4.05,32.93-10.42,48.19c-1.82,4.35-3.88,8.59-6.14,12.72
							c-0.54,0.99,0.97,1.88,1.52,0.89c8.09-14.78,13.42-31,15.66-47.7c0.63-4.68,1.01-9.38,1.15-14.09
							C363.51,274.15,361.75,274.15,361.72,275.28L361.72,275.28z"/>
					</g>
				</g>
				<g>
					<g>
						<path class="st8" d="M373.65,312.82c9.33-5.21,20.42-6.79,30.83-4.4c1.1,0.25,1.57-1.44,0.47-1.7
							c-10.87-2.51-22.44-0.87-32.19,4.57C371.78,311.86,372.66,313.37,373.65,312.82L373.65,312.82z"/>
					</g>
				</g>
				<g>
					<g>
						<path class="st8" d="M366.9,319.48c11.31-4.76,24.03-5.47,35.79-1.94c1.09,0.33,1.55-1.37,0.47-1.7
							c-12.02-3.61-25.15-2.93-36.72,1.94C365.41,318.21,365.86,319.91,366.9,319.48L366.9,319.48z"/>
					</g>
				</g>
				<g>
					<g>
						<path class="st8" d="M325.13,354.5c9.17-17.53,14.08-37.2,14.26-56.99c0.05-5.66-0.3-11.31-1.02-16.92
							c-0.14-1.11-1.9-1.12-1.76,0c2.51,19.4,0.33,39.29-6.27,57.71c-1.88,5.25-4.14,10.37-6.72,15.31
							C323.08,354.61,324.6,355.5,325.13,354.5L325.13,354.5z"/>
					</g>
				</g>
				<g>
					<g>
						<path class="st8" d="M296.21,373.23c11.13-15.88,15.4-35.88,11.69-54.92c-1.08-5.52-2.82-10.87-5.13-15.99
							c-0.47-1.03-1.98-0.14-1.52,0.89c7.87,17.42,8.25,37.62,1.02,55.32c-1.99,4.88-4.56,9.51-7.58,13.82
							C294.05,373.27,295.57,374.15,296.21,373.23L296.21,373.23z"/>
					</g>
				</g>
				<g>
					<g>
						<path class="st8" d="M284.34,380.18c9.75-14.88,14.02-33.17,12.1-50.84c-0.54-4.97-1.56-9.87-3.06-14.63
							c-0.34-1.08-2.04-0.62-1.7,0.47c5.23,16.57,4.42,34.78-1.98,50.91c-1.84,4.63-4.16,9.05-6.88,13.21
							C282.2,380.24,283.72,381.12,284.34,380.18L284.34,380.18z"/>
					</g>
				</g>
				<g>
					<g>
						<path class="st8" d="M284,380.94c14.92-2.59,28.26,6.54,39.84,14.66c0.93,0.65,1.81-0.87,0.89-1.52
							c-12.05-8.45-25.72-17.52-41.2-14.84C282.42,379.44,282.89,381.14,284,380.94L284,380.94z"/>
					</g>
				</g>
				<g>
					<g>
						<path class="st8" d="M375.18,368.59c-13.41-9.61-30.43-11.97-46.53-10.52c-4.89,0.44-9.75,1.21-14.57,2.16
							c-1.11,0.22-0.64,1.91,0.47,1.7c15.95-3.17,32.88-4.08,48.29,1.96c4.06,1.59,7.91,3.68,11.46,6.22
							C375.21,370.77,376.09,369.24,375.18,368.59L375.18,368.59z"/>
					</g>
				</g>
				<g>
					<g>
						<path class="st8" d="M383.92,358.85c-13.57-6.97-28.91-10.35-44.16-9.69c-4.28,0.18-8.55,0.69-12.75,1.5
							c-1.11,0.21-0.64,1.91,0.47,1.7c14.54-2.77,29.73-1.69,43.76,3.03c4.06,1.36,7.99,3.04,11.8,4.99
							C384.04,360.89,384.93,359.37,383.92,358.85L383.92,358.85z"/>
					</g>
				</g>
			</g>
		</g>
		<g>
			<path class="st9" d="M216.61,390.39c0,0,17.14-2.56,38.02-4.88c20.88-2.32,42.09-22.51,50.68-35.85
				c8.59-13.34,11.35-32.04,10.78-43.18c-0.58-11.14-1.5-23.03,4.37-34.22c0,0-40.54-0.58-65.8,12.97
				c-25.25,13.55-35.98,28.86-43.66,50.78C203.32,357.93,216.61,390.39,216.61,390.39z"/>
			<g>
				<g>
					<g>
						<path class="st10" d="M319.58,272.8c-18.35,13.26-35.44,28.26-50.96,44.74c-15.52,16.48-29.5,34.42-41.66,53.52
							c-6.88,10.8-13.18,21.98-18.86,33.46c-0.36,0.73,0.73,1.37,1.1,0.64c10.02-20.25,21.96-39.53,35.61-57.52
							c13.62-17.95,28.93-34.62,45.67-49.7c9.47-8.54,19.41-16.57,29.74-24.04C320.87,273.42,320.24,272.32,319.58,272.8
							L319.58,272.8z"/>
					</g>
				</g>
				<g>
					<g>
						<path class="st10" d="M316.03,305.73c-15.86-0.65-31.74,3.03-45.7,10.57c-0.72,0.39-0.08,1.48,0.64,1.1
							c13.77-7.44,29.42-11.04,45.06-10.4C316.84,307.04,316.84,305.77,316.03,305.73L316.03,305.73z"/>
					</g>
				</g>
				<g>
					<g>
						<path class="st10" d="M315.79,312.89c-19.11,0.16-38.04,4.87-55,13.66c-0.72,0.38-0.08,1.47,0.64,1.1
							c16.76-8.69,35.48-13.33,54.36-13.49C316.61,314.15,316.61,312.88,315.79,312.89L315.79,312.89z"/>
					</g>
				</g>
				<g>
					<g>
						<path class="st10" d="M283.97,303.72c4.99-8.5,6.65-18.66,4.66-28.32c-0.17-0.8-1.39-0.46-1.22,0.34
							c1.92,9.32,0.29,19.14-4.53,27.34C282.46,303.78,283.55,304.42,283.97,303.72L283.97,303.72z"/>
					</g>
				</g>
				<g>
					<g>
						<path class="st10" d="M278.02,309.38c4.56-10.21,5.46-21.78,2.49-32.57c-0.22-0.79-1.44-0.45-1.22,0.34
							c2.88,10.43,2.05,21.7-2.36,31.59C276.6,309.48,277.69,310.13,278.02,309.38L278.02,309.38z"/>
					</g>
				</g>
				<g>
					<g>
						<path class="st10" d="M245.58,346.39c15.5-7.66,32.77-11.55,50.06-11.33c4.95,0.07,9.89,0.47,14.79,1.21
							c0.8,0.12,1.14-1.1,0.34-1.22c-17.46-2.65-35.48-1.08-52.22,4.59c-4.66,1.58-9.2,3.47-13.61,5.65
							C244.21,345.66,244.85,346.75,245.58,346.39L245.58,346.39z"/>
					</g>
				</g>
				<g>
					<g>
						<path class="st10" d="M228.42,371.64c13.97-9.33,31.33-12.72,47.76-9.16c4.75,1.03,9.37,2.62,13.76,4.72
							c0.73,0.35,1.38-0.74,0.64-1.1c-15.64-7.48-33.92-8.34-50.13-2.12c-4.46,1.71-8.7,3.91-12.67,6.56
							C227.1,370.99,227.74,372.09,228.42,371.64L228.42,371.64z"/>
					</g>
				</g>
				<g>
					<g>
						<path class="st10" d="M222.03,382.02c13.1-8.17,28.99-11.54,44.3-9.57c4.35,0.56,8.64,1.57,12.79,2.98
							c0.77,0.26,1.11-0.96,0.34-1.22c-14.89-5.06-31.47-4.68-46.18,0.85c-4.15,1.56-8.13,3.53-11.89,5.87
							C220.7,381.36,221.33,382.45,222.03,382.02L222.03,382.02z"/>
					</g>
				</g>
				<g>
					<g>
						<path class="st10" d="M222,381.47c2.66-13.62-5.11-25.87-12.33-36.67c-0.45-0.68-1.55-0.04-1.1,0.64
							c7,10.47,14.79,22.47,12.21,35.7C220.62,381.93,221.84,382.27,222,381.47L222,381.47z"/>
					</g>
				</g>
				<g>
					<g>
						<path class="st10" d="M232.15,301.24c10.68,15.65,10.01,35.46,6.07,53.2c-0.18,0.8,1.05,1.13,1.22,0.34
							c4-18.06,4.67-38.25-6.2-54.18C232.79,299.93,231.69,300.57,232.15,301.24L232.15,301.24z"/>
					</g>
				</g>
				<g>
					<g>
						<path class="st10" d="M240.95,293.69c7.42,15.27,9.56,32.89,6.01,49.49c-0.17,0.8,1.05,1.14,1.22,0.34
							c3.62-16.96,1.43-34.87-6.14-50.47C241.69,292.31,240.59,292.96,240.95,293.69L240.95,293.69z"/>
					</g>
				</g>
			</g>
		</g>
		<g>
			<path class="st11" d="M296.88,354.73c0.11,7.43-15.29,10.11-22.04-1.07c0,0-4.98,10.41,2.31,14.98
				c7.29,4.57,15.19-5.05,18.53-2.27c3.33,2.78-3.91,12.5-16.24,10.11c0,0,4.86,13.63,21.98,1.85c0,0-0.81,14.78,7.4,20.49
				c8.21,5.71,12.74,1.27,12.74,1.27s-14.1-15.35-8.78-20.15c5.32-4.8,7.54,17.86,12.13,20.66c4.58,2.8,15.67,1.72,22.38-4.33
				c0,0-19.73-8.78-18.01-16.17c1.72-7.39,14.12,9.65,23.31,9.65c9.19,0,13.23-15.5,13.23-15.5s-20.93,2.94-21.26-4.69
				c-0.34-7.64,11.45,2.99,20.45-1.12c9.01-4.12,7.07-16.02,7.07-16.02s-36.28,6.91-35.94-4.75c0.35-11.66,27.8,4.72,35.61-4.03
				c0,0,1.93-5.79-2.69-14.25c0,0-7.46,0.43-13.3,3.98c-5.84,3.55-13.81,4.3-14,0.87c-0.19-3.43,3.96-3.52,10.36-3.91
				c6.4-0.39,19.54-5.74,6.56-22.13c0,0-7.28-1.23-14.63-4.23c-7.35-2.99-11.47,2.23-11.75,7.53c-0.28,5.3-1.15,8.74-4.27,7.25
				c-3.12-1.49-5.17-8.88-0.39-14.97c0,0-7.57-3.88-11.32,2.37c-3.75,6.25,3.45,13.53-2.87,16.35c-6.32,2.82-8.76-11.94-7.46-14.12
				c0,0-10.45,2.44-12.19,9.9c-1.74,7.46,9,13.92,8.77,18.26c-0.23,4.34-4.62,7.8-11.41,0.87c-6.79-6.93-7.79-11.48-7.79-11.48
				s-9.45,7.76-6.51,16.4C279.78,350.96,296.76,347.3,296.88,354.73z M332.5,356.73c0,0,6.79,0.82,6.44,4.71
				c-0.35,3.89-7.46,4.32-11.51,0.91C323.38,358.95,326.25,355.64,332.5,356.73z M318.22,361.33c0,0,3.61,1.01,2.84,3.2
				c-0.77,2.19-4.47,1.07-5.82,0.03C313.88,363.52,314.44,360.24,318.22,361.33z M313.75,332.13c-0.33-1.75,0.35-3.95,1.93-4.46
				c1.58-0.51,3.77,1.05,4.61,4.03c0.84,2.98-1.21,5.79-3.72,5.03C314.06,335.98,313.75,332.13,313.75,332.13z M303.99,341.05
				c1.15-0.66,3.43,0.83,4.27,1.5c0,0,3,1.66,1.52,3.95c-1.48,2.29-5.25-0.08-6.13-1.52C302.78,343.53,302.84,341.7,303.99,341.05z"
				/>
			<g>
				<g>
					<path class="st12" d="M358.54,307.8c-11.59,4.53-20.73,13.34-29.06,22.31c-8.37,9.02-16.11,18.83-21.68,29.85
						c-3.07,6.06-5.43,12.46-6.85,19.1c-0.17,0.8,1.05,1.14,1.22,0.34c2.5-11.73,8-22.51,14.9-32.25
						c3.52-4.95,7.39-9.65,11.47-14.15c4.03-4.45,8.21-8.81,12.72-12.77c5.25-4.61,11.07-8.65,17.61-11.21
						C359.63,308.73,359.3,307.5,358.54,307.8L358.54,307.8z"/>
				</g>
			</g>
		</g>
	</g>
	<g>
		<polygon class="st13" points="25.08,416.04 262.07,416.04 262.07,362.55 100.82,362.55 		"/>
		<polygon class="st13" points="474.92,416.04 237.93,416.04 237.93,362.55 399.18,362.55 		"/>
	</g>
	<g>
		<g>
			<path class="st10" d="M67.22,189.94l7.01-0.66l0.31,0.82l0.62-0.1l0.71,1.52c0,0-0.24,0.01-0.74,0.1l0.29,0.76c0,0-0.17,0-0.47,0
				l0.04,0.05c0,0-4.99,1.27-5.71,1.77c-0.72,0.5-3.43,2.04-3.38,1.1l1.65-1.52c-3.53,0.91-7.43,1.47-7.82,1.21
				c-0.21-0.14,1.08-0.8,2.65-1.53c-2.23,0.21-4.35,0.31-4.78,0.07C56.77,193.07,67.22,189.94,67.22,189.94z"/>
			<path class="st14" d="M217.77,209.22c0,0-120.67-9.19-126.5-10.12c-5.84-0.93-17.99,2.21-18.37,0.41
				c-0.39-1.8,9.35-4.66,9.35-4.66s-6.92-3.16-12.7-2.84c-5.79,0.32-12.79-0.13-12.6-1.03c0.2-0.89,14.79-3.32,18.69-4.03
				c3.9-0.71,13.12,2.16,21.81,1.69c7.83-0.43,56.5,0.44,68.26,0.51c11.76,0.07,51.96-3.83,51.96-3.83L217.77,209.22z"/>
		</g>
		<g>
			<g>
				<path class="st15" d="M190.6,131.47c0,0-1.95-6.53,5.02-8.49c6.97-1.97,14.44,7.71,13.23,12.67c-1.22,4.96-7.02,5.84-7.02,5.84
					L190.6,131.47z"/>
				<path class="st15" d="M200.58,176.38c0,0-1.63-4.12,1.4-9.1c3.03-4.98,6.37-14.28,2.59-23.11c-3.77-8.83-10.3-16.72-23.7-13.91
					c-13.4,2.81-21.04,10.36-21.55,16.08c-0.5,5.72,0.54,8.9,4.91,10.18C168.62,157.8,200.58,176.38,200.58,176.38z"/>
				<g>
					<g>
						<path class="st16" d="M190.18,130.32c5.79,1.72,10.67,6.09,12.99,11.68c0.17,0.42,0.87,0.24,0.69-0.19
							c-2.42-5.83-7.44-10.38-13.5-12.18C189.93,129.49,189.74,130.18,190.18,130.32L190.18,130.32z"/>
					</g>
				</g>
			</g>
			<g>
				<polygon class="st14" points="202.41,178.52 191.82,191.05 185.36,184.16 180.43,178.91 180.34,178.82 192.04,166.38 				"/>
				<polygon class="st10" points="188.27,173.81 185.36,184.16 180.43,178.91 				"/>
			</g>
			<g>
				<polygon class="st10" points="164.27,159.07 162.05,167.66 165.98,169.06 				"/>
				<path class="st14" d="M170.17,140.04c0,0-8.34,4.32-6.08,19.05c2.26,14.73,4.36,20.33,9.56,21.3
					c5.2,0.97,15.36-2.86,18.39-14.01c0,0,5.27-2.74,4.94-8.11c-0.33-5.37-2.94-7.08-5.73-6.54c-2.8,0.53-4.82,3.08-4.76,7.23
					C186.49,158.97,174.2,158.38,170.17,140.04z"/>
				<g>
					<g>
						<path class="st10" d="M192.48,154.86c-1.88,0.81-2.91,2.82-2.59,4.82c0.03,0.19,0.27,0.3,0.44,0.25
							c0.2-0.06,0.28-0.25,0.25-0.44c-0.28-1.7,0.69-3.34,2.26-4.01c0.18-0.08,0.22-0.34,0.13-0.49
							C192.87,154.81,192.66,154.78,192.48,154.86L192.48,154.86z"/>
					</g>
				</g>
				<g>
					<g>
						<path class="st10" d="M167.56,173.66c2.41-0.68,4.49-2.33,5.69-4.53c0.22-0.41-0.4-0.77-0.62-0.36
							c-1.12,2.04-3.03,3.56-5.26,4.2C166.93,173.1,167.12,173.79,167.56,173.66L167.56,173.66z"/>
					</g>
				</g>
			</g>
		</g>
		<path class="st17" d="M229.76,238.58c-7.7-2.7-17.07-9.5-21.56-13.22c-4.49-3.72-6.29-1.54-13.47-7.7
			c-7.19-6.16-7.44-30.93-7.44-30.93c8.21,0.26,12.71-11.58,12.71-11.58l13-7.51l19.33,18.06c4.36,12.06,11.55,21.18,11.55,21.18
			C245.54,223.18,229.76,238.58,229.76,238.58z"/>
		<path class="st14" d="M212.99,167.65c0,0,4.64,16.95,19.33,18.06c0,0,0.18-10.03,0.81-11.51c0.63-1.47,36.33-60.73,36.33-60.73
			l-6.08-10.3C263.39,103.18,230.4,139.46,212.99,167.65z"/>
		<g>
			<path class="st14" d="M284.91,384.57c0,0-1.29,4.22-0.47,6.78c0.82,2.56,3.66,7.68,2.19,9.97c-1.46,2.29-7.86,2.29-13.17,1.92
				c-5.3-0.37-11.7,1.46-15.82,0.37c-4.11-1.1-7.22-1.65-6.77-2.56c0.46-0.91,19.66-7.59,20.94-9.97c1.28-2.38,1.56-8.07,1.56-8.07
				L284.91,384.57z"/>
			<path class="st14" d="M278.96,35.88c-9.47,4.36-9.81,14.71-12.73,18.66s-7.36,7.63-7.49,12.26c-0.14,4.63,3.75,3.61,5.65,5.86
				c1.91,2.25,1.06,3.63,1.06,3.63l11.68-0.29c0.01-0.1,0.03-0.2,0.04-0.31c0.97-7.15,1.45-23.46,0.91-25.57
				c-0.54-2.11,1.5-7.29,2.04-10.69C280.66,36.02,278.96,35.88,278.96,35.88z"/>
			<path class="st5" d="M294.96,316.52c1.83,9.77,0.52,42.13-10.06,68.05c0,0-7.59,1.56-11.9-1.18c0,0,1.62-51.47,0.36-61.57
				c-1.26-10.11-15.14-43.97-14.14-77.57c0,0-12.32,2.1-29.47-5.66c0,0,15.79-15.4,14.12-31.7c0,0,9.86,3.12,14.17-2.69
				c0,0,2.38-8.77,4.26-18.75c1.88-9.98,6.07-33.54,5.35-38.46c-0.72-4.92-11.49-47.59-2.2-70.71l11.73-0.6
				c0,0,5.07,38.52,11.22,60.55c6.15,22.03,14.01,75.44,2.14,95.46c0,0,5.65,14.34,2.91,38.45
				C290.69,294.25,293.13,306.76,294.96,316.52z"/>
			<g>
				<path class="st14" d="M279.8,94.07c0,0-5.43-5.06-5.86-9.25c-0.43-4.2-0.22-10.65,1.18-10.86c1.4-0.22,7.42,8.23,7.64,9.9
					C282.98,85.52,281.04,92.51,279.8,94.07z"/>
				<g>
					<g>
						<path class="st10" d="M273.75,84.09c1.16,1.19,2.25,2.44,3.26,3.76c0.12,0.15,0.31,0.24,0.49,0.13
							c0.15-0.09,0.25-0.34,0.13-0.49c-1.05-1.37-2.17-2.67-3.37-3.9C273.93,83.25,273.43,83.76,273.75,84.09L273.75,84.09z"/>
					</g>
				</g>
				<g>
					<g>
						<path class="st10" d="M273.57,79.57c1.38,1.96,2.91,3.82,4.57,5.55c0.32,0.33,0.83-0.17,0.51-0.51
							c-1.62-1.69-3.11-3.5-4.46-5.41C273.92,78.84,273.3,79.2,273.57,79.57L273.57,79.57z"/>
					</g>
				</g>
				<g>
					<g>
						<path class="st10" d="M273.91,75.57c1.58,2.29,3.15,4.57,4.73,6.86c0.26,0.38,0.88,0.02,0.62-0.36
							c-1.58-2.29-3.15-4.57-4.73-6.86C274.27,74.83,273.64,75.19,273.91,75.57L273.91,75.57z"/>
					</g>
				</g>
				<g>
					<g>
						<path class="st10" d="M274.06,83.98c0.05-1.36,0.09-2.71,0.14-4.07c0.02-0.71,0.05-1.42,0.07-2.13
							c0.02-0.64-0.01-1.31,0.11-1.94c0.1-0.55,0.4-1.2,1.01-1.3c0.58-0.1,1.06,0.55,1.41,0.93c0.91,0.98,1.73,2.02,2.49,3.11
							c0.26,0.38,0.88,0.02,0.62-0.36c-0.87-1.27-1.84-2.48-2.91-3.59c-0.39-0.4-0.85-0.8-1.43-0.82c-0.58-0.02-1.11,0.32-1.45,0.78
							c-0.38,0.52-0.48,1.18-0.52,1.81c-0.05,0.81-0.06,1.63-0.09,2.45c-0.06,1.71-0.12,3.42-0.17,5.13
							C273.32,84.44,274.04,84.44,274.06,83.98L274.06,83.98z"/>
					</g>
				</g>
			</g>
		</g>
	</g>
</g>
<g id="TEXTS" class="st18">
	<g class="st19">
		<text transform="matrix(1 0 0 1 153.3499 448.2941)" class="st13 st20 st21 st22">international</text>
		<text transform="matrix(1 0 0 1 168.5134 479.0124)" class="st3 st23 st24 st22">yoga day</text>
	</g>
</g>
</svg>
