<?xml version="1.0" encoding="utf-8"?>
<!-- Generator: Adobe Illustrator 27.5.0, SVG Export Plug-In . SVG Version: 6.00 Build 0)  -->
<svg version="1.1" xmlns="http://www.w3.org/2000/svg" xmlns:xlink="http://www.w3.org/1999/xlink" x="0px" y="0px"
	 viewBox="0 0 500 500" style="enable-background:new 0 0 500 500;" xml:space="preserve">
<style type="text/css">
	.st0{display:none;fill:#FFFFFF;}
	.st1{fill:#F2F2F2;}
	.st2{fill:#FFFFFF;}
	.st3{fill:#4CC8D8;}
	.st4{fill:#3BB5C4;}
	.st5{fill:#133246;}
	.st6{fill:#0A2130;}
	.st7{fill:#B5D84C;}
	.st8{fill:#9FC238;}
	.st9{fill:#FDC400;}
	.st10{fill:#FB7E00;}
	.st11{fill:#FB7C00;}
	.st12{fill:#E04B00;}
	.st13{fill:#1E89CC;}
	.st14{fill:#007EC2;}
	.st15{fill:#C8C8C8;}
	.st16{fill:#2497D5;}
	.st17{display:none;}
	.st18{display:inline;}
	.st19{font-family:'Anaheim-Regular';}
	.st20{font-size:25.736px;}
	.st21{letter-spacing:1;}
	.st22{font-family:'Poppins-Black';}
	.st23{font-size:33.132px;}
</style>
<g id="BACKGROUND">
	<rect class="st0" width="500" height="500"/>
	
		<ellipse transform="matrix(0.7071 -0.7071 0.7071 0.7071 -86.0128 240.0523)" class="st1" cx="246.76" cy="223.85" rx="175.05" ry="175.05"/>
	<path class="st2" d="M411.78,125.26H300.81c0,0,2.49-30.82,15.95-27.35c13.46,3.46,15.39,13.46,15.39,13.46s6.15-34.24,28.08-28.08
		c21.93,6.15,16.16,27.31,16.16,27.31s4.23-15.39,13.85-11.92c9.62,3.46,5,18.08,5,18.08L411.78,125.26z"/>
	<path class="st2" d="M205.17,111.97h-82.61c0,0,1.85-22.94,11.87-20.36c10.02,2.58,11.45,10.02,11.45,10.02s4.58-25.49,20.9-20.91
		c16.32,4.58,12.03,20.33,12.03,20.33s3.15-11.45,10.31-8.88c7.16,2.58,3.72,13.46,3.72,13.46L205.17,111.97z"/>
</g>
<g id="OBJECTS">
	<g>
		<g>
			<g>
				<path class="st3" d="M381.55,128.52c0,0,2.95-3.21,3.43-8.96c0.49-5.74,0.04-9.9-4.47-9.98
					C376.01,109.49,374.18,123.14,381.55,128.52z"/>
				<path class="st3" d="M377.74,146.86c0,0,2.26-9.75,8.91-13.53c6.65-3.78,8.88-0.44,9.16,1.76
					C396.09,137.3,390.4,147.11,377.74,146.86z"/>
				<path class="st3" d="M374.96,157.82c0,0,1.99-8.12-0.52-13.99c-2.51-5.87-6.67-6.02-9.18-4.02
					C362.75,141.8,365.4,154.75,374.96,157.82z"/>
				<path class="st3" d="M371.2,169.17c0,0,3.43-9.4,9.81-13.08c6.38-3.69,11.6,2,6.81,6.41S371.2,169.17,371.2,169.17z"/>
				<path class="st3" d="M367.08,178.34c0,0,2.33-6.9-0.73-14.36c-3.06-7.45-8.77-6.88-10.7-5.18
					C353.73,160.5,354.68,171.88,367.08,178.34z"/>
				<path class="st3" d="M361.23,193.13c0,0,22.39-4.69,21.43-11.68C381.68,174.47,367.27,179.87,361.23,193.13z"/>
				<path class="st3" d="M356.69,202.15c0,0,2.19-7.4-1.44-15.87c-3.63-8.46-7.67-7.97-8.88-3.87
					C345.16,186.52,348.72,198.44,356.69,202.15z"/>
			</g>
			<g>
				<g>
					<g>
						<path class="st4" d="M381.06,128.07c-4.07,24.38-11.67,48.16-22.68,70.3c-3.12,6.28-6.52,12.41-10.17,18.4
							c-0.33,0.55,0.53,1.05,0.86,0.5c12.91-21.18,22.57-44.31,28.65-68.35c1.72-6.8,3.15-13.67,4.3-20.58
							C382.12,127.71,381.17,127.44,381.06,128.07L381.06,128.07z"/>
					</g>
				</g>
				<g>
					<g>
						<path class="st4" d="M382.06,128.31c0.33-5.01,0.23-10.04-0.3-15.03c-0.07-0.63-1.06-0.64-0.99,0
							c0.53,4.99,0.63,10.02,0.3,15.03C381.02,128.95,382.01,128.94,382.06,128.31L382.06,128.31z"/>
					</g>
				</g>
				<g>
					<g>
						<path class="st4" d="M378.42,146.35c4.2-3.07,8.4-6.14,12.6-9.2c0.51-0.37,0.02-1.24-0.5-0.86c-4.2,3.07-8.4,6.14-12.6,9.2
							C377.41,145.87,377.91,146.73,378.42,146.35L378.42,146.35z"/>
					</g>
				</g>
				<g>
					<g>
						<path class="st4" d="M375.32,157.02c-1.59-5.02-3.61-9.9-6.03-14.59c-0.29-0.57-1.15-0.07-0.86,0.5
							c2.38,4.61,4.37,9.4,5.93,14.35C374.56,157.89,375.52,157.63,375.32,157.02L375.32,157.02z"/>
					</g>
				</g>
				<g>
					<g>
						<path class="st4" d="M371.97,169.1c4.37-3.11,8.73-6.23,13.1-9.34c0.52-0.37,0.02-1.23-0.5-0.86
							c-4.37,3.11-8.73,6.23-13.1,9.34C370.95,168.61,371.45,169.47,371.97,169.1L371.97,169.1z"/>
					</g>
				</g>
				<g>
					<g>
						<path class="st4" d="M367.96,178.73c-1.51-5.3-3.7-10.38-6.52-15.11c-0.33-0.55-1.19-0.05-0.86,0.5
							c2.78,4.66,4.93,9.66,6.42,14.88C367.18,179.61,368.14,179.35,367.96,178.73L367.96,178.73z"/>
					</g>
				</g>
				<g>
					<g>
						<path class="st4" d="M362.22,192.8c4.21-3.45,8.78-6.43,13.63-8.89c0.57-0.29,0.07-1.15-0.5-0.86
							c-4.93,2.5-9.56,5.54-13.83,9.05C361.02,192.5,361.73,193.2,362.22,192.8L362.22,192.8z"/>
					</g>
				</g>
				<g>
					<g>
						<path class="st4" d="M357.25,202.05c-1.77-5.79-3.96-11.45-6.56-16.92c-0.27-0.58-1.13-0.07-0.86,0.5
							c2.56,5.4,4.71,10.97,6.46,16.68C356.48,202.92,357.44,202.66,357.25,202.05L357.25,202.05z"/>
					</g>
				</g>
			</g>
		</g>
		<g>
			<path class="st5" d="M407.26,210.46c0,0,49.93-47.96,28.15-67.07c-21.79-19.1-61.15,23.87-69.6,31.54
				c-8.45,7.67-31.36,37.9-14.37,56.44S400.93,217.53,407.26,210.46z"/>
			<g>
				<g>
					<g>
						<path class="st6" d="M434.62,143c-13.71,13.06-27.13,26.41-40.25,40.06c-13.06,13.59-25.82,27.47-38.27,41.63
							c-7.03,8-13.96,16.08-20.79,24.25c-0.5,0.59,0.35,1.45,0.85,0.85c12.14-14.52,24.61-28.78,37.38-42.75
							c12.72-13.91,25.75-27.54,39.08-40.88c7.53-7.53,15.15-14.97,22.86-22.32C436.04,143.32,435.19,142.46,434.62,143L434.62,143z
							"/>
					</g>
				</g>
				<g>
					<g>
						<path class="st6" d="M413.52,165.53c8.28,0.73,16.59,0.85,24.89,0.35c0.77-0.05,0.78-1.25,0-1.21
							c-8.3,0.5-16.61,0.38-24.89-0.35C412.75,164.25,412.76,165.46,413.52,165.53L413.52,165.53z"/>
					</g>
				</g>
				<g>
					<g>
						<path class="st6" d="M409.51,169.68c9.09,0.4,18.18,0.8,27.27,1.19c0.78,0.03,0.78-1.17,0-1.21
							c-9.09-0.4-18.18-0.8-27.27-1.19C408.73,168.44,408.73,169.65,409.51,169.68L409.51,169.68z"/>
					</g>
				</g>
				<g>
					<g>
						<path class="st6" d="M385.39,194c12.6,0.22,25.2-0.12,37.76-1c0.77-0.05,0.78-1.26,0-1.21c-12.57,0.88-25.17,1.22-37.76,1
							C384.62,192.78,384.62,193.98,385.39,194L385.39,194z"/>
					</g>
				</g>
				<g>
					<g>
						<path class="st6" d="M381.77,198.28c12.86-0.3,25.72-0.6,38.58-0.91c0.78-0.02,0.78-1.23,0-1.21
							c-12.86,0.3-25.72,0.6-38.58,0.91C380.99,197.09,380.99,198.3,381.77,198.28L381.77,198.28z"/>
					</g>
				</g>
				<g>
					<g>
						<path class="st6" d="M363.2,218.29c11.6,0.71,23.2,1.43,34.79,2.14c0.78,0.05,0.77-1.16,0-1.21
							c-11.6-0.71-23.2-1.43-34.79-2.14C362.42,217.04,362.43,218.25,363.2,218.29L363.2,218.29z"/>
					</g>
				</g>
				<g>
					<g>
						<path class="st6" d="M360.32,221.66c11.01,0.8,22.01,1.61,33.02,2.41c0.78,0.06,0.77-1.15,0-1.21
							c-11.01-0.8-22.01-1.61-33.02-2.41C359.54,220.39,359.55,221.6,360.32,221.66L360.32,221.66z"/>
					</g>
				</g>
				<g>
					<g>
						<path class="st6" d="M402.31,144.89c-0.02,10.49-0.51,20.97-1.49,31.42c-0.07,0.77,1.14,0.77,1.21,0
							c0.97-10.45,1.47-20.93,1.49-31.42C403.52,144.11,402.31,144.11,402.31,144.89L402.31,144.89z"/>
					</g>
				</g>
				<g>
					<g>
						<path class="st6" d="M398.03,147.06c-0.23,10.89-0.45,21.78-0.68,32.67c-0.02,0.78,1.19,0.78,1.21,0
							c0.23-10.89,0.45-21.78,0.68-32.67C399.26,146.28,398.05,146.28,398.03,147.06L398.03,147.06z"/>
					</g>
				</g>
				<g>
					<g>
						<path class="st6" d="M372.64,168.23c0.42,12.11,0.84,24.23,1.26,36.34c0.03,0.78,1.23,0.78,1.21,0
							c-0.42-12.11-0.84-24.23-1.26-36.34C373.82,167.45,372.61,167.45,372.64,168.23L372.64,168.23z"/>
					</g>
				</g>
				<g>
					<g>
						<path class="st6" d="M368.59,171.79c0.45,12.46,0.89,24.93,1.34,37.4c0.03,0.77,1.24,0.78,1.21,0
							c-0.45-12.47-0.89-24.93-1.34-37.4C369.77,171.02,368.56,171.01,368.59,171.79L368.59,171.79z"/>
					</g>
				</g>
			</g>
		</g>
		<g>
			<g>
				<path class="st5" d="M80.65,177.39c0,0-4.21-1.15-7.69-5.74c-3.48-4.6-5.32-8.35-1.55-10.83
					C75.18,158.35,84.01,168.91,80.65,177.39z"/>
				<path class="st5" d="M93.67,190.87c0,0-7.12-7.04-14.76-6.68c-7.64,0.36-7.74,4.37-6.8,6.38
					C73.04,192.58,83.1,197.84,93.67,190.87z"/>
				<path class="st5" d="M101.87,198.65c0,0-6.02-5.8-7.03-12.11c-1.01-6.3,2.43-8.65,5.62-8.3
					C103.64,178.58,108.31,190.95,101.87,198.65z"/>
				<path class="st5" d="M111.11,206.24c0,0-7.92-6.11-15.28-5.82c-7.37,0.29-8.74,7.88-2.33,9.05
					C99.89,210.64,111.11,206.24,111.11,206.24z"/>
				<path class="st5" d="M119.48,211.79c0,0-5.66-4.59-7.05-12.53c-1.39-7.94,3.75-10.5,6.28-10.09
					C121.25,189.58,126.52,199.71,119.48,211.79z"/>
				<path class="st5" d="M132.33,221.17c0,0-21.44,7.99-24.35,1.57C105.07,216.32,120.14,213.19,132.33,221.17z"/>
				<path class="st5" d="M140.98,226.39c0,0-5.81-5.09-7.25-14.18c-1.45-9.09,2.23-10.84,5.45-8.02
					C142.39,207.01,145.74,218.99,140.98,226.39z"/>
			</g>
			<g>
				<g>
					<g>
						<path class="st6" d="M80.14,177.47c16.53,18.53,35.76,34.64,56.99,47.53c5.97,3.62,12.09,6.98,18.34,10.08
							c0.57,0.28,1.08-0.57,0.5-0.86c-22.18-10.99-42.63-25.36-60.57-42.41c-5.06-4.81-9.91-9.83-14.56-15.05
							C80.42,176.29,79.72,177,80.14,177.47L80.14,177.47z"/>
					</g>
				</g>
				<g>
					<g>
						<path class="st6" d="M80.96,176.97c-2.96-4.06-5.56-8.37-7.77-12.87c-0.28-0.57-1.14-0.07-0.86,0.5
							c2.21,4.51,4.81,8.81,7.77,12.87C80.48,177.98,81.34,177.49,80.96,176.97L80.96,176.97z"/>
					</g>
				</g>
				<g>
					<g>
						<path class="st6" d="M92.8,189.81c-5.19-0.35-10.38-0.7-15.57-1.05c-0.64-0.04-0.64,0.95,0,0.99
							c5.19,0.35,10.38,0.7,15.57,1.05C93.44,190.85,93.44,189.85,92.8,189.81L92.8,189.81z"/>
					</g>
				</g>
				<g>
					<g>
						<path class="st6" d="M102.09,197.89c-1.31-5.02-2.2-10.13-2.65-15.3c-0.05-0.63-1.05-0.64-0.99,0
							c0.45,5.25,1.35,10.46,2.68,15.56C101.29,198.78,102.25,198.52,102.09,197.89L102.09,197.89z"/>
					</g>
				</g>
				<g>
					<g>
						<path class="st6" d="M110.4,205.6c-5.35-0.3-10.71-0.61-16.06-0.91c-0.64-0.04-0.64,0.96,0,0.99
							c5.35,0.3,10.71,0.61,16.06,0.91C111.04,206.63,111.04,205.63,110.4,205.6L110.4,205.6z"/>
					</g>
				</g>
				<g>
					<g>
						<path class="st6" d="M119.91,212.32c-1.53-5.21-2.37-10.58-2.51-16c-0.02-0.64-1.01-0.64-0.99,0c0.14,5.51,1,10.98,2.55,16.27
							C119.13,213.2,120.09,212.94,119.91,212.32L119.91,212.32z"/>
					</g>
				</g>
				<g>
					<g>
						<path class="st6" d="M131.42,220.44c-5.44-0.68-10.94-0.76-16.4-0.26c-0.63,0.06-0.64,1.05,0,0.99
							c5.46-0.51,10.96-0.42,16.4,0.26C132.06,221.51,132.05,220.52,131.42,220.44L131.42,220.44z"/>
					</g>
				</g>
				<g>
					<g>
						<path class="st6" d="M141.41,226.32c-1.57-5.76-2.73-11.62-3.45-17.55c-0.08-0.63-1.07-0.63-0.99,0
							c0.73,6.02,1.89,11.96,3.48,17.81C140.62,227.2,141.58,226.94,141.41,226.32L141.41,226.32z"/>
					</g>
				</g>
			</g>
		</g>
		<g>
			<g>
				<g>
					<path class="st6" d="M62.77,240.68c18.75,15.1,40.66,26.18,63.94,32.33c6.59,1.74,13.27,3.07,20.02,4.01
						c0.63,0.09,0.9-0.87,0.26-0.96c-23.72-3.3-46.67-11.64-66.99-24.33c-5.74-3.58-11.26-7.51-16.53-11.76
						C62.98,239.58,62.27,240.28,62.77,240.68L62.77,240.68z"/>
				</g>
			</g>
			<g>
				<path class="st5" d="M65.59,242.22c0,0-10.49-23.18-16.35-20.57C43.39,224.26,54.67,238.01,65.59,242.22z"/>
				<path class="st5" d="M72.69,247.5c0,0-23.12-11.54-26.29-7.17C43.22,244.71,58.82,250.45,72.69,247.5z"/>
				<path class="st5" d="M80.01,252.31c0,0-5.5-2.04-16.73-1.53c-11.23,0.51-14.51,3.32-13.71,6.53
					C50.38,260.53,71.91,259.36,80.01,252.31z"/>
				<path class="st5" d="M72.69,247.5c0,0,2.14-22.7-2.64-23.89C65.27,222.41,66.69,239.29,72.69,247.5z"/>
				<path class="st5" d="M87.05,256.4c0,0-5.52-3-8.61-9.45c-3.09-6.45-2.94-14.76,0.68-14.94C82.75,231.84,87.05,256.4,87.05,256.4
					z"/>
				<path class="st5" d="M94.15,260.17c0,0-9.64-2.86-16.67-1.05c-7.03,1.81-10.57,4.25-9.45,6.91
					C69.16,268.68,87.33,266.12,94.15,260.17z"/>
				<path class="st5" d="M109.88,267.04c0,0-7.29,3.9-14.85,5.13c-7.55,1.23-9.88,1.17-10.02-0.8
					C84.87,269.39,90.55,263.11,109.88,267.04z"/>
				<path class="st5" d="M104.59,264.83c0,0-9.14-4.83-13.29-13.62c-4.15-8.79-4.17-12.64-2.1-13.55c2.07-0.9,7.22,7.6,9.07,13.75
					C100.12,257.57,104.59,264.83,104.59,264.83z"/>
				<path class="st5" d="M122.16,271.22c0,0-12.27-1.82-20.36,3.72C93.71,280.48,106.61,286.06,122.16,271.22z"/>
				<g>
					<path class="st5" d="M104.99,250.78c-2.4,8.64,16.58,18.96,20.95,21.2C122.69,266.62,107.41,242.06,104.99,250.78z"/>
				</g>
			</g>
		</g>
		<g>
			<path class="st7" d="M277.68,224.49c0,0-1.22,15.23,8.13,18.26c9.35,3.03,18.51,1.75,23.19-0.44c0,0-20.2-22.7-12.13-29.62
				c8.07-6.92,11.3,25.64,25.74,26.87c14.44,1.23,25.56-29.87,25.6-34.89c0,0-40.73,0.47-40.43-12.17
				c0.3-12.65,21.21,15.02,51.43-6.02c0,0,2.38-14.52,0.93-20.79c0,0-39.42,21.54-46.82,11.49c-7.41-10.05,29.33-2.56,45.32-24.03
				c0,0-1.11-12.08-3.2-17.9c0,0-27.43,31.63-33.91,21.7c-6.48-9.93,21.32-10.4,32-27.67c0,0-1.61-23.89-16.09-43.21
				c0,0-20.54,3.51-33.48,9.93c0,0-6.11,13.6-3.44,22.88c2.67,9.27,9.43,22.81,3.63,24.51c-5.8,1.7-12.98-30.69-9.74-43.31
				c0,0-14.73,1.89-25.04,10.53c0,0-1.77,24.31,7.62,39.55c9.38,15.24,9.28,19.9,5.76,21.35c-3.52,1.44-21.66-21.56-21.56-58.85
				c0,0-12.47,13.66-18.5,22.98c0,0,3.99,25.59,15.7,36.65c11.7,11.05,18.07,14.62,16.67,18.93c-1.39,4.31-18.2-3.38-24.92-14.33
				c-6.73-10.95-10.7-25.01-10.51-29.46c0,0-14.43,21.9-6.37,37.31c8.06,15.41,22.82,16.99,28.45,17.83
				c5.64,0.84,6.11,3.95,0.79,5.92c-5.32,1.97-17.99,0.82-25.24-6.45C237.27,202.03,246.25,239.94,277.68,224.49z"/>
			<g>
				<g>
					<g>
						<path class="st8" d="M336.47,86.66c-7.83,22.11-16.21,44.03-25.29,65.67c-9.1,21.69-18.9,43.1-29.52,64.1
							c-5.93,11.72-12.11,23.31-18.55,34.75c-0.51,0.91,0.88,1.72,1.39,0.81c11.59-20.56,22.31-41.61,32.25-63.02
							c9.84-21.19,18.93-42.72,27.4-64.49c4.82-12.39,9.43-24.86,13.87-37.4C338.37,86.1,336.81,85.68,336.47,86.66L336.47,86.66z"
							/>
					</g>
				</g>
				<g>
					<g>
						<path class="st8" d="M304.15,169.67c-11.85-13.78-19.74-30.69-22.7-48.62c-0.84-5.11-1.27-10.28-1.32-15.45
							c-0.01-1.04-1.62-1.04-1.61,0c0.18,18.51,5.39,36.83,15.17,52.56c2.77,4.46,5.9,8.68,9.32,12.66
							C303.69,171.6,304.83,170.46,304.15,169.67L304.15,169.67z"/>
					</g>
				</g>
				<g>
					<g>
						<path class="st8" d="M295.22,188.8c-20.11-5.92-32.11-24.88-39.5-43.26c-2.33-5.8-4.36-11.71-6.39-17.62
							c-0.33-0.98-1.89-0.56-1.56,0.43c6.89,20.11,14.54,41.59,32.36,54.68c4.43,3.25,9.37,5.78,14.65,7.33
							C295.79,190.65,296.21,189.09,295.22,188.8L295.22,188.8z"/>
					</g>
				</g>
				<g>
					<g>
						<path class="st8" d="M348.16,107.66c-6.49,7.32-14.87,12.78-24.21,15.72c-0.99,0.31-0.57,1.87,0.43,1.56
							c9.59-3.02,18.25-8.61,24.92-16.14C349.99,108.03,348.85,106.88,348.16,107.66L348.16,107.66z"/>
					</g>
				</g>
				<g>
					<g>
						<path class="st8" d="M316.12,91.81c0.28,10.56,2.4,21,6.28,30.82c0.38,0.95,1.94,0.54,1.56-0.43
							c-3.83-9.69-5.95-19.97-6.22-30.39C317.71,90.77,316.09,90.76,316.12,91.81L316.12,91.81z"/>
					</g>
				</g>
				<g>
					<g>
						<path class="st8" d="M356.61,144.25c-14.1,11.04-30.58,23.55-49.65,20.79c-1.02-0.15-1.45,1.41-0.43,1.56
							c15.09,2.18,29.21-4.93,41.11-13.5c3.44-2.48,6.77-5.09,10.1-7.7C358.57,144.76,357.42,143.62,356.61,144.25L356.61,144.25z"
							/>
					</g>
				</g>
				<g>
					<g>
						<path class="st8" d="M359.57,176.84c-13.56,8.42-30.31,11.25-45.93,8.03c-4.46-0.92-8.8-2.32-12.94-4.21
							c-0.94-0.43-1.76,0.96-0.81,1.39c14.99,6.83,32.47,7.52,48.02,2.12c4.37-1.52,8.56-3.51,12.49-5.95
							C361.27,177.68,360.46,176.29,359.57,176.84L359.57,176.84z"/>
					</g>
				</g>
				<g>
					<g>
						<path class="st8" d="M338.3,225.77c-8.74-3.31-17.02-7.79-24.58-13.3c-3.75-2.73-7.18-5.8-10.65-8.86
							c-3.13-2.76-6.48-5.34-10.57-6.46c-1-0.28-1.43,1.28-0.43,1.56c4.36,1.2,7.79,4.18,11.08,7.14c3.35,3.02,6.79,5.9,10.46,8.53
							c7.48,5.36,15.65,9.69,24.26,12.95C338.84,227.7,339.26,226.14,338.3,225.77L338.3,225.77z"/>
					</g>
				</g>
				<g>
					<g>
						<path class="st8" d="M294.6,243.66c-6.36-8-10.25-17.83-11.1-28.01c-0.09-1.03-1.7-1.04-1.61,0
							c0.89,10.65,4.92,20.79,11.58,29.15C294.11,245.61,295.24,244.46,294.6,243.66L294.6,243.66z"/>
					</g>
				</g>
				<g>
					<g>
						<path class="st8" d="M230.16,168.38c7.16,17.25,24.47,26.61,41.42,31.98c5.56,1.76,11.21,3.21,16.86,4.65
							c1.01,0.26,1.44-1.3,0.43-1.56c-17.73-4.53-36.7-9.51-49.47-23.56c-3.2-3.52-5.85-7.54-7.68-11.94
							C231.33,167.01,229.76,167.42,230.16,168.38L230.16,168.38z"/>
					</g>
				</g>
				<g>
					<g>
						<path class="st8" d="M282.18,214.51c-11.98,5.07-25.62,5.6-37.98,1.57c-0.99-0.32-1.41,1.24-0.43,1.56
							c12.8,4.17,26.84,3.51,39.22-1.73C283.94,215.5,283.12,214.1,282.18,214.51L282.18,214.51z"/>
					</g>
				</g>
			</g>
		</g>
		<g>
			<path class="st3" d="M217.02,285.94c0,0,12.61,10.93,21.33,4.67c8.72-6.27,13.52-15.15,14.62-20.69c0,0-33.05,3.09-33.92-8.5
				c-0.87-11.58,29.88,6.65,40.31-5.25c10.43-11.91-9.74-41.83-14.13-45.11c0,0-25.95,36.15-36.88,27.69
				c-10.93-8.45,26.95-8.94,27.99-49.15c0,0-11.24-11.5-17.69-14.28c0,0-6.56,48.63-20.19,48.64c-13.63,0.02,16.74-27.46,8.19-55.43
				c0,0-11.35-6.85-17.82-8.77c0,0,10.07,44.61-2.86,43.88c-12.93-0.73,4.65-25.49-3.64-46.06c0,0-22.07-14.04-48.44-13.81
				c0,0-10.21,20.35-12.93,35.88c0,0,8.02,14.18,17.91,17.83c9.89,3.65,26.18,6.47,23.92,12.67c-2.27,6.2-35.41-8.44-44.41-19.46
				c0,0-7.87,14.19-6.94,28.84c0,0,20.25,17.29,39.73,18.9s23.52,4.71,22.52,8.74c-1.01,4.03-32.99,5.1-65.74-19.12
				c0,0,3.95,19.82,8.25,31.15c0,0,25.1,13.05,42.41,9.91c17.3-3.14,24.56-6.44,27.44-2.42c2.89,4.02-14.75,13.82-28.74,12.66
				c-13.99-1.16-28.93-6.77-32.72-9.82c0,0,9.93,26.87,28.7,29.75s29.72-9.08,34.1-13.5c4.39-4.42,7.43-2.82,5.72,3.13
				c-1.71,5.95-10.92,16.37-22.01,18.04C171.1,306.96,210.28,323.6,217.02,285.94z"/>
			<g>
				<g>
					<g>
						<path class="st4" d="M133.72,144.9c14.41,21.23,28.29,42.82,41.46,64.83c13.17,21.99,25.63,44.41,37.22,67.28
							c6.53,12.9,12.78,25.94,18.72,39.12c0.47,1.03,1.99,0.14,1.52-0.89c-10.54-23.38-22.05-46.31-34.37-68.8
							c-12.32-22.49-25.45-44.53-39.2-66.18c-7.75-12.21-15.71-24.29-23.83-36.26C134.61,143.07,133.08,143.96,133.72,144.9
							L133.72,144.9z"/>
					</g>
				</g>
				<g>
					<g>
						<path class="st4" d="M186.05,227.16c-19.89,1.52-39.99-2.47-57.76-11.56c-5.01-2.57-9.82-5.52-14.38-8.82
							c-0.92-0.66-1.8,0.86-0.89,1.52c16.31,11.76,35.69,18.97,55.74,20.6c5.75,0.47,11.53,0.46,17.29,0.02
							C187.18,228.83,187.19,227.07,186.05,227.16L186.05,227.16z"/>
					</g>
				</g>
				<g>
					<g>
						<path class="st4" d="M197.06,247.34c-18.29,13.93-42.72,12.22-63.77,6.81c-6.63-1.7-13.16-3.75-19.69-5.8
							c-1.09-0.34-1.55,1.36-0.47,1.7c22.08,6.93,45.95,14.12,68.92,6.91c5.71-1.79,11.13-4.47,15.9-8.1
							C198.85,248.18,197.97,246.65,197.06,247.34L197.06,247.34z"/>
					</g>
				</g>
				<g>
					<g>
						<path class="st4" d="M159.86,148.41c2.24,10.45,1.57,21.35-1.88,31.46c-0.37,1.08,1.34,1.54,1.7,0.47
							c3.55-10.41,4.18-21.64,1.88-32.39C161.32,146.83,159.62,147.3,159.86,148.41L159.86,148.41z"/>
					</g>
				</g>
				<g>
					<g>
						<path class="st4" d="M125.22,166.29c9.46,6.58,20.04,11.46,31.19,14.4c1.1,0.29,1.57-1.41,0.47-1.7
							c-11.01-2.9-21.42-7.71-30.77-14.22C125.18,164.12,124.3,165.65,125.22,166.29L125.22,166.29z"/>
					</g>
				</g>
				<g>
					<g>
						<path class="st4" d="M197.5,164.42c0.48,15.92,0.94,32.8-6.66,47.32c-1.93,3.68-4.33,7.07-7.25,10.02
							c-0.8,0.81,0.45,2.06,1.25,1.25c11.3-11.44,14.34-27.96,14.63-43.45c0.1-5.05-0.05-10.09-0.21-15.14
							C199.22,163.29,197.46,163.29,197.5,164.42L197.5,164.42z"/>
					</g>
				</g>
				<g>
					<g>
						<path class="st4" d="M228.09,183.13c-1.37,17.43-9.84,34-22.81,45.66c-3.67,3.3-7.71,6.17-12.02,8.57
							c-0.99,0.55-0.1,2.08,0.89,1.52c15.66-8.73,27.53-23.71,32.85-40.8c1.51-4.86,2.46-9.88,2.86-14.95
							C229.94,182,228.18,182.01,228.09,183.13L228.09,183.13z"/>
					</g>
				</g>
				<g>
					<g>
						<path class="st4" d="M257.49,233.36c-6.77,4.39-13.99,8.08-21.54,10.94c-3.74,1.42-7.55,2.64-11.42,3.66
							c-3.68,0.97-7.43,1.63-11.13,2.51c-3.93,0.93-7.72,2.28-10.92,4.81c-0.89,0.7,0.37,1.94,1.25,1.25
							c5.85-4.63,14.09-4.98,21.06-6.8c7.52-1.97,14.85-4.71,21.82-8.14c4.05-2,7.98-4.24,11.77-6.69
							C259.33,234.27,258.45,232.74,257.49,233.36L257.49,233.36z"/>
					</g>
				</g>
				<g>
					<g>
						<path class="st4" d="M244.97,283.45c-11.26,0.43-22.45-2.5-32.05-8.4c-0.97-0.6-1.86,0.93-0.89,1.52
							c9.85,6.05,21.38,9.08,32.94,8.64C246.1,285.17,246.11,283.41,244.97,283.45L244.97,283.45z"/>
					</g>
				</g>
				<g>
					<g>
						<path class="st4" d="M136.97,291.47c20.44,5.02,40.39-4.97,56.37-16.89c4.63-3.45,9.1-7.11,13.57-10.78
							c0.88-0.72-0.38-1.96-1.25-1.25c-15.19,12.45-31.57,25.72-51.78,28.12c-5.5,0.65-11.07,0.42-16.45-0.9
							C136.34,289.5,135.87,291.2,136.97,291.47L136.97,291.47z"/>
					</g>
				</g>
				<g>
					<g>
						<path class="st4" d="M211.17,275.38c-3.27,13.81-11.57,26.24-23.12,34.51c-0.92,0.65-0.04,2.18,0.89,1.52
							c11.93-8.53,20.55-21.28,23.93-35.56C213.13,274.75,211.43,274.28,211.17,275.38L211.17,275.38z"/>
					</g>
				</g>
			</g>
		</g>
		<g>
			<path class="st7" d="M212.3,355.52c0,0-19.95,3.04-43.99,7.64c-24.04,4.6-54.58-10.58-68.73-22.47
				c-14.15-11.89-23.65-31.75-26.84-44.35c-3.19-12.59-6.25-26.15-16.63-36.59c0,0,44.92-14.59,77.69-8.19s49.97,19.74,66.05,41.5
				C215.93,314.82,212.3,355.52,212.3,355.52z"/>
			<g>
				<g>
					<g>
						<path class="st8" d="M56.87,261.64c24.91,8.42,49,19.23,71.87,32.21c22.87,12.98,44.52,28.1,64.56,45.14
							c11.27,9.58,22.02,19.77,32.2,30.5c0.81,0.85,2.09-0.44,1.28-1.28c-18.21-19.19-38.25-36.62-59.75-52.03
							c-21.44-15.36-44.32-28.7-68.26-39.77c-13.5-6.24-27.33-11.76-41.41-16.52C56.25,259.52,55.77,261.27,56.87,261.64
							L56.87,261.64z"/>
					</g>
				</g>
				<g>
					<g>
						<path class="st8" d="M73.02,297.06c17.14-6.09,35.78-7.48,53.63-3.94c1.14,0.23,1.63-1.52,0.48-1.75
							c-18.16-3.6-37.14-2.26-54.6,3.94C71.44,295.7,71.91,297.45,73.02,297.06L73.02,297.06z"/>
					</g>
				</g>
				<g>
					<g>
						<path class="st8" d="M75.74,304.95c16.32-4.9,33.48-6.79,50.48-5.55c4.88,0.36,9.74,0.98,14.56,1.85
							c1.14,0.21,1.63-1.54,0.48-1.75c-17.01-3.08-34.51-3.03-51.51,0.16c-4.89,0.92-9.73,2.11-14.49,3.54
							C74.14,303.53,74.62,305.28,75.74,304.95L75.74,304.95z"/>
					</g>
				</g>
				<g>
					<g>
						<path class="st8" d="M108.69,281.03c-8.14-7.42-13.37-17.77-14.41-28.75c-0.11-1.15-1.93-1.16-1.81,0
							c1.09,11.46,6.43,22.27,14.94,30.03C108.26,283.1,109.55,281.82,108.69,281.03L108.69,281.03z"/>
					</g>
				</g>
				<g>
					<g>
						<path class="st8" d="M117.25,285.29c-8.29-9.44-13.09-21.67-13.47-34.23c-0.03-1.16-1.85-1.17-1.81,0
							c0.39,13.05,5.39,25.7,14,35.51C116.74,287.45,118.02,286.16,117.25,285.29L117.25,285.29z"/>
					</g>
				</g>
				<g>
					<g>
						<path class="st8" d="M165.35,314.91c-20.3-3.27-41.3-1.65-60.84,4.74c-5.5,1.8-10.87,3.98-16.07,6.49
							c-1.05,0.51-0.13,2.07,0.92,1.57c18.15-8.77,38.36-13.1,58.51-12.62c5.7,0.14,11.38,0.66,17.01,1.57
							C166.01,316.85,166.5,315.1,165.35,314.91L165.35,314.91z"/>
					</g>
				</g>
				<g>
					<g>
						<path class="st8" d="M193.13,337.11c-19.6-5.84-41.07-3.29-58.71,7.08c-4.63,2.72-8.94,5.95-12.88,9.59
							c-0.86,0.79,0.43,2.08,1.28,1.28c14.22-13.16,33.4-20.15,52.76-19.16c5.79,0.3,11.51,1.3,17.06,2.96
							C193.77,339.19,194.25,337.44,193.13,337.11L193.13,337.11z"/>
					</g>
				</g>
				<g>
					<g>
						<path class="st8" d="M203.81,346.47c-17.74-4.68-36.91-2.9-53.6,4.65c-4.74,2.15-9.25,4.78-13.47,7.83
							c-0.94,0.68-0.03,2.25,0.92,1.57c14.58-10.58,32.76-15.76,50.73-14.7c5.05,0.3,10.05,1.11,14.94,2.4
							C204.46,348.51,204.94,346.76,203.81,346.47L203.81,346.47z"/>
					</g>
				</g>
				<g>
					<g>
						<path class="st8" d="M204.65,346.58c-7.42-13.77-2.87-29.79,1.3-43.79c0.33-1.12-1.42-1.6-1.75-0.48
							c-4.33,14.52-8.8,30.94-1.12,45.19C203.63,348.52,205.2,347.61,204.65,346.58L204.65,346.58z"/>
					</g>
				</g>
				<g>
					<g>
						<path class="st8" d="M162.77,261.24c-5.1,16.5-1.71,34.07,5.09,49.54c1.96,4.46,4.22,8.79,6.63,13.02
							c0.58,1.01,2.15,0.1,1.57-0.92c-8.18-14.35-14.55-30.31-13.91-47.1c0.18-4.78,0.96-9.5,2.37-14.06
							C164.86,260.6,163.11,260.12,162.77,261.24L162.77,261.24z"/>
					</g>
				</g>
				<g>
					<g>
						<path class="st8" d="M150.38,255.85c-2.4,15.58-0.72,31.71,4.91,46.45c1.57,4.12,3.45,8.12,5.6,11.96
							c0.57,1.02,2.14,0.11,1.57-0.92c-7.47-13.35-11.4-28.59-11.35-43.89c0.01-4.39,0.35-8.78,1.02-13.12
							C152.3,255.19,150.55,254.7,150.38,255.85L150.38,255.85z"/>
					</g>
				</g>
			</g>
		</g>
		<g>
			<path class="st7" d="M277.47,359.87c0,0,3.9-22.66,7.59-50.28s31.09-55.16,49.04-66.16c17.95-11,42.83-14.12,57.58-13.02
				c14.76,1.09,30.5,2.67,45.52-4.79c0,0-0.42,53.79-19.14,86.88c-18.71,33.09-39.33,46.87-68.63,56.41
				C320.13,378.45,277.47,359.87,277.47,359.87z"/>
			<g>
				<g>
					<g>
						<path class="st8" d="M434.85,225.81c-9.05,11.97-18.69,23.49-28.85,34.53c-10.13,11.01-20.77,21.53-31.89,31.54
							c-11.15,10.04-22.78,19.55-34.83,28.49c-12.01,8.91-24.44,17.26-37.24,25c-12.8,7.74-25.96,14.88-39.43,21.36
							c-1.68,0.81-3.36,1.6-5.04,2.39c-1.2,0.56-0.16,2.34,1.04,1.78c13.68-6.39,27.04-13.43,40.04-21.1
							c12.94-7.64,25.52-15.89,37.68-24.71c12.18-8.84,23.94-18.24,35.24-28.18c11.28-9.92,22.09-20.38,32.39-31.33
							c10.34-10.99,20.15-22.48,29.39-34.42c1.11-1.43,2.21-2.87,3.3-4.32C437.44,225.79,435.64,224.76,434.85,225.81L434.85,225.81
							z"/>
					</g>
				</g>
				<g>
					<g>
						<path class="st8" d="M390.8,230.49c0.32,16.04-2.74,32.08-8.93,46.88c-1.79,4.28-3.87,8.45-6.16,12.48
							c-0.66,1.16,1.13,2.2,1.78,1.04c8.12-14.25,13.18-30.14,14.83-46.45c0.47-4.64,0.65-9.29,0.56-13.95
							C392.84,229.16,390.77,229.16,390.8,230.49L390.8,230.49z"/>
					</g>
				</g>
				<g>
					<g>
						<path class="st8" d="M381.3,230.59c-0.58,19.44-4.76,38.74-12.27,56.68c-2.13,5.1-4.55,10.07-7.2,14.92
							c-0.64,1.17,1.14,2.21,1.78,1.04c9.49-17.33,15.75-36.37,18.39-55.95c0.74-5.54,1.2-11.11,1.37-16.69
							C383.41,229.26,381.34,229.26,381.3,230.59L381.3,230.59z"/>
					</g>
				</g>
				<g>
					<g>
						<path class="st8" d="M395.33,274.72c10.95-6.12,24.02-7.99,36.24-5.17c1.29,0.3,1.85-1.69,0.55-1.99
							c-12.77-2.95-26.4-1.02-37.84,5.37C393.13,273.58,394.17,275.37,395.33,274.72L395.33,274.72z"/>
					</g>
				</g>
				<g>
					<g>
						<path class="st8" d="M387.4,282.54c13.28-5.6,28.26-6.43,42.07-2.28c1.28,0.38,1.82-1.61,0.55-1.99
							c-14.12-4.25-29.58-3.45-43.17,2.28C385.64,281.06,386.17,283.06,387.4,282.54L387.4,282.54z"/>
					</g>
				</g>
				<g>
					<g>
						<path class="st8" d="M338.29,323.71c10.8-20.64,16.56-43.8,16.76-67.08c0.06-6.62-0.35-13.23-1.2-19.8
							c-0.17-1.3-2.24-1.32-2.07,0c2.95,22.83,0.39,46.26-7.4,67.93c-2.21,6.15-4.85,12.12-7.87,17.91
							C335.89,323.84,337.67,324.89,338.29,323.71L338.29,323.71z"/>
					</g>
				</g>
				<g>
					<g>
						<path class="st8" d="M304.3,345.73c13.12-18.7,18.13-42.29,13.72-64.7c-1.27-6.44-3.3-12.69-6.01-18.66
							c-0.55-1.21-2.33-0.16-1.78,1.04c9.3,20.55,9.69,44.39,1.11,65.24c-2.33,5.65-5.31,11.03-8.82,16.03
							C301.75,345.77,303.54,346.81,304.3,345.73L304.3,345.73z"/>
					</g>
				</g>
				<g>
					<g>
						<path class="st8" d="M290.34,353.89c11.45-17.47,16.47-38.95,14.23-59.7c-0.63-5.86-1.83-11.65-3.61-17.27
							c-0.4-1.26-2.39-0.72-1.99,0.55c6.17,19.54,5.19,41.03-2.4,60.04c-2.14,5.37-4.85,10.51-8.01,15.34
							C287.83,353.97,289.61,355,290.34,353.89L290.34,353.89z"/>
					</g>
				</g>
				<g>
					<g>
						<path class="st8" d="M289.94,354.8c17.53-3.07,33.24,7.7,46.84,17.23c1.09,0.77,2.12-1.03,1.04-1.78
							c-14.15-9.92-30.24-20.62-48.43-17.44C288.09,353.03,288.64,355.03,289.94,354.8L289.94,354.8z"/>
					</g>
				</g>
				<g>
					<g>
						<path class="st8" d="M397.12,340.27c-15.69-11.26-35.64-14.05-54.49-12.39c-5.82,0.52-11.61,1.42-17.34,2.56
							c-1.3,0.26-0.75,2.25,0.55,1.99c18.82-3.74,38.81-4.8,56.97,2.38c4.7,1.86,9.16,4.29,13.26,7.23
							C397.16,342.83,398.19,341.04,397.12,340.27L397.12,340.27z"/>
					</g>
				</g>
				<g>
					<g>
						<path class="st8" d="M407.4,328.83c-15.95-8.21-33.99-12.16-51.91-11.39c-5.03,0.22-10.04,0.81-14.99,1.76
							c-1.3,0.25-0.75,2.24,0.55,1.99c17.12-3.27,35.01-1.98,51.52,3.58c4.74,1.6,9.34,3.56,13.79,5.84
							C407.54,331.22,408.59,329.44,407.4,328.83L407.4,328.83z"/>
					</g>
				</g>
			</g>
		</g>
		<g>
			<path class="st9" d="M210.73,365.9c0,0,20.15-3.01,44.69-5.74c24.55-2.73,49.48-26.46,59.58-42.14
				c10.1-15.68,13.35-37.66,12.67-50.76c-0.68-13.09-1.77-27.07,5.14-40.23c0,0-47.66-0.68-77.35,15.25s-42.3,33.92-51.33,59.69
				C195.11,327.75,210.73,365.9,210.73,365.9z"/>
			<g>
				<g>
					<g>
						<path class="st10" d="M331.76,227.67c-21.59,15.6-41.69,33.25-59.95,52.65c-18.26,19.39-34.7,40.51-49,62.98
							c-8.06,12.66-15.43,25.75-22.09,39.21c-0.42,0.86,0.86,1.61,1.29,0.75c11.78-23.82,25.84-46.51,41.91-67.68
							c16.02-21.12,34.05-40.72,53.75-58.46c11.1-10,22.74-19.41,34.86-28.16C333.29,228.4,332.54,227.11,331.76,227.67
							L331.76,227.67z"/>
					</g>
				</g>
				<g>
					<g>
						<path class="st10" d="M327.59,266.39c-18.63-0.77-37.32,3.56-53.73,12.43c-0.84,0.46-0.09,1.74,0.75,1.29
							c16.18-8.75,34.6-12.99,52.97-12.22C328.55,267.92,328.55,266.42,327.59,266.39L327.59,266.39z"/>
					</g>
				</g>
				<g>
					<g>
						<path class="st10" d="M327.32,274.8c-17.54,0.14-35.03,3.52-51.34,9.98c-4.54,1.8-8.98,3.83-13.32,6.08
							c-0.85,0.44-0.1,1.73,0.75,1.29c15.32-7.95,32.1-13.07,49.25-14.99c4.86-0.54,9.75-0.83,14.65-0.87
							C328.27,276.28,328.28,274.79,327.32,274.8L327.32,274.8z"/>
					</g>
				</g>
				<g>
					<g>
						<path class="st10" d="M289.9,264.02c5.87-9.98,7.82-21.95,5.47-33.29c-0.19-0.94-1.63-0.54-1.44,0.4
							c2.27,10.94,0.34,22.51-5.32,32.14C288.13,264.09,289.42,264.84,289.9,264.02L289.9,264.02z"/>
					</g>
				</g>
				<g>
					<g>
						<path class="st10" d="M282.91,270.68c5.36-11.99,6.43-25.62,2.93-38.29c-0.26-0.92-1.69-0.53-1.44,0.4
							c3.39,12.25,2.42,25.52-2.78,37.14C281.24,270.79,282.52,271.55,282.91,270.68L282.91,270.68z"/>
					</g>
				</g>
				<g>
					<g>
						<path class="st10" d="M244.78,314.18c18.25-9.03,38.62-13.6,58.99-13.31c5.77,0.08,11.54,0.56,17.25,1.43
							c0.94,0.14,1.34-1.29,0.4-1.44c-20.47-3.11-41.61-1.27-61.24,5.34c-5.53,1.86-10.92,4.11-16.15,6.69
							C243.17,313.32,243.92,314.6,244.78,314.18L244.78,314.18z"/>
					</g>
				</g>
				<g>
					<g>
						<path class="st10" d="M224.6,343.85c16.46-11.01,36.97-14.98,56.34-10.72c5.52,1.21,10.89,3.07,15.99,5.51
							c0.86,0.41,1.62-0.87,0.75-1.29c-18.4-8.81-39.92-9.8-58.99-2.47c-5.22,2-10.19,4.58-14.84,7.69
							C223.06,343.1,223.8,344.39,224.6,343.85L224.6,343.85z"/>
					</g>
				</g>
				<g>
					<g>
						<path class="st10" d="M217.09,356.06c15.42-9.62,34.1-13.55,52.1-11.24c5.11,0.65,10.14,1.84,15.01,3.5
							c0.91,0.31,1.3-1.13,0.4-1.44c-17.5-5.95-36.99-5.51-54.27,0.99c-4.88,1.84-9.57,4.14-13.99,6.9
							C215.53,355.28,216.28,356.57,217.09,356.06L217.09,356.06z"/>
					</g>
				</g>
				<g>
					<g>
						<path class="st10" d="M217.06,355.41c3.15-15.99-6.02-30.42-14.5-43.11c-0.53-0.79-1.82-0.05-1.29,0.75
							c8.22,12.3,17.41,26.43,14.35,41.96C215.44,355.95,216.88,356.35,217.06,355.41L217.06,355.41z"/>
					</g>
				</g>
				<g>
					<g>
						<path class="st10" d="M228.99,261.11c9.49,13.88,11.5,31.18,9.7,47.56c-0.55,5.04-1.46,10.03-2.56,14.98
							c-0.21,0.93,1.23,1.33,1.44,0.4c3.75-16.91,5.13-34.99-1.03-51.53c-1.6-4.29-3.68-8.38-6.26-12.16
							C229.74,259.57,228.45,260.31,228.99,261.11L228.99,261.11z"/>
					</g>
				</g>
				<g>
					<g>
						<path class="st10" d="M239.34,252.23c6.78,13.95,9.84,29.61,8.88,45.09c-0.27,4.4-0.88,8.77-1.8,13.08
							c-0.2,0.94,1.24,1.34,1.44,0.4c3.31-15.5,2.53-31.79-2.25-46.9c-1.35-4.26-3.02-8.41-4.97-12.42
							C240.2,250.61,238.92,251.37,239.34,252.23L239.34,252.23z"/>
					</g>
				</g>
			</g>
		</g>
		<g>
			<path class="st11" d="M305.08,323.98c0.13,8.74-17.98,11.89-25.91-1.26c0,0-5.85,12.24,2.72,17.61
				c8.57,5.37,17.86-5.94,21.78-2.67c3.92,3.27-4.6,14.7-19.09,11.88c0,0,5.72,16.03,25.83,2.17c0,0-0.95,17.38,8.7,24.09
				c9.65,6.71,14.98,1.49,14.98,1.49s-16.57-18.05-10.32-23.68c6.25-5.64,8.87,20.99,14.25,24.29c5.39,3.29,18.42,2.02,26.31-5.09
				c0,0-23.2-10.32-21.17-19.01c2.02-8.69,16.6,11.35,27.41,11.35c10.8,0,15.56-18.23,15.56-18.23s-24.6,3.46-24.99-5.52
				c-0.39-8.98,13.46,3.52,24.04-1.32c10.59-4.84,8.31-18.84,8.31-18.84s-42.65,8.12-42.25-5.58c0.41-13.7,32.68,5.54,41.86-4.74
				c0,0,2.27-6.8-3.16-16.75c0,0-8.77,0.5-15.64,4.68c-6.87,4.18-16.23,5.05-16.46,1.02c-0.23-4.03,4.66-4.14,12.18-4.59
				c7.52-0.45,22.97-6.75,7.71-26.01c0,0-8.56-1.45-17.2-4.97c-8.64-3.52-13.49,2.62-13.81,8.86c-0.32,6.23-1.35,10.28-5.02,8.52
				c-3.67-1.75-6.08-10.44-0.46-17.6c0,0-8.89-4.56-13.31,2.79c-4.41,7.35,4.05,15.9-3.37,19.22c-7.42,3.32-10.3-14.03-8.77-16.59
				c0,0-12.28,2.86-14.33,11.64c-2.04,8.77,10.58,16.36,10.31,21.47c-0.27,5.1-5.43,9.17-13.41,1.02c-7.98-8.15-9.16-13.5-9.16-13.5
				s-11.1,9.12-7.65,19.28C284.99,319.55,304.94,315.25,305.08,323.98z M346.96,326.34c0,0,7.98,0.96,7.57,5.54
				c-0.41,4.58-8.77,5.08-13.54,1.07C336.23,328.94,339.61,325.05,346.96,326.34z M330.17,331.74c0,0,4.24,1.19,3.33,3.77
				c-0.91,2.58-5.25,1.26-6.84,0.03C325.06,334.31,325.73,330.45,330.17,331.74z M324.92,297.41c-0.39-2.06,0.42-4.64,2.27-5.24
				c1.86-0.6,4.43,1.24,5.42,4.74c0.99,3.51-1.43,6.81-4.38,5.92C325.28,301.94,324.92,297.41,324.92,297.41z M313.44,307.9
				c1.35-0.77,4.04,0.97,5.02,1.77c0,0,3.53,1.96,1.79,4.65c-1.74,2.69-6.17-0.09-7.2-1.79
				C312.01,310.82,312.09,308.67,313.44,307.9z"/>
			<g>
				<g>
					<path class="st12" d="M377.57,268.81c-13.59,5.3-24.31,15.63-34.08,26.14c-9.82,10.57-18.9,22.07-25.47,34.98
						c-3.65,7.18-6.48,14.77-8.15,22.66c-0.2,0.94,1.24,1.34,1.44,0.4c2.94-13.86,9.47-26.6,17.64-38.08
						c4.14-5.81,8.69-11.31,13.47-16.59c4.74-5.23,9.66-10.35,14.98-15c6.14-5.37,12.93-10.08,20.57-13.06
						C378.85,269.91,378.46,268.46,377.57,268.81L377.57,268.81z"/>
				</g>
			</g>
		</g>
	</g>
	<g>
		<polygon class="st13" points="25.08,408.04 262.07,408.04 262.07,354.55 100.82,354.55 		"/>
		<polygon class="st13" points="474.92,408.04 237.93,408.04 237.93,354.55 399.18,354.55 		"/>
	</g>
	<g>
		<path class="st14" d="M240.71,108.78c0,0,3.76,40.85-5.65,64.33l-8.77-9.8l3.88-40.52l10.1-13.72L240.71,108.78z"/>
		<g>
			<g>
				<path class="st11" d="M185.04,117.09c0,0-19.11-14.02-57.81-4.4c-38.69,9.62-51.17,18.42-54.77,21.24
					c-3.6,2.83-12.03,8.96-13.09,8.25c-1.06-0.71,2.45-4.98,5.94-7.7c0,0-13.43,7.28-14.96,7.05c-1.53-0.24-2.6-3.6-0.71-7.26
					s19.79-16.52,58.48-32s76.91-12.71,106.59,4.92L185.04,117.09z"/>
				<g>
					<g>
						<path class="st12" d="M65.66,134.73c-0.48-1.28-0.03-2.7,0.82-3.71c0.92-1.1,2.21-1.81,3.47-2.46
							c0.41-0.21,0.05-0.83-0.36-0.62c-1.4,0.72-2.83,1.53-3.8,2.8c-0.89,1.17-1.35,2.76-0.82,4.18
							C65.12,135.35,65.82,135.16,65.66,134.73L65.66,134.73z"/>
					</g>
				</g>
				<g>
					<g>
						<path class="st12" d="M58.47,136.97c-1.43-1.92-2.62-4.01-3.52-6.23c-0.17-0.42-0.87-0.24-0.69,0.19
							c0.93,2.28,2.12,4.43,3.59,6.4C58.12,137.7,58.75,137.34,58.47,136.97L58.47,136.97z"/>
					</g>
				</g>
				<g>
					<g>
						<path class="st12" d="M49.65,141.38c2.51-1.84,5.02-3.67,7.53-5.51c0.37-0.27,0.01-0.89-0.36-0.62
							c-2.51,1.84-5.02,3.67-7.53,5.51C48.92,141.03,49.28,141.65,49.65,141.38L49.65,141.38z"/>
					</g>
				</g>
				<g>
					<g>
						<path class="st12" d="M49.08,139.78c2.08-2.19,4.49-4,6.85-5.87c0.36-0.29-0.15-0.79-0.51-0.51
							c-2.36,1.86-4.77,3.68-6.85,5.87C48.25,139.61,48.76,140.12,49.08,139.78L49.08,139.78z"/>
					</g>
				</g>
				<g>
					<g>
						<path class="st12" d="M48.88,137.07c1.99-1.85,4.11-3.57,6.33-5.14c0.38-0.26,0.02-0.89-0.36-0.62
							c-2.28,1.6-4.44,3.35-6.48,5.25C48.03,136.88,48.54,137.38,48.88,137.07L48.88,137.07z"/>
					</g>
				</g>
			</g>
			<g>
				<path class="st11" d="M184.37,155.37c0,0-19.12,14.02-57.81,4.4c-38.69-9.62-51.17-18.42-54.77-21.24
					c-3.6-2.83-12.03-8.96-13.09-8.25c-1.06,0.71,2.45,4.98,5.94,7.7c0,0-13.43-7.28-14.96-7.05c-1.53,0.24-2.6,3.6-0.71,7.26
					c1.89,3.66,19.79,16.52,58.48,32c38.69,15.48,77.16,10.47,103.1-1.37L184.37,155.37z"/>
				<g>
					<g>
						<path class="st12" d="M64.29,137.55c-0.53,1.42-0.07,3.01,0.82,4.18c0.97,1.27,2.4,2.08,3.8,2.8
							c0.41,0.21,0.77-0.41,0.36-0.62c-1.26-0.65-2.55-1.35-3.47-2.46c-0.85-1.02-1.3-2.44-0.82-3.71
							C65.15,137.3,64.45,137.12,64.29,137.55L64.29,137.55z"/>
					</g>
				</g>
				<g>
					<g>
						<path class="st12" d="M57.18,135.13c-1.47,1.97-2.67,4.12-3.59,6.4c-0.17,0.43,0.52,0.61,0.69,0.19
							c0.9-2.22,2.09-4.31,3.52-6.23C58.08,135.12,57.45,134.76,57.18,135.13L57.18,135.13z"/>
					</g>
				</g>
				<g>
					<g>
						<path class="st12" d="M48.62,131.7c2.51,1.84,5.02,3.67,7.53,5.51c0.37,0.27,0.73-0.35,0.36-0.62
							c-2.51-1.84-5.02-3.67-7.53-5.51C48.61,130.81,48.25,131.43,48.62,131.7L48.62,131.7z"/>
					</g>
				</g>
				<g>
					<g>
						<path class="st12" d="M47.9,133.19c2.08,2.19,4.49,4,6.85,5.87c0.36,0.28,0.87-0.22,0.51-0.51c-2.36-1.86-4.77-3.68-6.85-5.87
							C48.09,132.35,47.58,132.85,47.9,133.19L47.9,133.19z"/>
					</g>
				</g>
				<g>
					<g>
						<path class="st12" d="M47.7,135.9c2.04,1.9,4.2,3.65,6.48,5.25c0.38,0.27,0.74-0.36,0.36-0.62c-2.23-1.57-4.34-3.28-6.33-5.14
							C47.87,135.08,47.36,135.59,47.7,135.9L47.7,135.9z"/>
					</g>
				</g>
				<g>
					<g>
						<path class="st12" d="M49.11,131.58c1.13-0.85,2.99,0.42,4.07,0.92c1.29,0.6,2.57,1.22,3.83,1.88
							c2.48,1.28,4.91,2.67,7.29,4.14c0.39,0.24,0.75-0.38,0.36-0.62c-2.71-1.68-5.49-3.25-8.34-4.67c-1.4-0.7-2.82-1.37-4.25-2.01
							c-1.05-0.47-2.28-1.05-3.32-0.25C48.38,131.24,48.74,131.86,49.11,131.58L49.11,131.58z"/>
					</g>
				</g>
				<g>
					<g>
						<path class="st12" d="M64.44,137.4c-1.34-0.93-2.52-2.06-3.49-3.37c-0.47-0.63-0.89-1.3-1.25-2
							c-0.18-0.34-0.39-0.69-0.48-1.07c-0.06-0.28-0.03-0.6,0.35-0.54c0.19,0.03,0.37,0.14,0.53,0.24c3.18,1.91,6.18,4.22,9.07,6.55
							c0.36,0.29,0.87-0.22,0.51-0.51c-2.73-2.2-5.56-4.27-8.49-6.19c-0.53-0.35-1.16-0.88-1.84-0.81c-0.57,0.06-0.9,0.54-0.87,1.09
							c0.03,0.64,0.43,1.28,0.73,1.83c0.36,0.67,0.78,1.3,1.23,1.91c1.02,1.36,2.25,2.52,3.65,3.49
							C64.46,138.28,64.82,137.66,64.44,137.4L64.44,137.4z"/>
					</g>
				</g>
				<g>
					<g>
						<path class="st12" d="M48.47,130.97c-1.38,2.04-1.22,4.66-0.14,6.79c1.17,2.33,3.26,3.98,5.35,5.44
							c0.38,0.27,0.74-0.36,0.36-0.62c-1.89-1.32-3.77-2.8-4.91-4.85c-1.11-1.98-1.35-4.45-0.04-6.4
							C49.34,130.95,48.72,130.59,48.47,130.97L48.47,130.97z"/>
					</g>
				</g>
			</g>
		</g>
		<g>
			<path class="st11" d="M275.67,125.91c-3.19,31.62-31.43,46.68-31.43,46.68c-0.02-0.05-0.04-0.11-0.06-0.17
				c-0.02-0.04-0.04-0.09-0.06-0.14c-0.02-0.05-0.04-0.09-0.06-0.14c-0.21-0.46-0.52-1.01-0.92-1.62c-0.05-0.08-0.1-0.15-0.15-0.23
				c-0.05-0.07-0.09-0.14-0.14-0.21c-0.06-0.09-0.12-0.18-0.19-0.26c-0.06-0.08-0.11-0.16-0.17-0.24c-0.01-0.01-0.02-0.02-0.03-0.04
				c-0.05-0.07-0.1-0.14-0.15-0.21c-0.06-0.08-0.12-0.16-0.19-0.25c-0.05-0.07-0.11-0.14-0.16-0.21c-0.21-0.26-0.43-0.53-0.66-0.8
				c-0.06-0.07-0.12-0.14-0.18-0.21c-0.31-0.36-0.64-0.72-0.99-1.08c-0.08-0.09-0.17-0.17-0.25-0.26c-0.15-0.15-0.31-0.31-0.47-0.46
				c-0.05-0.05-0.1-0.09-0.14-0.14c-0.24-0.22-0.48-0.45-0.73-0.66c-0.1-0.09-0.21-0.18-0.31-0.26c-0.08-0.07-0.17-0.14-0.25-0.2
				c-0.09-0.08-0.19-0.15-0.28-0.23c-0.06-0.04-0.11-0.09-0.17-0.13c-0.29-0.22-0.58-0.43-0.88-0.64c-0.08-0.06-0.17-0.11-0.25-0.17
				c-0.27-0.18-0.54-0.35-0.81-0.51c-0.07-0.04-0.14-0.08-0.21-0.12c-0.06-0.03-0.12-0.07-0.18-0.1c-0.05-0.03-0.1-0.06-0.16-0.08
				c-0.17-0.09-0.34-0.18-0.52-0.26c-0.1-0.05-0.19-0.09-0.29-0.14c-0.03-0.02-0.07-0.03-0.1-0.05c-0.04-0.02-0.09-0.04-0.13-0.06
				c-0.07-0.03-0.13-0.06-0.2-0.09c-0.08-0.03-0.15-0.06-0.23-0.09c-0.09-0.04-0.19-0.07-0.28-0.11l-5.33-21.97l-0.36-1.5
				l10.11-21.15c0,0,0.03,0.02,0.08,0.05c0.01,0.01,0.02,0.01,0.04,0.02c0.08,0.04,0.2,0.11,0.36,0.19
				c0.02,0.01,0.05,0.03,0.07,0.04c0.28,0.14,0.66,0.33,1.14,0.55c0.09,0.04,0.18,0.08,0.28,0.13c0.06,0.03,0.13,0.06,0.2,0.09
				c0.12,0.05,0.23,0.1,0.36,0.16c0.31,0.13,0.64,0.27,1,0.42c0.08,0.03,0.15,0.06,0.23,0.1c0.57,0.23,1.21,0.47,1.9,0.72
				c0.11,0.04,0.23,0.08,0.35,0.12c0.11,0.04,0.22,0.08,0.34,0.12c0.12,0.04,0.25,0.09,0.38,0.13c0.12,0.04,0.25,0.08,0.38,0.12
				c0.13,0.04,0.25,0.08,0.38,0.12c0,0,0,0,0,0c0.13,0.04,0.26,0.08,0.4,0.13c0.13,0.04,0.27,0.08,0.41,0.13
				c0.96,0.29,2,0.59,3.12,0.88c0.1,0.02,0.19,0.05,0.29,0.07c0.16,0.04,0.33,0.08,0.5,0.12c0.56,0.14,1.14,0.27,1.74,0.4
				c0.16,0.04,0.32,0.07,0.48,0.11c1.24,0.26,2.56,0.52,3.95,0.74c0.11,0.02,0.21,0.03,0.32,0.05c0.13,0.02,0.26,0.04,0.39,0.06
				c0.11,0.02,0.22,0.03,0.32,0.05c0.16,0.02,0.32,0.05,0.47,0.07c0.05,0.01,0.11,0.02,0.16,0.02c0.14,0.02,0.28,0.04,0.42,0.06
				c0.18,0.03,0.36,0.05,0.54,0.07C263.55,124.11,269.39,124.51,275.67,125.91z"/>
			<path class="st12" d="M238.54,165.28c-1.55-1.34-3.34-2.52-5.26-3.23l-5.33-21.97l10.24-22.39l0.09-0.2
				c-0.01,0.08-0.01,0.16-0.02,0.24C237.65,125.35,238.47,162.49,238.54,165.28z"/>
		</g>
		<g>
			<g>
				<path class="st11" d="M258.67,355.65c0,0-0.71,14.56-0.27,18.19c0.44,3.63,1.93,8.74,0.44,11.19
					c-1.48,2.45-1.63,10.89-3.48,11.26c-1.85,0.37-16.52,0.63-17.59-4.86c-1.06-5.5,5.67-13.03,5.94-17.02
					c0.27-3.99,0.34-18.63,0.34-18.63L258.67,355.65z"/>
				<g>
					<g>
						<path class="st12" d="M251.58,396.18c-0.25-1.15-0.03-2.36,0.6-3.35c0.25-0.39-0.37-0.75-0.62-0.36
							c-0.73,1.15-0.97,2.57-0.67,3.9C250.98,396.83,251.68,396.64,251.58,396.18L251.58,396.18z"/>
					</g>
				</g>
				<g>
					<g>
						<path class="st12" d="M247.64,396.01c-0.18-1.22-0.07-2.47,0.28-3.65c0.13-0.44-0.56-0.63-0.69-0.19
							c-0.39,1.31-0.48,2.68-0.28,4.03c0.03,0.19,0.27,0.3,0.44,0.25C247.6,396.39,247.67,396.2,247.64,396.01L247.64,396.01z"/>
					</g>
				</g>
				<g>
					<g>
						<path class="st12" d="M243.57,395.49c-0.05-1.47,0.3-2.92,1.04-4.19c0.23-0.4-0.39-0.76-0.62-0.36
							c-0.8,1.38-1.2,2.96-1.14,4.55C242.87,395.95,243.59,395.95,243.57,395.49L243.57,395.49z"/>
					</g>
				</g>
				<g>
					<g>
						<path class="st12" d="M240.29,394.15c-0.23-1.31,0.08-2.68,0.81-3.79c0.26-0.39-0.37-0.75-0.62-0.36
							c-0.84,1.28-1.15,2.84-0.88,4.34c0.03,0.19,0.27,0.3,0.44,0.25C240.24,394.54,240.32,394.35,240.29,394.15L240.29,394.15z"/>
					</g>
				</g>
			</g>
			<g>
				<path class="st11" d="M267.87,355.65c0,0,0.71,14.56,0.27,18.19c-0.44,3.63-1.93,8.74-0.44,11.19
					c1.48,2.45,1.63,10.89,3.48,11.26c1.85,0.37,16.52,0.63,17.58-4.86c1.06-5.5-5.67-13.03-5.94-17.02
					c-0.27-3.99-0.34-18.63-0.34-18.63L267.87,355.65z"/>
				<g>
					<g>
						<path class="st12" d="M275.66,396.38c0.29-1.33,0.06-2.75-0.67-3.9c-0.25-0.39-0.87-0.03-0.62,0.36
							c0.63,0.99,0.85,2.2,0.6,3.35C274.87,396.63,275.56,396.83,275.66,396.38L275.66,396.38z"/>
					</g>
				</g>
				<g>
					<g>
						<path class="st12" d="M279.59,396.2c0.2-1.35,0.11-2.72-0.28-4.03c-0.13-0.44-0.83-0.25-0.69,0.19
							c0.35,1.18,0.46,2.43,0.28,3.65c-0.03,0.19,0.05,0.39,0.25,0.44C279.32,396.5,279.56,396.39,279.59,396.2L279.59,396.2z"/>
					</g>
				</g>
				<g>
					<g>
						<path class="st12" d="M283.69,395.49c0.06-1.59-0.34-3.18-1.14-4.55c-0.23-0.4-0.85-0.04-0.62,0.36
							c0.74,1.27,1.1,2.72,1.04,4.19C282.95,395.95,283.67,395.95,283.69,395.49L283.69,395.49z"/>
					</g>
				</g>
				<g>
					<g>
						<path class="st12" d="M286.95,394.34c0.26-1.5-0.04-3.07-0.88-4.34c-0.25-0.38-0.88-0.02-0.62,0.36
							c0.73,1.11,1.04,2.48,0.81,3.79c-0.03,0.19,0.05,0.39,0.25,0.44C286.68,394.64,286.92,394.54,286.95,394.34L286.95,394.34z"/>
					</g>
				</g>
			</g>
			<g>
				<path class="st2" d="M313.91,231.03c-1.88,12.38-8.07,25.56-8.07,48.43c0,22.87-5.02,52.16-20.81,65.69
					c0,0-0.59,12.37-1.77,13.16c-1.17,0.78-15.62-0.91-16.54-1.69c-0.91-0.78,0.39-11.07,0.39-11.07s-1.56-2.6-1.3-4.56
					c0.26-1.95,10.03-68.23,13.15-84.37c3.12-16.15,4.17-57.55,3.25-61.46l-4.95,1.69c0,0-4.04,61.89-5.6,71.84
					c-1.55,9.95-5.73,75.2-11.14,76.32c0,0-0.14,12.08-1.1,12.22c-0.96,0.14-16.2,0.82-17.43-0.69c-1.24-1.51,0.82-9.75,0.82-9.75
					s-9.97-28.66-9.97-45.09c0-16.43,1.39-27.32,5.15-47.32c3.76-19.99,6.34-29.1,6.34-45.14c0-16.04,0.73-34.38-0.1-36.67
					c0,0,28.24-15.06,31.43-46.68c11.59,2.59,24.7,8.64,35.85,26.11C328.72,178.96,315.8,218.66,313.91,231.03z"/>
				<g>
					<g>
						<g>
							<path class="st15" d="M276.83,197c3.45-0.92,6.89-1.85,10.34-2.77c0.42-0.11,0.24-0.77-0.18-0.66
								c-3.45,0.92-6.89,1.85-10.34,2.77C276.22,196.46,276.4,197.12,276.83,197L276.83,197z"/>
						</g>
					</g>
					<g>
						<g>
							<path class="st15" d="M283.03,128.15c0.6,17.98-9.02,35.05-24.82,43.69c-4.24,2.32-8.8,3.97-13.53,4.94
								c-0.43,0.09-0.25,0.75,0.18,0.66c17.47-3.55,31.89-16.68,36.9-33.81c1.47-5.02,2.12-10.25,1.95-15.47
								C283.7,127.72,283.02,127.71,283.03,128.15L283.03,128.15z"/>
						</g>
					</g>
					<g>
						<g>
							<path class="st15" d="M247.33,171.53c0.25,1.72,1.06,3.33,2.27,4.57c0.31,0.32,0.79-0.17,0.48-0.48
								c-1.13-1.16-1.86-2.66-2.1-4.27c-0.03-0.18-0.26-0.28-0.42-0.24C247.37,171.17,247.3,171.35,247.33,171.53L247.33,171.53z"/>
						</g>
					</g>
					<g>
						<g>
							<path class="st15" d="M251.84,168.63c0.47,1.93,1.53,3.7,3.01,5.03c0.33,0.29,0.81-0.19,0.48-0.48
								c-1.4-1.26-2.39-2.91-2.83-4.73C252.39,168.02,251.73,168.2,251.84,168.63L251.84,168.63z"/>
						</g>
					</g>
					<g>
						<g>
							<path class="st15" d="M257.28,164.91c0.89,2.19,2.44,4.05,4.46,5.3c0.37,0.23,0.72-0.36,0.34-0.59
								c-1.85-1.15-3.32-2.88-4.14-4.9c-0.07-0.17-0.23-0.29-0.42-0.24C257.36,164.54,257.21,164.74,257.28,164.91L257.28,164.91z"
								/>
						</g>
					</g>
					<g>
						<g>
							<path class="st15" d="M269.69,163.81c-1.25-2.14-3.27-3.76-5.62-4.54c-0.42-0.14-0.6,0.52-0.18,0.66
								c2.18,0.72,4.05,2.25,5.21,4.23C269.32,164.53,269.91,164.19,269.69,163.81L269.69,163.81z"/>
						</g>
					</g>
					<g>
						<g>
							<path class="st15" d="M274.7,157.91c-1.63-2.37-4.13-4.08-6.94-4.71c-0.43-0.1-0.61,0.56-0.18,0.66
								c2.64,0.59,5,2.17,6.54,4.39C274.35,158.61,274.95,158.27,274.7,157.91L274.7,157.91z"/>
						</g>
					</g>
					<g>
						<g>
							<path class="st15" d="M279,150.4c-2.13-2.06-4.9-3.34-7.84-3.64c-0.44-0.04-0.43,0.64,0,0.68c2.76,0.28,5.37,1.51,7.36,3.44
								C278.84,151.19,279.32,150.71,279,150.4L279,150.4z"/>
						</g>
					</g>
					<g>
						<g>
							<path class="st15" d="M281.95,141.83c-2.33-1.62-5.15-2.45-7.99-2.34c-0.44,0.02-0.44,0.7,0,0.68
								c2.72-0.1,5.41,0.69,7.64,2.24C281.96,142.67,282.3,142.08,281.95,141.83L281.95,141.83z"/>
						</g>
					</g>
					<g>
						<g>
							<path class="st15" d="M283.41,134.18c-2.18-1.64-4.95-2.42-7.66-2.16c-0.43,0.04-0.44,0.73,0,0.68
								c2.61-0.25,5.22,0.49,7.31,2.07C283.42,135.03,283.76,134.44,283.41,134.18L283.41,134.18z"/>
						</g>
					</g>
					<g>
						<g>
							<path class="st15" d="M260.5,344.74c-5.86,1.33-11.91,1.53-17.84,0.6c-0.43-0.07-0.62,0.59-0.18,0.66
								c6.06,0.96,12.22,0.76,18.2-0.6C261.11,345.3,260.93,344.64,260.5,344.74L260.5,344.74z"/>
						</g>
					</g>
					<g>
						<g>
							<path class="st15" d="M245.73,346.11c-1.67,3.42-2.01,7.37-0.91,11.02c0.13,0.42,0.79,0.24,0.66-0.18
								c-1.04-3.47-0.75-7.24,0.84-10.5C246.52,346.06,245.93,345.71,245.73,346.11L245.73,346.11z"/>
						</g>
					</g>
					<g>
						<g>
							<path class="st15" d="M249.65,346.48c-0.01,3.45-0.02,6.9-0.04,10.35c0,0.44,0.68,0.44,0.68,0c0.01-3.45,0.02-6.9,0.04-10.35
								C250.33,346.04,249.65,346.04,249.65,346.48L249.65,346.48z"/>
						</g>
					</g>
					<g>
						<g>
							<path class="st15" d="M254.26,346.49c0.87,3.55,0.86,7.26-0.01,10.81c-0.11,0.43,0.55,0.61,0.66,0.18
								c0.91-3.67,0.91-7.5,0.01-11.17C254.81,345.88,254.16,346.06,254.26,346.49L254.26,346.49z"/>
						</g>
					</g>
					<g>
						<g>
							<path class="st15" d="M258.41,345.55c0.83,3.57,0.73,7.28-0.29,10.8c-0.12,0.42,0.54,0.6,0.66,0.18
								c1.05-3.63,1.15-7.48,0.29-11.16C258.97,344.94,258.31,345.12,258.41,345.55L258.41,345.55z"/>
						</g>
					</g>
					<g>
						<g>
							<path class="st15" d="M266.92,345.79c6.27,0.86,12.62,0.6,18.79-0.79c0.43-0.1,0.25-0.76-0.18-0.66
								c-6.05,1.36-12.29,1.63-18.43,0.79C266.67,345.07,266.49,345.73,266.92,345.79L266.92,345.79z"/>
						</g>
					</g>
					<g>
						<g>
							<path class="st15" d="M270.88,345.84c-0.7,3.77-0.66,7.62,0.11,11.38c0.09,0.43,0.75,0.25,0.66-0.18
								c-0.75-3.63-0.79-7.37-0.11-11.01C271.62,345.6,270.96,345.41,270.88,345.84L270.88,345.84z"/>
						</g>
					</g>
					<g>
						<g>
							<path class="st15" d="M275.1,346.24c0.18,3.94,0.04,7.88-0.42,11.8c-0.05,0.44,0.63,0.43,0.68,0
								c0.46-3.91,0.6-7.86,0.42-11.8C275.76,345.8,275.08,345.8,275.1,346.24L275.1,346.24z"/>
						</g>
					</g>
					<g>
						<g>
							<path class="st15" d="M280.45,345.52c0.5,4.19,0.1,8.42-1.19,12.43c-0.13,0.42,0.52,0.6,0.66,0.18
								c1.31-4.07,1.73-8.37,1.22-12.61C281.08,345.09,280.39,345.09,280.45,345.52L280.45,345.52z"/>
						</g>
					</g>
				</g>
			</g>
		</g>
		<g>
			<path class="st16" d="M184.72,116.83l1.71,10.53l0.25,18.32l-2.31,9.69c0,0,14.23,15.79,50.68,17.74c0,0-3.12-39.38,5.65-64.33
				C240.71,108.78,213.46,99.5,184.72,116.83z"/>
			<g>
				<g>
					<polygon class="st11" points="195.84,136.27 186.68,145.68 182.5,145.54 173.65,145.26 173.4,131.69 173.32,127.45 
						186.43,127.36 					"/>
					<path class="st12" d="M179.82,145.54l-6.16-0.29l-0.25-13.57l1.66-4.24C182.18,134.7,179.9,142.61,179.82,145.54z"/>
				</g>
				<g>
					
						<ellipse transform="matrix(0.2627 -0.9649 0.9649 0.2627 -44.9781 213.4642)" class="st9" cx="117.19" cy="136.16" rx="12.51" ry="12.51"/>
					<path class="st9" d="M149.88,111.53c0,0-22.47-3.16-28.74,17.06c-6.27,20.22,9,34.11,27.47,32.89l8.36-17.46L149.88,111.53z"/>
					<g>
						<g>
							<path class="st10" d="M122.31,124.09c-3.97,7.66-4.11,16.91-0.37,24.69c0.22,0.47,0.92,0.06,0.69-0.41
								c-3.61-7.51-3.46-16.49,0.37-23.88C123.25,124.03,122.55,123.63,122.31,124.09L122.31,124.09z"/>
						</g>
					</g>
				</g>
				<g>
					<path class="st11" d="M134.77,143.24c0,0,11.48-0.22,14.54,11.25c0,0-4,4.25,0.1,8s12.23-2.69,10.48-6.91
						c0,0,16.86-2.25,17.07-18.28c0.21-16.02-16.28-20.12-16.28-20.12s-0.05-5.5-4.66-7.53c-4.6-2.03-8.62,0.17-6.27,5.36
						c0,0,1.26,13.28-14.48,19.47c0,0,9.29-2.12,11.71-5.17C146.98,129.31,145.1,139.39,134.77,143.24z"/>
					<polygon class="st12" points="151.87,136.41 162.29,136.45 160.03,133.34 					"/>
					<g>
						<g>
							<path class="st12" d="M163.75,140.2c2.33-0.08,4.24-2.05,4.11-4.4c-0.13-2.34-2.18-4.15-4.52-3.98
								c-0.46,0.03-0.46,0.75,0,0.72c1.94-0.14,3.7,1.29,3.81,3.26c0.11,1.96-1.44,3.62-3.4,3.68
								C163.29,139.49,163.29,140.21,163.75,140.2L163.75,140.2z"/>
						</g>
					</g>
					<g>
						<g>
							<path class="st12" d="M152.68,112.28c0.43,1.65,1.82,3,3.49,3.36c0.19,0.04,0.39-0.06,0.44-0.25
								c0.05-0.18-0.06-0.4-0.25-0.44c-1.44-0.31-2.62-1.44-2.99-2.86C153.25,111.65,152.56,111.84,152.68,112.28L152.68,112.28z"/>
						</g>
					</g>
					<g>
						<g>
							<path class="st12" d="M152.04,160.11c0.69-1.61,2.25-2.81,4-2.98c0.19-0.02,0.36-0.15,0.36-0.36c0-0.18-0.16-0.38-0.36-0.36
								c-2,0.19-3.83,1.48-4.62,3.34c-0.08,0.18-0.05,0.38,0.13,0.49C151.7,160.32,151.97,160.29,152.04,160.11L152.04,160.11z"/>
						</g>
					</g>
				</g>
			</g>
			<g>
				<g>
					<path class="st14" d="M186.04,127c10.27,11.32,22.58,20.76,36.2,27.7c3.77,1.93,7.65,3.65,11.6,5.19
						c0.6,0.23,0.86-0.73,0.26-0.96c-14.06-5.48-27.09-13.51-38.31-23.61c-3.17-2.85-6.19-5.87-9.05-9.03
						C186.32,125.82,185.61,126.53,186.04,127L186.04,127z"/>
				</g>
			</g>
			<g>
				<g>
					<path class="st14" d="M195.42,136.1c-3.06,3.22-6.13,6.43-9.19,9.65c-0.44,0.46,0.26,1.17,0.7,0.7
						c3.06-3.22,6.13-6.43,9.19-9.65C196.56,136.34,195.86,135.63,195.42,136.1L195.42,136.1z"/>
				</g>
			</g>
		</g>
	</g>
</g>
<g id="TEXTS" class="st17">
	<g class="st18">
		<text transform="matrix(1 0 0 1 153.3499 448.2941)" class="st13 st19 st20 st21">international</text>
		<text transform="matrix(1 0 0 1 168.5134 479.0124)" class="st3 st22 st23 st21">yoga day</text>
	</g>
</g>
</svg>
