<?xml version="1.0" encoding="utf-8"?>
<!-- Generator: Adobe Illustrator 27.5.0, SVG Export Plug-In . SVG Version: 6.00 Build 0)  -->
<svg version="1.1" id="Layer_1" xmlns="http://www.w3.org/2000/svg" xmlns:xlink="http://www.w3.org/1999/xlink" x="0px" y="0px"
	 viewBox="0 0 18 18" style="enable-background:new 0 0 18 18;" xml:space="preserve">
<style type="text/css">
	.st0{fill:none;stroke:#BCBCBC;stroke-width:0.75;stroke-linecap:round;stroke-linejoin:round;stroke-miterlimit:10;}
</style>
<g>
	<path class="st0" d="M14.16,11.42V9.31c0-2.64-1.93-4.99-4.55-5.24C6.6,3.78,4.07,6.14,4.07,9.09v2.33c0,0.77-0.63,1.4-1.4,1.4l0,0
		v1.51h12.89v-1.51l0,0C14.79,12.82,14.16,12.19,14.16,11.42z"/>
	<path class="st0" d="M10.76,14.33c0,0.91-0.73,1.64-1.64,1.64c-0.91,0-1.64-0.73-1.64-1.64"/>
	<path class="st0" d="M9.97,3.19c0,0.47-0.38,0.86-0.86,0.86S8.26,3.66,8.26,3.19c0-0.47,0.38-0.86,0.86-0.86S9.97,2.71,9.97,3.19z"
		/>
</g>
</svg>
