<?xml version="1.0" encoding="utf-8"?>
<!-- Generator: Adobe Illustrator 27.5.0, SVG Export Plug-In . SVG Version: 6.00 Build 0)  -->
<svg version="1.1" xmlns="http://www.w3.org/2000/svg" xmlns:xlink="http://www.w3.org/1999/xlink" x="0px" y="0px"
	 viewBox="0 0 500 500" style="enable-background:new 0 0 500 500;" xml:space="preserve">
<style type="text/css">
	.st0{display:none;}
	.st1{fill:#FFFFFF;}
	.st2{fill:#F2F2F2;}
	.st3{fill:#4CC8D8;}
	.st4{fill:#3BB5C4;}
	.st5{fill:#133246;}
	.st6{fill:#0A2130;}
	.st7{fill:#B5D84C;}
	.st8{fill:#9FC238;}
	.st9{fill:#1E89CC;}
	.st10{fill:#FCBB00;}
	.st11{fill:#FB7E00;}
	.st12{fill:#FB7C00;}
	.st13{fill:#E04B00;}
	.st14{fill:#2497D5;}
	.st15{display:inline;}
	.st16{font-family:'Anaheim-Regular';}
	.st17{font-size:25.736px;}
	.st18{letter-spacing:1;}
	.st19{font-family:'Poppins-Black';}
	.st20{font-size:33.132px;}
</style>
<g id="BACKGROUND" class="st0">
	<rect class="st1" width="500" height="500"/>
</g>
<g id="OBJECTS">
	<g>
		
			<ellipse transform="matrix(0.7071 -0.7071 0.7071 0.7071 -85.0645 242.3416)" class="st2" cx="250" cy="223.85" rx="175.05" ry="175.05"/>
		<path class="st1" d="M415.01,125.26H304.04c0,0,2.49-30.82,15.95-27.35c13.46,3.46,15.39,13.46,15.39,13.46
			s6.15-34.24,28.08-28.08c21.93,6.15,16.16,27.31,16.16,27.31s4.23-15.39,13.85-11.92c9.62,3.46,5,18.08,5,18.08L415.01,125.26z"/>
		<path class="st1" d="M208.4,111.97h-82.61c0,0,1.85-22.94,11.87-20.36s11.45,10.02,11.45,10.02s4.58-25.49,20.91-20.91
			c16.32,4.58,12.03,20.33,12.03,20.33s3.15-11.45,10.31-8.88c7.16,2.58,3.72,13.46,3.72,13.46L208.4,111.97z"/>
	</g>
	<g>
		<g>
			<path class="st3" d="M291.95,159.43c6.43-4.38,3.96-14.5,3.96-14.5s-3.01,2.59-11.18,3.83c-8.17,1.25-9.39-3.35-7.33-6.43
				c2.07-3.08,12.69-1.98,15.32-7.95c2.64-5.97-3.23-12.98-3.23-12.98c-0.23,2.15-9.45,10.95-12.31,5.8
				c-2.86-5.16,5.77-6.43,6.41-12.61c0.64-6.18-6.5-7.41-6.5-7.41c0.14,6.6-5.04,10.58-7.93,10c-2.89-0.58-1.73-3.37,0.8-7.13
				c2.53-3.75,2.39-9.42-4.15-11.15c-6.54-1.73-12.13-4.61-12.13-4.61c-17.23,4.52-11.02,14.89-6.86,18.43
				c4.16,3.54,6.95,5.73,5.06,7.97c-1.89,2.24-6.93-2.35-9.09-7.76c-2.16-5.41-7.02-9.52-7.02-9.52c-7.48,3.4-9.13,8.33-9.13,8.33
				c0.85,9.96,27.93,12.86,22.2,20.97c-5.73,8.12-26.91-15.16-26.91-15.16s-7.42,7.12-3.39,14.53c4.03,7.41,17.5,6.2,13.36,11.23
				c-4.14,5.03-16.89-7.68-16.89-7.68s-5.18,12.63,1.08,17.34c6.26,4.7,23.43-0.56,20.82,5.36c-2.61,5.91-20.55,1.8-20.55,1.8
				c1.48,7.55,8.47,13.96,13.03,14.4c4.55,0.44,17.67-13.86,18.84-7.87c1.17,5.99-16.29,9.23-16.29,9.23s0.81,5.35,9.33,5.66
				c8.51,0.31,15.53-10.17,15.53-10.17c5.62,16.79,15.92,9.99,15.92,9.99c-9.62-4.68-9.58-15.01-5.89-15.2
				c3.69-0.19,4.15,10.41,11.46,11.03c7.3,0.62,9.24-9.02,9.24-9.02c-10.33,4.17-19.45-5.55-15.56-10.55
				C275.84,152.62,285.53,163.81,291.95,159.43z M247.24,147.18c-4.5,0.25-9.13-3.68-7.38-6.52c1.75-2.83,6.8,0.09,6.8,0.09
				C251.48,143.21,251.74,146.94,247.24,147.18z M254.42,154.93c-1.46,0.02-4.55-1.11-3.95-3c0.59-1.89,3.57-0.73,3.57-0.73
				C257.17,152.39,255.88,154.91,254.42,154.93z M267.75,135.29c-2.1-0.77-2.06-3.74,0.04-5.34c2.1-1.6,4.39-1.54,5.21-0.39
				c0.81,1.16,0.16,3-0.96,4.03C272.03,133.59,269.85,136.05,267.75,135.29z M272.33,147.52c-1.34,0.54-5.11,0.22-4.95-2.1
				c0.16-2.32,3.06-1.91,3.06-1.91c0.92-0.03,3.23,0.13,3.68,1.16C274.56,145.7,273.67,146.98,272.33,147.52z"/>
			<g>
				<g>
					<path class="st4" d="M253.11,94.67c5.43,8.8,7.11,19.23,8.18,29.35c1.09,10.3,1.36,20.8-0.41,31.04
						c-0.99,5.73-2.64,11.33-5.09,16.61c-0.27,0.58,0.59,1.08,0.86,0.5c4.41-9.52,6.22-19.95,6.46-30.38
						c0.24-10.45-0.66-21.26-2.92-31.48c-1.25-5.66-3.17-11.19-6.23-16.14C253.64,93.63,252.78,94.13,253.11,94.67L253.11,94.67z"/>
				</g>
			</g>
		</g>
		<g>
			<g>
				<path class="st5" d="M366.7,118.49c0,0,4.37-3.09,6.45-9.86c2.08-6.77,2.61-11.88-2.77-13.14
					C364.99,94.22,359.26,110.12,366.7,118.49z"/>
				<path class="st5" d="M357.37,139.52c0,0,5.25-11.12,14.21-13.92c8.96-2.81,10.77,1.78,10.54,4.49
					C381.88,132.8,372.49,143.1,357.37,139.52z"/>
				<path class="st5" d="M351.18,151.94c0,0,4.49-9.23,3.01-16.93c-1.49-7.7-6.45-8.95-9.97-7.21
					C340.69,129.55,340.51,145.78,351.18,151.94z"/>
				<path class="st5" d="M343.72,164.59c0,0,6.56-10.39,15.17-13.16s13.4,5.41,6.51,9.46C358.51,164.94,343.72,164.59,343.72,164.59
					z"/>
				<path class="st5" d="M336.4,174.52c0,0,4.59-7.68,2.85-17.42c-1.74-9.74-8.74-10.53-11.49-8.99
					C325.01,149.65,323.19,163.55,336.4,174.52z"/>
				<path class="st5" d="M325.54,190.75c0,0,28.09,0.18,28.74-8.45C354.93,173.67,336.24,176.41,325.54,190.75z"/>
				<path class="st5" d="M317.76,200.41c0,0,4.55-8.32,2.39-19.41c-2.16-11.1-7.13-11.56-9.66-6.95
					C307.97,178.65,309.15,193.89,317.76,200.41z"/>
			</g>
			<g>
				<g>
					<g>
						<path class="st6" d="M366.18,117.95c-5.62,14.15-12.27,27.88-19.91,41.05c-7.6,13.1-16.16,25.64-25.63,37.47
							c-5.33,6.66-10.96,13.09-16.84,19.27c-0.54,0.57,0.32,1.43,0.86,0.86c10.52-11.05,20.18-22.89,28.91-35.4
							c8.74-12.52,16.53-25.7,23.31-39.39c3.81-7.69,7.3-15.55,10.47-23.53C367.65,117.54,366.47,117.23,366.18,117.95
							L366.18,117.95z"/>
					</g>
				</g>
				<g>
					<g>
						<path class="st6" d="M367.35,118.4c1.72-5.98,2.9-12.1,3.56-18.28c0.08-0.78-1.14-0.77-1.22,0
							c-0.65,6.08-1.83,12.08-3.52,17.96C365.96,118.83,367.14,119.15,367.35,118.4L367.35,118.4z"/>
					</g>
				</g>
				<g>
					<g>
						<path class="st6" d="M358.44,139.03c5.84-2.59,11.68-5.18,17.52-7.77c0.72-0.32,0.1-1.37-0.62-1.05
							c-5.84,2.59-11.68,5.18-17.52,7.77C357.11,138.29,357.73,139.35,358.44,139.03L358.44,139.03z"/>
					</g>
				</g>
				<g>
					<g>
						<path class="st6" d="M351.83,151.12c-0.61-6.45-1.76-12.83-3.45-19.08c-0.2-0.76-1.38-0.44-1.18,0.32
							c1.66,6.15,2.81,12.42,3.4,18.75C350.69,151.89,351.91,151.9,351.83,151.12L351.83,151.12z"/>
					</g>
				</g>
				<g>
					<g>
						<path class="st6" d="M344.79,164.65c6.05-2.61,12.09-5.21,18.14-7.82c0.72-0.31,0.1-1.36-0.62-1.05
							c-6.05,2.61-12.09,5.21-18.14,7.82C343.45,163.9,344.07,164.96,344.79,164.65L344.79,164.65z"/>
					</g>
				</g>
				<g>
					<g>
						<path class="st6" d="M337.36,175.26c-0.44-6.75-1.74-13.42-3.9-19.84c-0.25-0.74-1.43-0.42-1.18,0.32
							c2.12,6.32,3.42,12.87,3.86,19.51C336.19,176.04,337.41,176.05,337.36,175.26L337.36,175.26z"/>
					</g>
				</g>
				<g>
					<g>
						<path class="st6" d="M326.79,190.62c5.95-3.05,12.2-5.44,18.66-7.14c0.76-0.2,0.44-1.38-0.32-1.18
							c-6.56,1.73-12.91,4.17-18.95,7.26C325.48,189.93,326.1,190.98,326.79,190.62L326.79,190.62z"/>
					</g>
				</g>
				<g>
					<g>
						<path class="st6" d="M318.45,200.46c-0.62-7.41-1.78-14.77-3.47-22.01c-0.18-0.76-1.36-0.44-1.18,0.32
							c1.67,7.14,2.82,14.38,3.43,21.69C317.3,201.24,318.52,201.24,318.45,200.46L318.45,200.46z"/>
					</g>
				</g>
			</g>
		</g>
		<g>
			<g>
				<g>
					<path class="st6" d="M125.51,152.94c5.9,23.36,16.79,45.38,31.7,64.3c4.21,5.34,8.74,10.41,13.55,15.21
						c0.45,0.45,1.16-0.25,0.7-0.7c-16.99-16.93-30.33-37.45-38.92-59.85c-2.41-6.28-4.43-12.7-6.08-19.22
						C126.31,152.05,125.35,152.32,125.51,152.94L125.51,152.94z"/>
				</g>
			</g>
			<g>
				<path class="st5" d="M126.83,155.8c0,0,5.56-24.83-0.69-26.26C119.88,128.1,120.63,145.87,126.83,155.8z"/>
				<path class="st5" d="M129.32,164.29c0,0-11.54-23.12-16.7-21.54C107.46,144.34,116.47,158.31,129.32,164.29z"/>
				<path class="st5" d="M132.27,172.53c0,0-3.17-4.94-12.45-11.28c-9.28-6.35-13.6-6.07-14.88-3.02
					C103.66,161.28,121.57,173.3,132.27,172.53z"/>
				<path class="st5" d="M129.32,164.29c0,0,15.36-16.85,12.26-20.68C138.48,139.78,129.46,154.12,129.32,164.29z"/>
				<path class="st5" d="M135.45,180.04c0,0-2.61-5.72-1.2-12.73c1.41-7.01,6.53-13.56,9.53-11.52S135.45,180.04,135.45,180.04z"/>
				<path class="st5" d="M138.85,187.32c0,0-5.98-8.08-12.69-10.86c-6.71-2.78-11.01-2.96-11.7-0.16
					C113.76,179.09,129.82,187.97,138.85,187.32z"/>
				<path class="st5" d="M147.28,202.26c0,0-8.17-1.27-14.95-4.83c-6.78-3.56-8.59-5-7.52-6.67
					C125.88,189.1,134.21,187.5,147.28,202.26z"/>
				<path class="st5" d="M144.39,197.32c0,0-4.4-9.36-2.43-18.88c1.97-9.52,4.27-12.6,6.47-12.09c2.2,0.52,1.2,10.42-1.02,16.44
					C145.18,188.83,144.39,197.32,144.39,197.32z"/>
				<path class="st5" d="M154.58,212.99c0,0-8.71-8.83-18.51-9.27C126.28,203.28,133.23,215.5,154.58,212.99z"/>
				<g>
					<path class="st5" d="M153.15,186.33c-7.12,5.46,1.85,25.12,3.99,29.54C157.77,209.63,160.33,180.82,153.15,186.33z"/>
				</g>
			</g>
		</g>
		<g>
			<path class="st7" d="M253.88,192.77c2.36,8.94-15.43,16.78-26.92,5.3c0,0-2.89,14.05,7.27,17.38
				c10.16,3.33,16.83-10.64,21.68-8.29c4.85,2.36-0.98,16.26-16.58,17.05c0,0,9.95,15,27.07-4.34c0,0,3.45,18.08,15.06,22.52
				c11.61,4.44,15.76-2.28,15.76-2.28s-21.61-14.31-16.62-21.69c4.98-7.38,14.45,19.3,20.81,21.31c6.37,2.01,19.43-2.62,25.71-11.92
				c0,0-26.44-4.69-26.58-14.13c-0.14-9.43,19.93,7.42,31.02,4.68c11.09-2.75,11.33-22.67,11.33-22.67s-24.37,9.81-27.06,0.69
				c-2.69-9.12,14.71,0.19,24.34-7.47c9.64-7.66,3.74-21.45,3.74-21.45s-41.73,19.19-44.79,5.02c-3.07-14.17,34.96-2.62,41.77-15.52
				c0,0,0.6-7.56-7.51-16.39c0,0-8.87,2.75-14.86,8.78c-5.99,6.04-15.38,9.32-16.64,5.23c-1.26-4.08,3.73-5.44,11.33-7.82
				c7.61-2.38,21.87-12.78,1.29-28.67c0,0-9.15,0.69-18.93-0.72c-9.77-1.41-13.18,6.12-11.93,12.61c1.25,6.48,1.23,10.89-2.99,10.03
				c-4.22-0.86-8.9-9.17-4.95-17.95c0,0-10.29-2.42-12.96,6.25c-2.66,8.67,8.21,15.29,1.43,20.59c-6.78,5.3-14.15-11.78-13.23-14.8
				c0,0-11.88,6.07-11.75,15.59c0.14,9.53,15.03,14.11,16.05,19.42c1.02,5.31-3.24,10.79-13.51,4.46
				c-10.27-6.33-12.83-11.53-12.83-11.53s-9.08,12.19-2.94,21.74C232.12,193.34,251.52,183.84,253.88,192.77z M297.48,184.53
				c0,0,8.44-1.04,9.18,3.76c0.74,4.81-7.71,7.45-13.62,4.55C287.12,189.94,289.6,185.09,297.48,184.53z M281.61,194.36
				c0,0,4.66,0.14,4.38,3.02c-0.28,2.88-5.07,2.63-7.02,1.77C277.02,198.29,276.72,194.16,281.61,194.36z M267.48,160.44
				c-0.92-2.01-0.75-4.87,1-5.96c1.75-1.09,4.86,0.14,6.77,3.49c1.91,3.35,0.27,7.35-2.99,7.19
				C269.01,165,267.48,160.44,267.48,160.44z M258.37,174.13c1.19-1.14,4.39-0.03,5.6,0.54c0,0,4.12,1.11,3.02,4.31
				c-1.11,3.21-6.36,1.48-7.85,0C257.65,177.5,257.18,175.27,258.37,174.13z"/>
			<g>
				<g>
					<path class="st8" d="M314.28,117.75c-12,8.47-20.14,20.99-27.25,33.59c-7.74,13.72-14.49,28.23-18.15,43.62
						c-2.02,8.51-3.05,17.25-2.75,25.99c0.03,0.93,1.48,0.94,1.45,0c-0.52-15.41,3.16-30.55,8.9-44.77
						c2.93-7.26,6.4-14.3,10.16-21.17c3.47-6.33,7.13-12.6,11.34-18.48c4.76-6.65,10.32-12.8,17.03-17.54
						C315.77,118.47,315.05,117.21,314.28,117.75L314.28,117.75z"/>
				</g>
			</g>
		</g>
		<g>
			<path class="st7" d="M202.47,305.61c0,0,7.02,13.57-0.43,19.98c-7.45,6.41-16.38,8.78-21.55,8.57c0,0,9.84-28.75-0.28-32.01
				c-10.12-3.26-0.49,28.02-13.33,34.74c-12.83,6.72-35.13-17.64-37.11-22.26c0,0,37.74-15.33,32.56-26.88
				c-5.18-11.54-13.74,22.07-49.75,14.36c0,0-7.82-12.47-8.91-18.8c0,0,44.68,4.6,47.62-7.53c2.94-12.13-28.03,9-51.09-4.61
				c0,0-3.66-11.57-3.98-17.74c0,0,37.54,18.54,39.67,6.87c2.13-11.67-23.69-1.33-40.21-13.12c0,0-7.76-22.65-1.89-46.07
				c0,0,20.3-4.71,34.71-3.81c0,0,10.9,10.18,12.03,19.77s0.14,24.69,6.14,24c6.01-0.68,0.09-33.32-7.79-43.7
				c0,0,14.31-3.96,27.16,0.01c0,0,11.04,21.73,8.29,39.42c-2.75,17.69-0.85,21.95,2.95,21.91c3.8-0.03,11.62-28.26-2.91-62.61
				c0,0,16.79,7.76,25.95,14.03c0,0,6.23,25.14-0.28,39.87c-6.51,14.72-11,20.47-8.04,23.9c2.95,3.43,15.47-10.16,17.43-22.86
				c1.97-12.7,0.18-27.2-1.72-31.23c0,0,21.78,14.6,20.32,31.93c-1.46,17.33-14.46,24.5-19.33,27.45c-4.87,2.96-4.1,6,1.56,5.76
				c5.67-0.24,16.91-6.21,20.78-15.72C231.04,269.25,237.43,307.69,202.47,305.61z"/>
			<g>
				<g>
					<g>
						<path class="st8" d="M93.7,202.35c15.81,17.39,32.05,34.38,48.83,50.84c16.76,16.45,34.05,32.36,51.92,47.59
							c10.05,8.56,20.3,16.9,30.73,25c0.81,0.63,1.96-0.5,1.14-1.14c-18.55-14.4-36.5-29.58-53.88-45.38
							c-17.38-15.8-34.19-32.23-50.51-49.12c-9.18-9.5-18.21-19.15-27.09-28.93C94.14,200.44,93,201.59,93.7,202.35L93.7,202.35z"/>
					</g>
				</g>
				<g>
					<g>
						<path class="st8" d="M158.37,265.84c5.67-17.54,6.43-36.47,2.17-54.41c-1.22-5.12-2.85-10.14-4.84-15.02
							c-0.39-0.95-1.95-0.53-1.56,0.43c6.91,16.93,9.2,35.6,6.28,53.68c-0.82,5.05-2.04,10.02-3.61,14.89
							C156.49,266.4,158.05,266.82,158.37,265.84L158.37,265.84z"/>
					</g>
				</g>
				<g>
					<g>
						<path class="st8" d="M173.55,280.69c16.32-13.3,20.4-35.42,20.22-55.38c-0.06-6.62-0.5-13.23-0.95-19.83
							c-0.07-1.03-1.68-1.04-1.61,0c1.41,20.84,2.77,43.38-8.44,62.01c-2.75,4.58-6.21,8.68-10.36,12.06
							C171.61,280.21,172.75,281.34,173.55,280.69L173.55,280.69z"/>
					</g>
				</g>
				<g>
					<g>
						<path class="st8" d="M91.55,226.62c9.08,4.35,19.19,6.21,29.22,5.29c1.03-0.09,1.04-1.71,0-1.61
							c-9.74,0.9-19.58-0.83-28.41-5.07C91.43,224.78,90.61,226.17,91.55,226.62L91.55,226.62z"/>
					</g>
				</g>
				<g>
					<g>
						<path class="st8" d="M114.14,198.68c3.78,9.71,5.84,20,6.06,30.43c0.02,1.04,1.64,1.04,1.61,0
							c-0.22-10.56-2.28-21.01-6.11-30.85C115.32,197.29,113.76,197.71,114.14,198.68L114.14,198.68z"/>
					</g>
				</g>
				<g>
					<g>
						<path class="st8" d="M98.11,263.71c17.81,4.87,38.25,9.97,55.25-0.25c0.89-0.53,0.08-1.93-0.81-1.39
							c-16.6,9.99-36.63,4.84-54,0.09C97.54,261.88,97.11,263.44,98.11,263.71L98.11,263.71z"/>
					</g>
				</g>
				<g>
					<g>
						<path class="st8" d="M108.2,294.96c16.24,2.59,33.26-1.38,46.79-10.7c3.83-2.63,7.36-5.68,10.51-9.09
							c0.7-0.76-0.43-1.91-1.14-1.14c-10.82,11.71-26.18,18.91-42.07,19.98c-4.56,0.31-9.14,0.12-13.65-0.6
							C107.61,293.24,107.18,294.79,108.2,294.96L108.2,294.96z"/>
					</g>
				</g>
				<g>
					<g>
						<path class="st8" d="M148.15,331.47c5.19-4.93,9.88-10.37,13.98-16.24c4.11-5.88,7.29-12.16,10.43-18.59
							c1.7-3.48,3.65-6.86,6.74-9.29c0.82-0.64-0.33-1.78-1.14-1.14c-5.33,4.19-7.47,11.03-10.5,16.84
							c-3.39,6.47-7.45,12.59-12.13,18.21c-2.66,3.19-5.51,6.22-8.52,9.08C146.25,331.04,147.4,332.18,148.15,331.47L148.15,331.47z
							"/>
					</g>
				</g>
				<g>
					<g>
						<path class="st8" d="M195.82,330.35c2.87-10.2,2.66-21.1-0.61-31.17c-0.32-0.98-1.88-0.56-1.56,0.43
							c3.19,9.81,3.41,20.38,0.61,30.32C193.98,330.93,195.54,331.35,195.82,330.35L195.82,330.35z"/>
					</g>
				</g>
				<g>
					<g>
						<path class="st8" d="M222.96,235.58c0.07,18.65-12.74,33.75-26.29,45.08c-4.08,3.41-8.32,6.62-12.56,9.82
							c-0.82,0.62-0.01,2.02,0.81,1.39c14.79-11.19,30.43-23.25,36.98-41.32c1.74-4.8,2.69-9.86,2.67-14.97
							C224.57,234.54,222.95,234.54,222.96,235.58L222.96,235.58z"/>
					</g>
				</g>
				<g>
					<g>
						<path class="st8" d="M194.36,299.75c13.44,0.04,26.63-4.87,36.8-13.66c0.79-0.68-0.36-1.82-1.14-1.14
							c-9.84,8.51-22.65,13.23-35.66,13.18C193.32,298.13,193.32,299.75,194.36,299.75L194.36,299.75z"/>
					</g>
				</g>
			</g>
		</g>
		<g>
			<path class="st3" d="M270.43,304.21c0,0-13.74,8.96-21.39,1.7c-7.65-7.27-11.14-16.55-11.48-22.09c0,0,31.76,7.41,34.16-3.75
				c2.39-11.16-29.98,2.49-38.54-10.49c-8.56-12.98,15.06-39.42,19.78-42.03c0,0,20.44,38.65,32.21,31.88
				c11.77-6.77-25.05-12.3-20.7-51.59c0,0,12.47-9.7,19.12-11.54c0,0-0.1,48.22,13.17,50.05c13.27,1.84-12.63-28.97-0.58-55.06
				c0,0,11.96-5.15,18.52-6.16c0,0-15.76,42.09-3.07,43.11c12.69,1.02-1.13-25.44,9.69-44.36c0,0,23.36-10.73,49-6.98
				c0,0,7.22,21.17,7.81,36.66c0,0-9.7,12.74-19.81,14.97c-10.12,2.23-26.35,2.8-24.97,9.15c1.38,6.34,35.6-3.5,45.83-13.02
				c0,0,5.77,14.86,2.91,29.01c0,0-22.02,14.13-41.2,13.1c-19.19-1.03-23.53,1.45-23.09,5.51c0.44,4.06,31.44,9.37,66.55-9.85
				c0,0-6.48,18.77-12.19,29.23c0,0-26.18,9.36-42.61,3.99c-16.43-5.37-23.05-9.54-26.4-6.02c-3.35,3.52,12.52,15.42,26.3,16.16
				c13.77,0.73,29.07-2.74,33.17-5.2c0,0-13.25,24.84-31.92,25.14c-18.67,0.3-27.72-12.8-31.4-17.69c-3.68-4.89-6.85-3.74-5.99,2.29
				c0.87,6.03,8.45,17.39,19.02,20.5C312.33,330.8,271.97,341.77,270.43,304.21z"/>
			<g>
				<g>
					<g>
						<path class="st4" d="M369.05,176.85c-16.91,18.81-33.36,38.05-49.18,57.79c-15.75,19.67-30.88,39.83-45.21,60.56
							c-8.07,11.67-15.88,23.52-23.41,35.54c-0.59,0.95,0.9,1.82,1.5,0.87c13.34-21.3,27.57-42.03,42.52-62.23
							c15-20.26,30.73-39.98,47.01-59.23c9.17-10.84,18.51-21.53,28-32.08C371.02,177.25,369.8,176.02,369.05,176.85L369.05,176.85z
							"/>
					</g>
				</g>
				<g>
					<g>
						<path class="st4" d="M308.07,252.8c19.46,4.2,39.9,2.97,58.7-3.62c5.29-1.85,10.42-4.12,15.37-6.75
							c0.99-0.52,0.11-2.02-0.87-1.5c-17.25,9.16-36.83,13.54-56.34,12.43c-5.52-0.31-10.99-1.07-16.39-2.24
							C307.44,250.89,306.98,252.56,308.07,252.8L308.07,252.8z"/>
					</g>
				</g>
				<g>
					<g>
						<path class="st4" d="M293.86,270.58c16.03,16.07,40.15,18.04,61.53,15.67c7.06-0.78,14.08-1.97,21.08-3.16
							c1.1-0.19,0.63-1.86-0.46-1.67c-22.07,3.74-46.02,7.61-67.08-2.4c-5.13-2.44-9.84-5.65-13.85-9.67
							C294.29,268.56,293.07,269.79,293.86,270.58L293.86,270.58z"/>
					</g>
				</g>
				<g>
					<g>
						<path class="st4" d="M342.79,177.36c-3.68,10.17-4.49,21.19-2.42,31.79c0.21,1.09,1.88,0.63,1.67-0.46
							c-2.01-10.31-1.15-21,2.42-30.87C344.84,176.77,343.17,176.32,342.79,177.36L342.79,177.36z"/>
					</g>
				</g>
				<g>
					<g>
						<path class="st4" d="M374.99,198.41c-9.88,5.04-20.62,8.34-31.63,9.68c-1.09,0.13-1.11,1.87,0,1.73
							c11.34-1.38,22.33-4.72,32.51-9.92C376.86,199.4,375.98,197.9,374.99,198.41L374.99,198.41z"/>
					</g>
				</g>
				<g>
					<g>
						<path class="st4" d="M303.95,188.15c-2.65,15.78-5.35,32.49,0.27,47.97c1.43,3.94,3.37,7.66,5.88,11.02
							c0.66,0.88,2.17,0.02,1.5-0.87c-9.3-12.43-9.91-28.59-8.14-43.42c0.57-4.77,1.37-9.5,2.16-14.24
							C305.8,187.52,304.13,187.05,303.95,188.15L303.95,188.15z"/>
					</g>
				</g>
				<g>
					<g>
						<path class="st4" d="M271.64,202.52c-1.02,17.67,5.21,35.44,16.66,48.89c3.21,3.77,6.83,7.14,10.78,10.11
							c0.89,0.67,1.76-0.83,0.87-1.5c-13.72-10.32-22.99-26.11-25.81-43c-0.8-4.79-1.04-9.65-0.76-14.5
							C273.43,201.41,271.7,201.41,271.64,202.52L271.64,202.52z"/>
					</g>
				</g>
				<g>
					<g>
						<path class="st4" d="M236.89,248.91c5.84,5.03,12.17,9.48,18.9,13.24c6.67,3.72,13.66,6.46,20.82,9.07
							c3.92,1.43,7.82,3.14,10.76,6.2c0.77,0.81,2-0.42,1.23-1.23c-5-5.2-12.4-6.77-18.88-9.34c-7.29-2.89-14.27-6.58-20.79-10.94
							c-3.77-2.52-7.38-5.27-10.81-8.24C237.28,246.96,236.05,248.18,236.89,248.91L236.89,248.91z"/>
					</g>
				</g>
				<g>
					<g>
						<path class="st4" d="M243.2,299.75c11.3,1.99,22.94,0.57,33.44-4.05c1.02-0.45,0.14-1.94-0.87-1.5
							c-10.04,4.42-21.31,5.78-32.1,3.88C242.57,297.89,242.1,299.56,243.2,299.75L243.2,299.75z"/>
					</g>
				</g>
				<g>
					<g>
						<path class="st4" d="M347.51,318.54c-20.2,2.12-37.87-10.21-51.55-23.71c-3.93-3.88-7.69-7.92-11.44-11.97
							c-0.76-0.82-1.98,0.41-1.23,1.23c13.46,14.51,27.98,29.84,47.85,34.9c5.34,1.36,10.88,1.86,16.36,1.29
							C348.61,320.15,348.62,318.42,347.51,318.54L347.51,318.54z"/>
					</g>
				</g>
				<g>
					<g>
						<path class="st4" d="M275.8,294.82c1.39,14.35,8,27.95,18.49,37.86c0.81,0.77,2.04-0.46,1.23-1.23
							c-10.14-9.58-16.63-22.74-17.98-36.63C277.43,293.72,275.7,293.71,275.8,294.82L275.8,294.82z"/>
					</g>
				</g>
			</g>
		</g>
	</g>
	<polygon class="st9" points="389.23,306.46 261.26,306.46 238.74,306.46 110.77,306.46 40.08,402.04 238.74,402.04 261.26,402.04 
		459.92,402.04 	"/>
	<g>
		<g>
			<path class="st10" d="M164.84,168.84c0,0-12.59,0.11-18.4,12.25c-2.97,6.2-8.09,24.73-11.71,42.52
				c-7.59,32.33-9.13,89.56-22.52,92.91c-13.48,3.37-25.4,15.18-28.35,25.34c-1.08,3.72,29.84-6.74,29.84-6.74
				s-9.63,10.1-10.59,14.44c-0.96,4.33,21.09-11.76,28.8-17.92c4.23-3.38,8.69-25.38,13.42-47.13c1.44-6.63,3.2-13.18,5.25-19.65
				l19.49-61.3L164.84,168.84z"/>
			<g>
				<g>
					<path class="st11" d="M84.96,339.48c4.48-1.96,9.08-3.65,13.76-5.08c0.64-0.2,0.37-1.21-0.28-1.01
						c-4.77,1.45-9.44,3.19-14.01,5.18C83.81,338.85,84.34,339.75,84.96,339.48L84.96,339.48z"/>
				</g>
			</g>
			<g>
				<g>
					<path class="st11" d="M87.84,334.14c4.25-1.99,8.67-3.57,13.21-4.74c0.65-0.17,0.38-1.18-0.28-1.01
						c-4.63,1.19-9.13,2.82-13.46,4.85C86.7,333.52,87.23,334.43,87.84,334.14L87.84,334.14z"/>
				</g>
			</g>
			<g>
				<g>
					<path class="st11" d="M92.21,328.67c3.96-1.46,7.91-2.93,11.87-4.39c0.63-0.23,0.36-1.25-0.28-1.01
						c-3.96,1.46-7.91,2.93-11.87,4.39C91.3,327.89,91.57,328.91,92.21,328.67L92.21,328.67z"/>
				</g>
			</g>
		</g>
		<path class="st5" d="M160.64,117.64c0,0-7.87-2.27-4.54-13.48c3.34-11.21,26.97-24.2,47.4-17.52
			c20.42,6.68,31.15,41.52,34.05,97.36l-63.81-0.36L160.64,117.64z"/>
		<path class="st12" d="M398.47,347.95c-1.34-3.17-29.65-11.99-37.93-18.61c-0.67-0.54-1.75-1.75-3.17-3.52
			c-15.96-19.88-74.99-110.33-88.72-112.2c-7.24-0.99-15.22,3.4-17.56,4.82c-7.75,2.78-23.55,17.75-23.55,17.75l30.45,44.44
			c0.22-0.32,6.77-9.7,11.23-16.07c1.01,1.93,2.05,3.84,3.12,5.7c2.84,4.95,5.86,9.56,9,13.45c12.92,16,19.93,20.7,22.63,22.05
			c0,0,0.01,0,0.02,0.01c0.79,0.39,1.21,0.5,1.3,0.51c0.01,0.01,0.02,0.01,0.02,0.01s18.26,26.88,26.43,38.94
			c1.9,2.81,3.26,4.82,3.71,5.49c2.36,3.55,4.61,3.08,14.3,1.3c9.69-1.77,13.55,0.76,23.21,1.59
			C382.63,354.45,399.8,351.11,398.47,347.95z"/>
		<path class="st1" d="M372.96,353.61c-9.67-0.83-13.53-3.36-23.22-1.59c-9.69,1.77-11.94,2.25-14.3-1.3
			c-0.45-0.67-1.8-2.68-3.71-5.49c1.61-4.61,4.09-8.22,7.91-8.56c8.46-0.76,15-7.53,17.73-10.85c1.42,1.77,2.5,2.98,3.17,3.52
			c8.28,6.62,36.59,15.44,37.93,18.61C399.8,351.11,382.63,354.45,372.96,353.61z"/>
		<g>
			<g>
				<path class="st12" d="M347.42,339.02c-0.68,19.99-49.53,21.36-72.25,22.04c-22.72,0.68-48.14,1.16-48.14,1.16
					c-7.25-5.75-3.11-21.28-3.11-21.28s0,0-0.01,0c-1.99-0.1-3.1-0.86-3.69-1.5c-0.46-0.51-0.6-0.95-0.6-0.95l29.65-42.87
					C315.84,305.4,348.11,319.03,347.42,339.02z"/>
				<path class="st1" d="M223.92,340.94c-1.99-0.1-3.1-0.86-3.69-1.5C222.73,340.76,223.79,340.93,223.92,340.94z"/>
				<g>
					<g>
						<path class="st13" d="M224.21,342.21c25.55-3.39,48.23-17.21,73.63-21.25c7.39-1.17,14.95-1.44,22.36-0.29
							c0.93,0.14,1.34-1.28,0.39-1.43c-26.26-4.06-50.66,8.69-74.95,16.43c-7,2.23-14.14,4.09-21.43,5.06
							C223.27,340.85,223.26,342.33,224.21,342.21L224.21,342.21z"/>
					</g>
				</g>
			</g>
			<g>
				<path class="st12" d="M163.76,274.25c0,0-4.81,14.03-7.57,23.81c-2.76,9.78-8.02,54.41,28.59,59.18
					c36.61,4.76,76.73-81.25,76.73-81.25l-16.68-52.62L163.76,274.25z"/>
				<g>
					<g>
						<path class="st13" d="M221.08,339.51c11.01-12.35,20.75-25.82,29-40.17c2.37-4.12,4.61-8.31,6.73-12.56
							c0.42-0.85-0.85-1.6-1.28-0.75c-7.36,14.76-16.22,28.77-26.46,41.69c-2.9,3.67-5.92,7.24-9.03,10.74
							C219.4,339.17,220.45,340.22,221.08,339.51L221.08,339.51z"/>
					</g>
				</g>
			</g>
			<g>
				<g>
					<path class="st13" d="M305.16,307.55c8.02,2.38,16.12,4.77,23.55,8.69c6.48,3.41,13.32,8.21,16.73,14.89
						c1.96,3.86,2.39,8.58,0.08,12.38c-0.5,0.82,0.78,1.56,1.28,0.75c4.29-7.06,0.22-15.17-4.99-20.41
						c-5.87-5.9-13.38-9.85-21.08-12.8c-4.97-1.91-10.08-3.42-15.17-4.93C304.64,305.85,304.25,307.28,305.16,307.55L305.16,307.55z
						"/>
				</g>
			</g>
		</g>
		<path class="st10" d="M251.09,218.44c0.08,1.09,0.16,2.17,0.23,3.24c-0.6-1.8-0.92-2.81-0.92-2.81S250.64,218.71,251.09,218.44z"
			/>
		<path class="st14" d="M207.73,163.56l17.49,4.42c0,0,6.5,24.92,8.03,38.93c1.53,14.01-2.04,24.97-2.04,24.97
			s-35.16,31.6-45.1,43.83c0,0-12.34,1.64-22.35-1.47c0,0,1.53-16.15-2.73-31.84c-4.26-15.7-10.54-41.49,3.81-73.56l20.54-2.88
			L207.73,163.56z"/>
		<path class="st1" d="M227.04,362.22c0,0-25.55,2.22-30.76,4.27c-5.2,2.04-26.47,12.91-24.61,4.09
			c1.86-8.82,15.33-17.65,20.15-19.88c4.83-2.23,8.82-11.8,13.19-14.67c4.37-2.88,6.22-2.14,11.61,1.3
			c1.44,0.92,2.63,1.61,3.61,2.12c0.59,0.65,1.69,1.4,3.69,1.5c0.01,0,0.01,0,0.01,0S219.79,356.47,227.04,362.22z"/>
		<g>
			<g>
				<polygon class="st10" points="207.73,163.56 187.52,176.09 180.72,164.07 175.54,154.91 175.44,154.75 196.36,141.13 				"/>
				<polygon class="st11" points="188.43,150.37 180.72,164.07 175.54,154.91 				"/>
			</g>
			<g>
				<polygon class="st11" points="159.44,121.14 153.32,132.57 158.42,135.92 				"/>
				<path class="st10" d="M174.4,96.15c0,0-13.34,3.25-15.22,24.96c-1.88,21.71-0.83,30.38,6.22,33.56
					c7.05,3.18,22.81,1.24,30.96-13.55c0,0,8.43-2.07,9.81-9.81c1.38-7.74-1.73-11.06-5.89-11.27c-4.16-0.21-7.9,2.7-9.25,8.63
					C191.03,128.67,173.78,123.6,174.4,96.15z"/>
				<g>
					<g>
						<path class="st11" d="M200.98,124.91c-2.94,0.49-5.13,2.99-5.35,5.94c-0.02,0.28,0.26,0.52,0.52,0.52
							c0.3,0,0.5-0.24,0.52-0.52c0.19-2.51,2.12-4.52,4.58-4.92c0.28-0.05,0.44-0.39,0.37-0.65
							C201.55,124.98,201.26,124.87,200.98,124.91L200.98,124.91z"/>
					</g>
				</g>
				<g>
					<g>
						<path class="st11" d="M159.06,143.01c3.66-0.14,7.18-1.75,9.66-4.45c0.46-0.5-0.28-1.24-0.74-0.74
							c-2.29,2.5-5.52,4.02-8.92,4.15C158.38,141.99,158.38,143.04,159.06,143.01L159.06,143.01z"/>
					</g>
				</g>
			</g>
		</g>
		<path class="st10" d="M303.97,305.76c-8.41-3.38-53.86-22.13-67.53-37.68c-15.08-17.16-11.21-100.09-11.21-100.09
			c19.27,2.93,24.11,28.17,25.86,50.45c-0.45,0.27-0.69,0.43-0.69,0.43s0.32,1.01,0.92,2.81c0.94,13.88,0.86,26.07,2.64,30.18
			c2.78,6.41,11.59,13.58,18.38,18.4c2.84,4.95,5.86,9.56,9,13.45C294.26,299.71,301.27,304.41,303.97,305.76z"/>
	</g>
</g>
<g id="TEXTS" class="st0">
	<g class="st15">
		<text transform="matrix(1 0 0 1 153.3497 443.2938)" class="st9 st16 st17 st18">international</text>
		<text transform="matrix(1 0 0 1 168.5133 474.0115)" class="st3 st19 st20 st18">yoga day</text>
	</g>
</g>
</svg>
