<?xml version="1.0" encoding="utf-8"?>
<!-- Generator: Adobe Illustrator 27.5.0, SVG Export Plug-In . SVG Version: 6.00 Build 0)  -->
<svg version="1.1" id="Layer_1" xmlns="http://www.w3.org/2000/svg" xmlns:xlink="http://www.w3.org/1999/xlink" x="0px" y="0px"
	 viewBox="0 0 396 288" style="enable-background:new 0 0 396 288;" xml:space="preserve">
<style type="text/css">
	.st0{display:none;fill:#ECF4F7;}
	.st1{display:none;fill:url(#SVGID_1_);}
	.st2{display:none;fill:url(#SVGID_00000122722812660157450340000008245480875475209363_);}
	.st3{fill:url(#SVGID_00000064353852053127028800000012617121379539402641_);}
	.st4{display:none;fill:url(#SVGID_00000052073224124328491200000012807759267480168070_);}
	.st5{display:none;}
	.st6{display:inline;}
	.st7{fill:#D13067;}
	.st8{fill:#FF4081;}
	.st9{fill:#FFFFFF;}
	.st10{fill:#004194;}
	.st11{fill:#0055BB;}
	.st12{fill:#0079F6;}
	.st13{display:inline;fill:#FFFFFF;}
	.st14{fill:#7B4399;}
	.st15{fill:#A95DD2;}
	.st16{fill:#D47FFF;}
	.st17{fill:#FF9A00;}
	.st18{fill:#004E91;}
	.st19{fill:#FFC500;}
	.st20{font-family:'AdobeArabic-Regular';}
	.st21{font-size:21px;}
	.st22{font-size:18px;}
</style>
<g>
	<rect x="-214.79" y="-125.4" class="st0" width="396" height="288"/>
	
		<radialGradient id="SVGID_1_" cx="-121.9293" cy="287.2284" r="72.9976" gradientTransform="matrix(1 0 0 0.7018 0 -222.7201)" gradientUnits="userSpaceOnUse">
		<stop  offset="0.4244" style="stop-color:#B0CCD6"/>
		<stop  offset="0.581" style="stop-color:#D0E1E7"/>
		<stop  offset="0.7409" style="stop-color:#EAF1F4"/>
		<stop  offset="0.8855" style="stop-color:#FAFBFC"/>
		<stop  offset="1" style="stop-color:#FFFFFF"/>
	</radialGradient>
	<ellipse class="st1" cx="-121.93" cy="-21.14" rx="73" ry="51.23"/>
	
		<radialGradient id="SVGID_00000152257745082301743100000009561746693541514903_" cx="-109.9293" cy="464.6293" r="72.9976" gradientTransform="matrix(1 0 0 0.7018 0 -222.7201)" gradientUnits="userSpaceOnUse">
		<stop  offset="0.4244" style="stop-color:#B0CCD6"/>
		<stop  offset="0.581" style="stop-color:#D0E1E7"/>
		<stop  offset="0.7409" style="stop-color:#EAF1F4"/>
		<stop  offset="0.8855" style="stop-color:#FAFBFC"/>
		<stop  offset="1" style="stop-color:#FFFFFF"/>
	</radialGradient>
	
		<ellipse style="display:none;fill:url(#SVGID_00000152257745082301743100000009561746693541514903_);" cx="-109.93" cy="103.36" rx="73" ry="51.23"/>
	
		<radialGradient id="SVGID_00000026147943435084393270000017775390133198580892_" cx="-43.8001" cy="460.0632" r="72.9994" gradientTransform="matrix(0.9305 0 0 0.7018 109.7793 -222.7201)" gradientUnits="userSpaceOnUse">
		<stop  offset="0.4244" style="stop-color:#B0CCD6"/>
		<stop  offset="0.581" style="stop-color:#D0E1E7"/>
		<stop  offset="0.7409" style="stop-color:#EAF1F4"/>
		<stop  offset="0.8855" style="stop-color:#FAFBFC"/>
		<stop  offset="1" style="stop-color:#FFFFFF"/>
	</radialGradient>
	
		<ellipse style="fill:url(#SVGID_00000026147943435084393270000017775390133198580892_);" cx="69.02" cy="100.15" rx="67.93" ry="51.23"/>
	
		<radialGradient id="SVGID_00000126290108537516090850000004471998881040472495_" cx="463.9564" cy="639.7388" r="73.0027" gradientTransform="matrix(1.4033 0 0 0.5048 -594.5581 -357.7084)" gradientUnits="userSpaceOnUse">
		<stop  offset="0.4244" style="stop-color:#B0CCD6"/>
		<stop  offset="0.581" style="stop-color:#D0E1E7"/>
		<stop  offset="0.7409" style="stop-color:#EAF1F4"/>
		<stop  offset="0.8855" style="stop-color:#FAFBFC"/>
		<stop  offset="1" style="stop-color:#FFFFFF"/>
	</radialGradient>
	
		<ellipse style="display:none;fill:url(#SVGID_00000126290108537516090850000004471998881040472495_);" cx="56.51" cy="-34.77" rx="102.44" ry="36.85"/>
	<g class="st5">
		<g class="st6">
			<g>
				<polygon class="st7" points="-67.92,6.35 -99.19,25.35 -100.78,-14.42 				"/>
				<polygon class="st8" points="-67.92,6.35 -170.8,6.14 -173.15,-95.63 -70.27,-95.41 				"/>
			</g>
			<g>
				<path class="st9" d="M-151.76-55.25c-4.49,0-6.84-2.56-7.07-7.67l4.04-0.83c0.1,3.32,1.07,4.99,2.89,4.99
					c0.71,0,1.23-0.21,1.57-0.64c0.34-0.42,0.51-1,0.51-1.71c0-0.7-0.13-1.34-0.38-1.92c-0.26-0.58-0.55-1.06-0.89-1.42
					c-0.34-0.37-0.82-0.83-1.44-1.37l-3.35-2.86c-0.98-0.85-1.71-1.73-2.2-2.64c-0.48-0.91-0.72-2.06-0.72-3.43
					c0-1.95,0.58-3.46,1.74-4.55c1.16-1.08,2.76-1.63,4.79-1.65c0.93-0.01,1.76,0.1,2.47,0.34c0.72,0.24,1.31,0.56,1.77,0.95
					c0.47,0.4,0.85,0.9,1.17,1.49c0.31,0.6,0.55,1.21,0.7,1.86c0.15,0.64,0.26,1.36,0.32,2.14l-3.96,0.77
					c-0.02-0.5-0.05-0.94-0.1-1.32c-0.05-0.37-0.12-0.75-0.24-1.14c-0.11-0.38-0.26-0.69-0.44-0.93c-0.18-0.24-0.42-0.43-0.72-0.57
					c-0.3-0.14-0.65-0.2-1.05-0.17c-0.69,0.04-1.21,0.26-1.57,0.67c-0.36,0.41-0.55,0.96-0.55,1.64c0,0.81,0.16,1.47,0.48,1.99
					c0.32,0.52,0.83,1.08,1.51,1.67l3.32,2.85c0.55,0.5,1.04,0.98,1.44,1.44c0.41,0.46,0.8,1,1.17,1.59
					c0.37,0.6,0.66,1.25,0.85,1.97c0.19,0.72,0.29,1.47,0.29,2.27c0,1.83-0.59,3.31-1.76,4.46
					C-148.31-55.82-149.85-55.25-151.76-55.25z"/>
				<path class="st9" d="M-135.85-55.25c-1.14,0-2.12-0.13-2.96-0.39c-0.84-0.26-1.52-0.63-2.06-1.11
					c-0.54-0.47-0.97-1.08-1.29-1.83c-0.32-0.74-0.55-1.55-0.68-2.41c-0.13-0.86-0.19-1.87-0.19-3.01v-16.68h4.5v17.15
					c0,0.59,0.02,1.09,0.05,1.5c0.03,0.41,0.1,0.85,0.2,1.3c0.1,0.45,0.25,0.82,0.44,1.09c0.19,0.27,0.45,0.5,0.78,0.68
					c0.33,0.18,0.73,0.27,1.21,0.27c0.47,0,0.87-0.09,1.21-0.27c0.33-0.18,0.59-0.41,0.77-0.68c0.18-0.27,0.32-0.64,0.43-1.09
					c0.11-0.46,0.17-0.89,0.2-1.3c0.03-0.41,0.04-0.91,0.04-1.51v-17.15h4.5V-64c0,1.14-0.06,2.14-0.19,3.01
					c-0.13,0.86-0.35,1.67-0.68,2.41c-0.32,0.74-0.75,1.35-1.28,1.83c-0.53,0.48-1.22,0.84-2.05,1.11
					C-133.74-55.38-134.72-55.25-135.85-55.25z"/>
				<path class="st9" d="M-125.25-55.56v-25.12h7.33c4.34,0,6.51,2.38,6.51,7.14c0,2.33-0.59,4.04-1.78,5.13
					c-1.19,1.09-2.86,1.63-5.02,1.63h-2.4v11.23H-125.25z M-120.61-70h1.49c1.31,0,2.2-0.25,2.66-0.77
					c0.46-0.51,0.69-1.45,0.69-2.81c0-0.78-0.03-1.38-0.09-1.8c-0.06-0.42-0.21-0.81-0.43-1.16c-0.23-0.35-0.56-0.59-1.01-0.72
					c-0.45-0.13-1.05-0.2-1.8-0.2h-1.51V-70z"/>
				<path class="st9" d="M-109.09-55.56v-25.12h10.66v3.23h-6.02v7.21h4.76v3.23h-4.76v8.29h6.1v3.17H-109.09z"/>
				<path class="st9" d="M-95.84-55.56v-25.12H-90c1.34,0,2.49,0.11,3.46,0.33c0.96,0.22,1.8,0.58,2.51,1.09
					c0.71,0.51,1.24,1.2,1.6,2.08c0.35,0.87,0.53,1.94,0.53,3.21c0,1.58-0.24,2.86-0.71,3.86c-0.48,1-1.26,1.73-2.36,2.18
					l3.53,12.38h-4.65l-3.04-11.47h-2.06v11.47H-95.84z M-91.2-69.95h1.12c1.37,0,2.35-0.29,2.93-0.86
					c0.58-0.58,0.87-1.56,0.87-2.96c0-1.34-0.25-2.31-0.75-2.89c-0.5-0.58-1.42-0.87-2.76-0.87h-1.4V-69.95z"/>
			</g>
			<g>
				<path class="st9" d="M-150.31-11.53c-6.37,0-9.71-3.63-10.03-10.88l5.74-1.18c0.15,4.72,1.51,7.08,4.1,7.08
					c1,0,1.75-0.3,2.24-0.9c0.49-0.6,0.73-1.41,0.73-2.43c0-0.99-0.18-1.9-0.54-2.72c-0.36-0.82-0.79-1.5-1.27-2.02
					c-0.48-0.52-1.16-1.17-2.05-1.95l-4.75-4.07c-1.4-1.2-2.43-2.45-3.12-3.75c-0.68-1.3-1.02-2.92-1.02-4.87
					c0-2.77,0.82-4.92,2.47-6.45s3.91-2.32,6.79-2.34c1.32-0.01,2.49,0.15,3.51,0.48c1.02,0.34,1.86,0.79,2.52,1.35
					c0.66,0.57,1.21,1.27,1.66,2.12c0.44,0.85,0.77,1.72,0.99,2.63c0.22,0.91,0.37,1.92,0.46,3.04l-5.63,1.1
					c-0.03-0.72-0.08-1.34-0.14-1.87s-0.18-1.07-0.34-1.61s-0.37-0.99-0.62-1.32c-0.25-0.34-0.6-0.61-1.03-0.81
					c-0.43-0.2-0.93-0.28-1.49-0.24c-0.97,0.06-1.72,0.38-2.23,0.96c-0.52,0.58-0.77,1.36-0.77,2.33c0,1.15,0.23,2.09,0.69,2.83
					c0.46,0.74,1.17,1.53,2.15,2.38l4.71,4.04c0.79,0.7,1.47,1.38,2.05,2.04c0.58,0.66,1.14,1.41,1.67,2.26
					c0.53,0.85,0.93,1.78,1.21,2.8c0.28,1.02,0.41,2.09,0.41,3.23c0,2.6-0.83,4.7-2.5,6.32C-145.43-12.34-147.61-11.53-150.31-11.53
					z"/>
				<path class="st9" d="M-139.5-11.96l7.35-35.66h6.87l7.33,35.66h-6.13l-1.46-8.28h-6.26l-1.48,8.28H-139.5z M-131.11-24.48h4.84
					l-2.42-14.65L-131.11-24.48z"/>
				<path class="st9" d="M-114.63-11.96v-35.66h6.59v31.17h8.66v4.5H-114.63z"/>
				<path class="st9" d="M-96.12-11.96v-35.66h15.13v4.58h-8.55v10.24h6.76v4.58h-6.76v11.77h8.66v4.5H-96.12z"/>
			</g>
		</g>
		<g class="st6">
			<path class="st8" d="M-177.64-72.69c-0.28,0-0.5-0.22-0.5-0.5v-27.55c0-0.27,0.22-0.5,0.49-0.5l30.45-0.41
				c0.27-0.01,0.5,0.22,0.51,0.49c0,0.28-0.22,0.5-0.49,0.51l-29.96,0.41v27.06C-177.14-72.91-177.36-72.69-177.64-72.69z"/>
		</g>
		<g class="st6">
			<path class="st8" d="M-182.71-86.77C-182.72-86.77-182.72-86.77-182.71-86.77c-0.28,0-0.5-0.23-0.5-0.51l0.21-18.23
				c0-0.27,0.22-0.49,0.49-0.49l21.44-0.52c0.26-0.01,0.51,0.21,0.51,0.49c0.01,0.28-0.21,0.5-0.49,0.51l-20.96,0.51l-0.2,17.75
				C-182.22-86.99-182.44-86.77-182.71-86.77z"/>
		</g>
		<g class="st6">
			<path class="st8" d="M-165.85,11.51c-0.27,0-0.5-0.22-0.5-0.5c0-0.28,0.22-0.5,0.5-0.5l41.16-0.28c0,0,0,0,0,0
				c0.27,0,0.5,0.22,0.5,0.5c0,0.28-0.22,0.5-0.5,0.5L-165.85,11.51C-165.85,11.51-165.85,11.51-165.85,11.51z"/>
		</g>
		<g class="st6">
			<path class="st8" d="M-150.78,16.05c-0.28,0-0.5-0.22-0.5-0.5c0-0.28,0.22-0.5,0.5-0.5l29-0.14c0,0,0,0,0,0
				c0.28,0,0.5,0.22,0.5,0.5c0,0.28-0.22,0.5-0.5,0.5L-150.78,16.05C-150.77,16.05-150.78,16.05-150.78,16.05z"/>
		</g>
	</g>
	<g>
		<g>
			<g>
				<polygon class="st10" points="64.51,141.1 109.62,151.4 81.54,127.49 				"/>
				<polygon class="st11" points="122.01,117.78 64.51,141.1 68.54,113.87 				"/>
				<polygon class="st12" points="125.53,10.4 122.01,117.78 25.9,119.75 13.46,13.94 				"/>
			</g>
			<g class="st5">
				<path class="st13" d="M38.27,63.16c-6.88,0-10.5-3.92-10.85-11.77l6.2-1.28c0.16,5.1,1.63,7.65,4.43,7.65
					c1.08,0,1.89-0.33,2.42-0.98c0.53-0.65,0.79-1.53,0.79-2.63c0-1.07-0.2-2.05-0.59-2.94c-0.39-0.89-0.85-1.62-1.37-2.19
					c-0.52-0.57-1.26-1.27-2.22-2.11l-5.14-4.4c-1.51-1.3-2.63-2.66-3.37-4.06c-0.74-1.4-1.11-3.16-1.11-5.27
					c0-2.99,0.89-5.32,2.68-6.98c1.78-1.66,4.23-2.5,7.35-2.54c1.43-0.02,2.7,0.16,3.8,0.52c1.1,0.36,2.01,0.85,2.72,1.46
					c0.71,0.61,1.31,1.38,1.79,2.29c0.48,0.91,0.84,1.87,1.07,2.85c0.24,0.99,0.4,2.08,0.5,3.29l-6.08,1.19
					c-0.03-0.78-0.08-1.45-0.15-2.02c-0.07-0.57-0.19-1.16-0.37-1.75c-0.17-0.59-0.4-1.07-0.67-1.43c-0.28-0.36-0.64-0.66-1.11-0.87
					c-0.46-0.22-1-0.3-1.62-0.26c-1.05,0.06-1.86,0.41-2.42,1.04c-0.56,0.63-0.84,1.47-0.84,2.52c0,1.24,0.25,2.26,0.74,3.06
					c0.5,0.8,1.27,1.66,2.32,2.57l5.09,4.37c0.85,0.76,1.59,1.5,2.22,2.21c0.63,0.71,1.23,1.53,1.8,2.44
					c0.57,0.92,1.01,1.92,1.31,3.02c0.3,1.1,0.45,2.26,0.45,3.49c0,2.81-0.9,5.09-2.7,6.84C43.55,62.28,41.19,63.16,38.27,63.16z"/>
				<path class="st13" d="M49.96,62.69l7.95-38.57h7.43l7.92,38.57h-6.63l-1.58-8.95h-6.77l-1.6,8.95H49.96z M59.04,49.16h5.24
					l-2.62-15.84L59.04,49.16z"/>
				<path class="st13" d="M76.86,62.69V24.13h7.12v33.7h9.36v4.86H76.86z"/>
				<path class="st13" d="M96.87,62.69V24.13h16.37v4.96h-9.24v11.07h7.31v4.95h-7.31v12.72h9.36v4.86H96.87z"/>
			</g>
			<g class="st5">
				<path class="st13" d="M47.69,87.68c-2.63,0-4.01-1.5-4.14-4.49l2.37-0.49c0.06,1.95,0.62,2.92,1.69,2.92
					c0.41,0,0.72-0.12,0.92-0.37c0.2-0.25,0.3-0.58,0.3-1c0-0.41-0.08-0.78-0.23-1.12c-0.15-0.34-0.32-0.62-0.52-0.83
					c-0.2-0.22-0.48-0.48-0.85-0.8l-1.96-1.68c-0.58-0.5-1-1.01-1.29-1.55c-0.28-0.54-0.42-1.21-0.42-2.01
					c0-1.14,0.34-2.03,1.02-2.66c0.68-0.63,1.61-0.96,2.8-0.97c0.54-0.01,1.03,0.06,1.45,0.2c0.42,0.14,0.77,0.33,1.04,0.56
					c0.27,0.23,0.5,0.53,0.68,0.87c0.18,0.35,0.32,0.71,0.41,1.09c0.09,0.38,0.15,0.79,0.19,1.26l-2.32,0.45
					c-0.01-0.3-0.03-0.55-0.06-0.77c-0.03-0.22-0.07-0.44-0.14-0.67c-0.07-0.22-0.15-0.41-0.26-0.54c-0.11-0.14-0.25-0.25-0.42-0.33
					c-0.18-0.08-0.38-0.12-0.62-0.1c-0.4,0.02-0.71,0.16-0.92,0.39c-0.21,0.24-0.32,0.56-0.32,0.96c0,0.47,0.09,0.86,0.28,1.17
					c0.19,0.3,0.48,0.63,0.89,0.98l1.94,1.67c0.32,0.29,0.61,0.57,0.85,0.84c0.24,0.27,0.47,0.58,0.69,0.93
					c0.22,0.35,0.38,0.73,0.5,1.15c0.11,0.42,0.17,0.86,0.17,1.33c0,1.07-0.34,1.94-1.03,2.61C49.71,87.34,48.81,87.68,47.69,87.68z
					"/>
				<path class="st13" d="M52.93,87.5V72.79h4.29c2.54,0,3.82,1.39,3.82,4.18c0,1.37-0.35,2.37-1.04,3
					c-0.7,0.64-1.68,0.95-2.94,0.95h-1.4v6.58H52.93z M55.64,79.04h0.87c0.77,0,1.29-0.15,1.56-0.45c0.27-0.3,0.41-0.85,0.41-1.65
					c0-0.46-0.02-0.81-0.05-1.06c-0.04-0.25-0.12-0.47-0.25-0.68c-0.13-0.2-0.33-0.34-0.59-0.42c-0.26-0.08-0.61-0.12-1.06-0.12
					h-0.88V79.04z"/>
				<path class="st13" d="M62.39,87.5V72.79h6.24v1.89h-3.53v4.22h2.79v1.89h-2.79v4.85h3.57v1.85H62.39z"/>
				<path class="st13" d="M74.16,87.68c-0.64,0-1.21-0.08-1.7-0.24c-0.49-0.16-0.9-0.38-1.22-0.67c-0.32-0.28-0.58-0.64-0.78-1.06
					c-0.2-0.42-0.34-0.87-0.42-1.35c-0.08-0.48-0.12-1.03-0.12-1.63v-5.13c0-0.64,0.04-1.21,0.13-1.7c0.08-0.49,0.22-0.95,0.42-1.38
					c0.2-0.42,0.46-0.77,0.78-1.04c0.32-0.27,0.73-0.48,1.21-0.64c0.49-0.15,1.06-0.23,1.71-0.23c0.74,0,1.38,0.1,1.91,0.29
					c0.53,0.2,0.94,0.48,1.25,0.86c0.31,0.38,0.53,0.82,0.67,1.33c0.14,0.51,0.21,1.1,0.21,1.77v1.26h-2.62v-1.25
					c0-0.73-0.04-1.23-0.12-1.48c-0.16-0.5-0.54-0.76-1.14-0.8c-0.05,0-0.1,0-0.14,0c-0.23,0-0.43,0.03-0.6,0.08
					c-0.17,0.05-0.31,0.14-0.42,0.25c-0.11,0.12-0.19,0.24-0.26,0.37c-0.07,0.13-0.12,0.3-0.15,0.51s-0.05,0.4-0.06,0.58
					c-0.01,0.18-0.01,0.4-0.01,0.67v6.23c0,0.86,0.11,1.48,0.33,1.85c0.22,0.37,0.61,0.55,1.17,0.55c0.19,0,0.36-0.02,0.51-0.07
					c0.15-0.04,0.27-0.1,0.37-0.17c0.1-0.07,0.18-0.17,0.25-0.29c0.07-0.13,0.12-0.25,0.16-0.36c0.04-0.11,0.06-0.26,0.08-0.46
					c0.02-0.2,0.03-0.36,0.03-0.5c0-0.14,0-0.32,0-0.56v-1.31h2.62v1.21c0,0.55-0.04,1.04-0.12,1.48c-0.08,0.44-0.21,0.85-0.4,1.23
					c-0.19,0.38-0.43,0.7-0.73,0.96c-0.3,0.25-0.68,0.45-1.15,0.6C75.32,87.61,74.77,87.68,74.16,87.68z"/>
				<path class="st13" d="M80.05,87.5V72.79h2.68V87.5H80.05z"/>
				<path class="st13" d="M84.17,87.5l3.03-14.71h2.83l3.02,14.71h-2.53l-0.6-3.42h-2.58l-0.61,3.42H84.17z M87.63,82.34h2l-1-6.04
					L87.63,82.34z"/>
				<path class="st13" d="M94.43,87.5V72.79h2.72v12.86h3.57v1.85H94.43z"/>
				<path class="st13" d="M55.52,106.41c-1.54,0-2.64-0.41-3.3-1.23c-0.67-0.82-1-2.03-1-3.61v-5.43c0-0.78,0.07-1.46,0.22-2.03
					c0.15-0.57,0.39-1.07,0.72-1.49s0.78-0.74,1.34-0.95c0.56-0.21,1.23-0.32,2.02-0.32c1.53,0,2.63,0.41,3.3,1.22
					c0.67,0.81,1,2,1,3.57v5.43c0,0.77-0.08,1.44-0.23,2.03c-0.15,0.58-0.4,1.09-0.73,1.52c-0.33,0.43-0.78,0.75-1.34,0.97
					C56.97,106.3,56.3,106.41,55.52,106.41z M54.84,104.31c0.19,0.08,0.42,0.12,0.68,0.12c0.26,0,0.49-0.04,0.67-0.12
					c0.19-0.08,0.33-0.18,0.45-0.3c0.11-0.12,0.2-0.29,0.26-0.49c0.06-0.2,0.1-0.4,0.13-0.6c0.02-0.2,0.03-0.44,0.03-0.72v-6.68
					c0-0.36-0.02-0.65-0.05-0.89c-0.04-0.24-0.11-0.46-0.21-0.67c-0.1-0.21-0.26-0.37-0.47-0.47c-0.21-0.1-0.48-0.16-0.8-0.16
					c-0.32,0-0.59,0.05-0.81,0.16c-0.21,0.1-0.37,0.26-0.47,0.47c-0.1,0.21-0.17,0.43-0.21,0.67c-0.04,0.24-0.05,0.53-0.05,0.89
					v6.68c0,0.28,0.01,0.52,0.03,0.72c0.02,0.2,0.06,0.4,0.13,0.6c0.06,0.2,0.15,0.36,0.26,0.49
					C54.5,104.13,54.65,104.23,54.84,104.31z"/>
				<path class="st13" d="M61.71,106.24V91.52h6.13v1.85h-3.41v4.28h2.73v1.89h-2.73v6.69H61.71z"/>
				<path class="st13" d="M69.18,106.24V91.52h6.13v1.85H71.9v4.28h2.73v1.89H71.9v6.69H69.18z"/>
				<path class="st13" d="M76.64,106.24V91.52h6.24v1.89h-3.53v4.22h2.79v1.89h-2.79v4.85h3.57v1.86H76.64z"/>
				<path class="st13" d="M84.41,106.24V91.52h3.42c0.79,0,1.46,0.06,2.02,0.19c0.56,0.13,1.05,0.34,1.47,0.64
					c0.42,0.3,0.73,0.7,0.94,1.22c0.21,0.51,0.31,1.14,0.31,1.88c0,0.92-0.14,1.68-0.42,2.26c-0.28,0.59-0.74,1.01-1.38,1.28
					l2.07,7.25h-2.73l-1.78-6.72h-1.21v6.72H84.41z M87.13,97.8h0.66c0.8,0,1.38-0.17,1.71-0.51c0.34-0.34,0.51-0.91,0.51-1.73
					c0-0.79-0.15-1.35-0.44-1.69c-0.29-0.34-0.83-0.51-1.62-0.51h-0.82V97.8z"/>
			</g>
		</g>
		<g>
			<path class="st12" d="M10.14,34.72c-0.25,0-0.47-0.19-0.5-0.45L7.16,9C7.15,8.86,7.19,8.72,7.28,8.62
				c0.09-0.1,0.22-0.17,0.36-0.17l26.52-1.04c0.27-0.01,0.51,0.2,0.52,0.48c0.01,0.28-0.2,0.51-0.48,0.52L8.21,9.43l2.43,24.75
				c0.03,0.27-0.17,0.52-0.45,0.55C10.18,34.72,10.16,34.72,10.14,34.72z"/>
		</g>
		<g>
			<path class="st12" d="M3.93,21.26c-0.26,0-0.48-0.2-0.5-0.47L2.39,5.36C2.39,5.22,2.43,5.09,2.52,4.99
				c0.09-0.1,0.21-0.16,0.35-0.17l13.88-0.83c0.27-0.04,0.51,0.19,0.53,0.47c0.02,0.28-0.19,0.51-0.47,0.53L3.43,5.79l1,14.93
				c0.02,0.28-0.19,0.51-0.47,0.53C3.95,21.26,3.94,21.26,3.93,21.26z"/>
		</g>
		<g>
			<path class="st11" d="M59.55,137.78c-0.02,0-0.04,0-0.06,0c-0.27-0.04-0.47-0.29-0.43-0.56l1.69-13.2l-17.45,0.3
				c-0.27,0.02-0.5-0.21-0.51-0.49c0-0.28,0.22-0.5,0.49-0.51l18.02-0.31c0.13,0.01,0.28,0.06,0.38,0.17
				c0.1,0.11,0.14,0.25,0.12,0.4l-1.76,13.78C60.02,137.6,59.8,137.78,59.55,137.78z"/>
		</g>
	</g>
	<g class="st5">
		<g class="st6">
			<g>
				<polygon class="st14" points="-113.16,141.88 -149.26,141.88 -140.56,121.98 				"/>
				<polygon class="st15" points="-171.48,114.61 -113.16,141.88 -113.16,102.09 				"/>
				<polygon class="st16" points="-166.43,40.44 -42.1,38.04 -41.03,112.18 -171.48,114.61 				"/>
			</g>
			<g>
				<path class="st9" d="M-138.08,96.81c-7.38,0-11.25-4.2-11.62-12.61l6.64-1.37c0.17,5.46,1.75,8.2,4.75,8.2
					c1.16,0,2.02-0.35,2.59-1.05c0.56-0.7,0.85-1.64,0.85-2.82c0-1.15-0.21-2.2-0.63-3.15s-0.91-1.74-1.46-2.34
					c-0.56-0.61-1.35-1.36-2.37-2.25l-5.51-4.71c-1.62-1.4-2.82-2.84-3.61-4.35c-0.79-1.5-1.19-3.38-1.19-5.64
					c0-3.21,0.96-5.7,2.87-7.47c1.91-1.78,4.53-2.68,7.87-2.72c1.53-0.02,2.89,0.17,4.07,0.56c1.18,0.39,2.15,0.91,2.92,1.57
					c0.77,0.66,1.41,1.47,1.92,2.45c0.51,0.98,0.9,2,1.15,3.05c0.25,1.05,0.43,2.23,0.53,3.53l-6.52,1.27
					c-0.03-0.83-0.09-1.55-0.16-2.17c-0.08-0.61-0.21-1.24-0.39-1.87c-0.19-0.63-0.43-1.14-0.72-1.53c-0.29-0.39-0.69-0.7-1.19-0.93
					c-0.5-0.23-1.07-0.32-1.73-0.27c-1.13,0.07-1.99,0.44-2.59,1.11c-0.6,0.67-0.9,1.57-0.9,2.7c0,1.33,0.27,2.42,0.8,3.28
					c0.53,0.86,1.36,1.77,2.49,2.75l5.46,4.68c0.91,0.81,1.7,1.6,2.38,2.37c0.67,0.76,1.32,1.64,1.93,2.62
					c0.61,0.98,1.08,2.06,1.4,3.24c0.32,1.18,0.48,2.42,0.48,3.74c0,3.01-0.96,5.45-2.89,7.33
					C-132.41,95.87-134.94,96.81-138.08,96.81z"/>
				<path class="st9" d="M-125.55,96.31l8.51-41.31h7.96l8.49,41.31h-7.1l-1.69-9.59h-7.25l-1.72,9.59H-125.55z M-115.83,81.81h5.61
					l-2.8-16.97L-115.83,81.81z"/>
				<path class="st9" d="M-96.74,96.31V55h7.63V91.1h10.03v5.21H-96.74z"/>
				<path class="st9" d="M-75.3,96.31V55h17.53v5.31h-9.9v11.86h7.83v5.31h-7.83V91.1h10.03v5.21H-75.3z"/>
			</g>
		</g>
		<g class="st6">
			<path class="st16" d="M-36.4,65c-0.27,0-0.49-0.21-0.5-0.49l-0.9-31.69l-49.79,0.72c0,0,0,0-0.01,0c-0.27,0-0.5-0.22-0.5-0.49
				c0-0.28,0.22-0.5,0.49-0.51l50.28-0.73c0,0,0.01,0,0.01,0c0.27,0,0.49,0.21,0.5,0.49l0.91,32.18c0.01,0.28-0.21,0.51-0.49,0.51
				C-36.39,65-36.39,65-36.4,65z"/>
		</g>
		<g class="st6">
			<path class="st16" d="M-31.65,46.5c-0.27,0-0.49-0.21-0.5-0.49l-0.53-18.31l-27.12,0.18c0,0,0,0,0,0c-0.27,0-0.5-0.22-0.5-0.5
				c0-0.28,0.22-0.5,0.5-0.5l27.61-0.18c0,0,0,0,0,0c0.27,0,0.49,0.21,0.5,0.49l0.55,18.8c0.01,0.28-0.21,0.51-0.49,0.51
				C-31.64,46.5-31.64,46.5-31.65,46.5z"/>
		</g>
		<g class="st6">
			<path class="st15" d="M-108.81,136.92C-108.81,136.92-108.81,136.92-108.81,136.92c-0.28,0-0.5-0.23-0.5-0.51l0.24-19.02
				c0-0.27,0.22-0.49,0.5-0.49l32.79-0.24c0.27-0.04,0.5,0.22,0.5,0.5c0,0.28-0.22,0.5-0.5,0.5l-32.3,0.24l-0.24,18.53
				C-108.31,136.7-108.53,136.92-108.81,136.92z"/>
		</g>
	</g>
	<g class="st5">
		<g class="st6">
			<g>
				<polygon class="st17" points="101.72,-78.09 -33.89,-83.63 -30.77,-17.26 142.99,-17.1 				"/>
				<polygon class="st18" points="75.13,-34.74 142.99,-17.1 136.36,-56.98 72.36,-62.59 				"/>
				<polygon class="st19" points="145.93,-89.81 67.86,-93.47 75.13,-34.74 148.54,-36.71 170.74,-61.07 				"/>
			</g>
			<g>
				<g>
					<path class="st18" d="M89.69-42.61l3.21-23.22h-7.16l-0.31-3.52h11.72l0.24,2.69l-3.2,24.05H89.69z"/>
					<path class="st18" d="M114.33-44.37c-1.08,1.42-2.76,2.13-5.04,2.13c-2.28,0-4.08-0.71-5.42-2.13
						c-1.34-1.42-2.11-3.31-2.32-5.68L100.5-61.8c-0.22-2.44,0.2-4.36,1.24-5.77c1.05-1.4,2.75-2.1,5.1-2.1
						c2.33,0,4.15,0.7,5.46,2.11c1.31,1.41,2.07,3.33,2.29,5.76l1.05,11.76C115.85-47.68,115.42-45.78,114.33-44.37z M108.94-46.17
						c1.57,0,2.24-1.31,2-3.93l-1.04-11.61c-0.03-0.34-0.07-0.66-0.12-0.94c-0.05-0.29-0.11-0.59-0.19-0.91
						c-0.08-0.32-0.18-0.6-0.32-0.85c-0.14-0.24-0.29-0.47-0.48-0.68c-0.18-0.21-0.41-0.37-0.69-0.48
						c-0.28-0.11-0.58-0.16-0.92-0.16c-0.4,0-0.75,0.08-1.03,0.25c-0.29,0.17-0.5,0.37-0.64,0.62c-0.14,0.25-0.24,0.56-0.3,0.94
						c-0.06,0.38-0.09,0.74-0.08,1.07c0,0.33,0.02,0.71,0.06,1.14l1.04,11.61C106.47-47.48,107.37-46.17,108.94-46.17z"/>
					<path class="st18" d="M120.22-60.6c-1.2,0-2.1-0.33-2.71-1c-0.61-0.66-0.97-1.65-1.08-2.95l-0.07-0.83
						c-0.12-1.33,0.06-2.31,0.53-2.94s1.33-0.94,2.56-0.94s2.15,0.31,2.74,0.92c0.59,0.61,0.95,1.58,1.06,2.89l0.08,0.95
						c0.12,1.3-0.07,2.28-0.56,2.93C122.28-60.93,121.43-60.6,120.22-60.6z M120.06-62.42c0.2,0,0.36-0.04,0.5-0.11
						c0.14-0.08,0.24-0.17,0.31-0.29c0.07-0.12,0.12-0.27,0.15-0.46c0.03-0.19,0.04-0.39,0.04-0.58c0-0.19-0.02-0.42-0.04-0.69
						l-0.08-0.85c-0.03-0.28-0.05-0.51-0.08-0.69c-0.03-0.18-0.07-0.36-0.13-0.54c-0.06-0.18-0.13-0.32-0.22-0.43
						c-0.09-0.1-0.21-0.19-0.36-0.25c-0.15-0.06-0.32-0.09-0.53-0.09c-0.2,0-0.37,0.03-0.51,0.1c-0.14,0.07-0.24,0.15-0.31,0.25
						c-0.07,0.1-0.12,0.25-0.14,0.43c-0.02,0.19-0.04,0.37-0.03,0.55c0,0.17,0.02,0.4,0.04,0.69l0.08,0.86
						c0.03,0.34,0.07,0.62,0.11,0.85s0.12,0.44,0.21,0.65c0.09,0.21,0.22,0.37,0.39,0.46C119.61-62.47,119.81-62.42,120.06-62.42z
						 M122.9-53.61l3.07-15.59h1.88l-3.07,15.59H122.9z M131.29-53.54c-1.2,0-2.11-0.33-2.71-1c-0.61-0.66-0.97-1.65-1.08-2.95
						l-0.07-0.83c-0.12-1.33,0.06-2.31,0.53-2.94c0.47-0.63,1.33-0.95,2.56-0.95c1.23,0,2.14,0.31,2.74,0.92
						c0.59,0.61,0.95,1.57,1.06,2.88l0.09,0.96c0.12,1.3-0.07,2.28-0.56,2.93C133.35-53.86,132.5-53.54,131.29-53.54z M131.12-55.37
						c0.2,0,0.37-0.04,0.5-0.11s0.24-0.17,0.31-0.29c0.07-0.12,0.12-0.27,0.15-0.46c0.03-0.19,0.04-0.39,0.04-0.57
						c0-0.19-0.02-0.42-0.04-0.69L132-58.34c-0.03-0.28-0.05-0.51-0.08-0.69c-0.03-0.18-0.07-0.36-0.13-0.55
						c-0.06-0.18-0.13-0.33-0.22-0.43c-0.09-0.1-0.21-0.18-0.35-0.25c-0.15-0.07-0.33-0.1-0.54-0.1c-0.2,0-0.38,0.03-0.51,0.1
						c-0.14,0.07-0.24,0.15-0.31,0.25s-0.12,0.25-0.14,0.44c-0.02,0.19-0.04,0.37-0.03,0.54c0,0.18,0.02,0.4,0.04,0.69l0.08,0.85
						c0.03,0.34,0.07,0.62,0.11,0.85c0.05,0.23,0.12,0.45,0.21,0.65c0.09,0.21,0.22,0.36,0.39,0.46
						C130.68-55.42,130.88-55.37,131.12-55.37z"/>
				</g>
				<g>
					<path class="st18" d="M126.04-46.19c0.1,1.15-0.11,2.03-0.63,2.65c-0.52,0.62-1.32,0.92-2.4,0.92c-1.08,0-1.93-0.31-2.56-0.92
						c-0.63-0.62-1-1.5-1.1-2.66c-0.1-1.15,0.11-2.04,0.63-2.64c0.52-0.61,1.33-0.91,2.41-0.91s1.93,0.31,2.56,0.92
						C125.57-48.23,125.93-47.34,126.04-46.19z M120.9-46.19c0.07,0.78,0.27,1.36,0.6,1.75c0.33,0.39,0.8,0.59,1.39,0.59
						c1.19,0,1.71-0.78,1.58-2.34c-0.14-1.56-0.8-2.34-1.98-2.34c-0.59,0-1.02,0.2-1.29,0.59C120.94-47.55,120.84-46.97,120.9-46.19
						z"/>
					<path class="st18" d="M129.07-42.71h-1.47l-0.62-6.94h4.03l0.11,1.21h-2.56l0.16,1.79h2.38l0.11,1.2h-2.38L129.07-42.71z"/>
					<path class="st18" d="M134.28-42.71h-1.47l-0.62-6.94h4.03l0.11,1.21h-2.56l0.16,1.79h2.38l0.11,1.2h-2.38L134.28-42.71z"/>
				</g>
				<g>
					<path class="st18" d="M96.42-84.76l0.64,7.18c0.07,0.82-0.05,1.54-0.37,2.16c-0.32,0.62-0.81,1.09-1.49,1.42
						c-0.67,0.33-1.49,0.49-2.45,0.49c-1.45,0-2.6-0.37-3.47-1.1c-0.87-0.73-1.36-1.73-1.47-3l-0.64-7.15h2.38l0.61,6.8
						c0.08,0.86,0.31,1.48,0.69,1.88c0.38,0.4,0.98,0.6,1.79,0.6c0.78,0,1.33-0.2,1.64-0.6c0.32-0.4,0.44-1.03,0.36-1.89l-0.6-6.78
						H96.42z"/>
					<path class="st18" d="M106.94-81.3c0.11,1.2-0.19,2.11-0.89,2.74c-0.7,0.63-1.75,0.95-3.14,0.95h-1.02l0.35,3.95h-2.38
						l-0.99-11.1h3.59c1.37,0,2.43,0.29,3.19,0.87C106.41-83.31,106.84-82.45,106.94-81.3z M101.71-79.53h0.79
						c0.73,0,1.27-0.14,1.61-0.43c0.34-0.29,0.48-0.7,0.43-1.25c-0.05-0.55-0.24-0.96-0.57-1.22c-0.33-0.26-0.82-0.4-1.47-0.4h-1.09
						L101.71-79.53z"/>
					<path class="st18" d="M113.77-73.66h-2.39l-0.81-9.14h-3.06l-0.17-1.96h8.5l0.17,1.96h-3.06L113.77-73.66z"/>
					<path class="st18" d="M127.97-79.22c0.16,1.84-0.17,3.25-1.01,4.24c-0.84,0.99-2.12,1.48-3.84,1.48s-3.09-0.49-4.1-1.48
						c-1.01-0.99-1.6-2.4-1.76-4.25c-0.16-1.85,0.17-3.26,1.01-4.23c0.84-0.97,2.12-1.46,3.85-1.46s3.1,0.49,4.1,1.47
						C127.22-82.48,127.8-81.07,127.97-79.22z M119.75-79.22c0.11,1.24,0.43,2.17,0.97,2.8c0.53,0.63,1.28,0.94,2.22,0.94
						c1.9,0,2.75-1.25,2.52-3.74c-0.22-2.5-1.28-3.75-3.17-3.75c-0.95,0-1.64,0.31-2.06,0.95C119.8-81.4,119.64-80.46,119.75-79.22z
						"/>
				</g>
			</g>
			<g>
				<path class="st9" d="M-7.73-31.67c-6.55,0-9.99-3.73-10.32-11.2l5.9-1.22c0.15,4.85,1.56,7.28,4.22,7.28
					c1.03,0,1.8-0.31,2.3-0.93c0.5-0.62,0.75-1.45,0.75-2.5c0-1.02-0.19-1.95-0.56-2.8c-0.37-0.85-0.81-1.54-1.3-2.08
					c-0.49-0.54-1.2-1.21-2.11-2l-4.89-4.18c-1.44-1.24-2.5-2.53-3.21-3.86c-0.7-1.33-1.05-3.01-1.05-5.01
					c0-2.85,0.85-5.06,2.55-6.64c1.7-1.58,4.03-2.38,6.99-2.41c1.36-0.01,2.57,0.15,3.61,0.5c1.05,0.35,1.91,0.81,2.59,1.39
					c0.68,0.58,1.25,1.31,1.71,2.18c0.46,0.87,0.8,1.77,1.02,2.71c0.22,0.94,0.38,1.98,0.47,3.13l-5.79,1.13
					c-0.03-0.74-0.08-1.38-0.15-1.93c-0.07-0.55-0.18-1.1-0.35-1.66c-0.16-0.56-0.38-1.01-0.64-1.36c-0.26-0.35-0.61-0.62-1.05-0.83
					c-0.44-0.21-0.95-0.29-1.54-0.24c-1,0.06-1.77,0.39-2.3,0.99c-0.53,0.6-0.8,1.4-0.8,2.4c0,1.18,0.24,2.15,0.71,2.91
					c0.47,0.76,1.21,1.58,2.21,2.45l4.85,4.16c0.81,0.72,1.51,1.42,2.11,2.1s1.17,1.45,1.72,2.32c0.55,0.87,0.96,1.83,1.25,2.88
					c0.28,1.05,0.43,2.15,0.43,3.32c0,2.67-0.86,4.84-2.57,6.51C-2.7-32.51-4.94-31.67-7.73-31.67z"/>
				<path class="st9" d="M3.4-32.12l7.56-36.69h7.07l7.54,36.69h-6.3l-1.5-8.52h-6.44l-1.53,8.52H3.4z M12.04-45h4.98l-2.49-15.07
					L12.04-45z"/>
				<path class="st9" d="M28.99-32.12v-36.69h6.78v32.07h8.91v4.62H28.99z"/>
				<path class="st9" d="M48.04-32.12v-36.69h15.57v4.71h-8.8v10.53h6.96v4.71h-6.96v12.11h8.91v4.62H48.04z"/>
			</g>
		</g>
		<g class="st6">
			<path class="st19" d="M65.4-82.69c-0.01,0-0.02,0-0.02,0L34.2-84.14c-0.28-0.01-0.49-0.25-0.48-0.52
				c0.01-0.28,0.25-0.5,0.52-0.48l30.57,1.42l-1.98-13.7c-0.04-0.27,0.15-0.53,0.42-0.57c0.27-0.03,0.53,0.15,0.57,0.42l2.07,14.29
				c0.02,0.15-0.02,0.3-0.12,0.41C65.68-82.75,65.54-82.69,65.4-82.69z"/>
		</g>
		<g class="st6">
			<path class="st17" d="M0.87-13.29C0.87-13.29,0.87-13.29,0.87-13.29l-35.36-0.28c-0.26,0-0.48-0.21-0.5-0.47l-0.83-16.57
				c-0.01-0.28,0.2-0.51,0.47-0.52c0.28-0.02,0.51,0.2,0.52,0.47l0.81,16.1l34.88,0.27c0.28,0,0.5,0.23,0.5,0.5
				C1.37-13.51,1.15-13.29,0.87-13.29z"/>
		</g>
		<g class="st6">
			<path class="st17" d="M-17.36-9.7h-21.13c-0.26,0-0.47-0.2-0.5-0.45l-0.83-8.98c-0.03-0.28,0.18-0.52,0.45-0.54
				c0.28-0.01,0.52,0.18,0.54,0.45l0.79,8.52h20.67c0.28,0,0.5,0.22,0.5,0.5C-16.86-9.92-17.08-9.7-17.36-9.7z"/>
		</g>
		<g class="st6">
			<path class="st18" d="M85.95-11.21c-0.27,0-0.5-0.22-0.5-0.49c0-0.28,0.22-0.5,0.49-0.51l52.62-0.83
				c0.28,0.01,0.5,0.22,0.51,0.49c0,0.28-0.22,0.5-0.49,0.51L85.95-11.21C85.95-11.21,85.95-11.21,85.95-11.21z"/>
		</g>
	</g>
</g>
<text transform="matrix(1 0 0 1 33.257 72.2009)"><tspan x="0" y="0" class="st9 st20 st21">جلسه رایگان</tspan><tspan x="0" y="21.6" class="st9 st20 st22"> </tspan></text>
<text transform="matrix(1 0 0 1 89.2218 46.4116)" class="st9 st20 st21">یک</text>
</svg>
