<?xml version="1.0" encoding="utf-8"?>
<!-- Generator: Adobe Illustrator 27.5.0, SVG Export Plug-In . SVG Version: 6.00 Build 0)  -->
<svg version="1.1" id="Layer_1" xmlns="http://www.w3.org/2000/svg" xmlns:xlink="http://www.w3.org/1999/xlink" x="0px" y="0px"
	 viewBox="0 0 396 288" style="enable-background:new 0 0 396 288;" xml:space="preserve">
<style type="text/css">
	.st0{display:none;fill:#ECF4F7;}
	.st1{display:none;fill:url(#SVGID_1_);}
	.st2{display:none;fill:url(#SVGID_00000059295653840305327960000011436007655958216839_);}
	.st3{display:none;fill:url(#SVGID_00000139258643789894046950000010679231833168531638_);}
	.st4{fill:url(#SVGID_00000170243824323668700290000005153564751989699745_);}
	.st5{display:none;}
	.st6{display:inline;}
	.st7{fill:#D13067;}
	.st8{fill:#FF4081;}
	.st9{fill:#FFFFFF;}
	.st10{fill:#004194;}
	.st11{fill:#0055BB;}
	.st12{fill:#0079F6;}
	.st13{fill:#7B4399;}
	.st14{fill:#A95DD2;}
	.st15{fill:#D47FFF;}
	.st16{fill:#FF9A00;}
	.st17{fill:#004E91;}
	.st18{fill:#FFC500;}
	.st19{display:inline;fill:#FFFFFF;}
	.st20{display:inline;fill:#FFC500;}
	.st21{font-family:'AdobeArabic-Regular';}
	.st22{font-size:30px;}
	.st23{font-family:'MyriadPro-Regular';}
	.st24{font-size:24px;}
</style>
<g>
	<rect class="st0" width="396" height="288"/>
	
		<radialGradient id="SVGID_1_" cx="92.8617" cy="465.9145" r="72.9976" gradientTransform="matrix(1 0 0 0.7018 0 -222.7201)" gradientUnits="userSpaceOnUse">
		<stop  offset="0.4244" style="stop-color:#B0CCD6"/>
		<stop  offset="0.581" style="stop-color:#D0E1E7"/>
		<stop  offset="0.7409" style="stop-color:#EAF1F4"/>
		<stop  offset="0.8855" style="stop-color:#FAFBFC"/>
		<stop  offset="1" style="stop-color:#FFFFFF"/>
	</radialGradient>
	<ellipse class="st1" cx="92.86" cy="104.26" rx="73" ry="51.23"/>
	
		<radialGradient id="SVGID_00000080205706434516267470000011698670151888050590_" cx="104.8617" cy="643.3155" r="72.9976" gradientTransform="matrix(1 0 0 0.7018 0 -222.7201)" gradientUnits="userSpaceOnUse">
		<stop  offset="0.4244" style="stop-color:#B0CCD6"/>
		<stop  offset="0.581" style="stop-color:#D0E1E7"/>
		<stop  offset="0.7409" style="stop-color:#EAF1F4"/>
		<stop  offset="0.8855" style="stop-color:#FAFBFC"/>
		<stop  offset="1" style="stop-color:#FFFFFF"/>
	</radialGradient>
	
		<ellipse style="display:none;fill:url(#SVGID_00000080205706434516267470000011698670151888050590_);" cx="104.86" cy="228.76" rx="73" ry="51.23"/>
	
		<radialGradient id="SVGID_00000157301487374905074290000004239511465754570901_" cx="187.0338" cy="638.7493" r="72.9994" gradientTransform="matrix(0.9305 0 0 0.7018 109.7793 -222.7201)" gradientUnits="userSpaceOnUse">
		<stop  offset="0.4244" style="stop-color:#B0CCD6"/>
		<stop  offset="0.581" style="stop-color:#D0E1E7"/>
		<stop  offset="0.7409" style="stop-color:#EAF1F4"/>
		<stop  offset="0.8855" style="stop-color:#FAFBFC"/>
		<stop  offset="1" style="stop-color:#FFFFFF"/>
	</radialGradient>
	
		<ellipse style="display:none;fill:url(#SVGID_00000157301487374905074290000004239511465754570901_);" cx="283.81" cy="225.55" rx="67.93" ry="51.23"/>
	
		<radialGradient id="SVGID_00000096774750081752625970000002225858476880646069_" cx="617.0178" cy="888.1579" r="73.0027" gradientTransform="matrix(1.4033 0 0 0.5048 -594.5581 -357.7084)" gradientUnits="userSpaceOnUse">
		<stop  offset="0.4244" style="stop-color:#B0CCD6"/>
		<stop  offset="0.581" style="stop-color:#D0E1E7"/>
		<stop  offset="0.7409" style="stop-color:#EAF1F4"/>
		<stop  offset="0.8855" style="stop-color:#FAFBFC"/>
		<stop  offset="1" style="stop-color:#FFFFFF"/>
	</radialGradient>
	
		<ellipse style="fill:url(#SVGID_00000096774750081752625970000002225858476880646069_);" cx="271.3" cy="90.63" rx="102.44" ry="36.85"/>
	<g class="st5">
		<g class="st6">
			<g>
				<polygon class="st7" points="146.87,131.75 115.6,150.75 114.01,110.98 				"/>
				<polygon class="st8" points="146.87,131.75 43.99,131.54 41.64,29.77 144.52,29.99 				"/>
			</g>
			<g>
				<path class="st9" d="M63.03,70.15c-4.49,0-6.84-2.56-7.07-7.67l4.04-0.83c0.1,3.32,1.07,4.99,2.89,4.99
					c0.71,0,1.23-0.21,1.57-0.64c0.34-0.42,0.51-1,0.51-1.71c0-0.7-0.13-1.34-0.38-1.92c-0.26-0.58-0.55-1.06-0.89-1.42
					c-0.34-0.37-0.82-0.83-1.44-1.37l-3.35-2.86c-0.98-0.85-1.71-1.73-2.2-2.64C56.24,53.15,56,52.01,56,50.63
					c0-1.95,0.58-3.46,1.74-4.55c1.16-1.08,2.76-1.63,4.79-1.65c0.93-0.01,1.76,0.1,2.47,0.34c0.72,0.24,1.31,0.56,1.77,0.95
					c0.47,0.4,0.85,0.9,1.17,1.49c0.31,0.6,0.55,1.21,0.7,1.86c0.15,0.64,0.26,1.36,0.32,2.14L65,51.99
					c-0.02-0.5-0.05-0.94-0.1-1.32c-0.05-0.37-0.12-0.75-0.24-1.14c-0.11-0.38-0.26-0.69-0.44-0.93c-0.18-0.24-0.42-0.43-0.72-0.57
					c-0.3-0.14-0.65-0.2-1.05-0.17c-0.69,0.04-1.21,0.26-1.57,0.67s-0.55,0.96-0.55,1.64c0,0.81,0.16,1.47,0.48,1.99
					c0.32,0.52,0.83,1.08,1.51,1.67l3.32,2.85c0.55,0.5,1.04,0.98,1.44,1.44c0.41,0.46,0.8,1,1.17,1.59
					c0.37,0.6,0.66,1.25,0.85,1.97c0.19,0.72,0.29,1.47,0.29,2.27c0,1.83-0.59,3.31-1.76,4.46C66.48,69.58,64.94,70.15,63.03,70.15z
					"/>
				<path class="st9" d="M78.95,70.15c-1.14,0-2.12-0.13-2.96-0.39c-0.84-0.26-1.52-0.63-2.06-1.11c-0.54-0.47-0.97-1.08-1.29-1.83
					c-0.32-0.74-0.55-1.55-0.68-2.41c-0.13-0.86-0.19-1.87-0.19-3.01V44.72h4.5v17.15c0,0.59,0.02,1.09,0.05,1.5
					c0.03,0.41,0.1,0.85,0.2,1.3c0.1,0.45,0.25,0.82,0.44,1.09c0.19,0.27,0.45,0.5,0.78,0.68c0.33,0.18,0.73,0.27,1.21,0.27
					c0.47,0,0.87-0.09,1.21-0.27c0.33-0.18,0.59-0.41,0.77-0.68c0.18-0.27,0.32-0.64,0.43-1.09c0.11-0.46,0.17-0.89,0.2-1.3
					c0.03-0.41,0.04-0.91,0.04-1.51V44.72h4.5V61.4c0,1.14-0.06,2.14-0.19,3.01c-0.13,0.86-0.35,1.67-0.68,2.41
					c-0.32,0.74-0.75,1.35-1.28,1.83c-0.53,0.48-1.22,0.84-2.05,1.11C81.05,70.02,80.07,70.15,78.95,70.15z"/>
				<path class="st9" d="M89.54,69.85V44.72h7.33c4.34,0,6.51,2.38,6.51,7.14c0,2.33-0.59,4.04-1.78,5.13
					c-1.19,1.09-2.86,1.63-5.02,1.63h-2.4v11.23H89.54z M94.18,55.4h1.49c1.31,0,2.2-0.25,2.66-0.77c0.46-0.51,0.69-1.45,0.69-2.81
					c0-0.78-0.03-1.38-0.09-1.8c-0.06-0.42-0.21-0.81-0.43-1.16c-0.23-0.35-0.56-0.59-1.01-0.72c-0.45-0.13-1.05-0.2-1.8-0.2h-1.51
					V55.4z"/>
				<path class="st9" d="M105.7,69.85V44.72h10.66v3.23h-6.02v7.21h4.76v3.23h-4.76v8.29h6.1v3.17H105.7z"/>
				<path class="st9" d="M118.95,69.85V44.72h5.84c1.34,0,2.49,0.11,3.46,0.33c0.96,0.22,1.8,0.58,2.51,1.09
					c0.71,0.51,1.24,1.2,1.6,2.08c0.35,0.87,0.53,1.94,0.53,3.21c0,1.58-0.24,2.86-0.71,3.86c-0.48,1-1.26,1.73-2.36,2.18
					l3.53,12.38h-4.65l-3.04-11.47h-2.06v11.47H118.95z M123.59,55.45h1.12c1.37,0,2.35-0.29,2.93-0.86
					c0.58-0.58,0.87-1.56,0.87-2.96c0-1.34-0.25-2.31-0.75-2.89c-0.5-0.58-1.42-0.87-2.76-0.87h-1.4V55.45z"/>
			</g>
			<g>
				<path class="st9" d="M64.48,113.87c-6.37,0-9.71-3.63-10.03-10.88l5.74-1.18c0.15,4.72,1.51,7.08,4.1,7.08
					c1,0,1.75-0.3,2.24-0.9c0.49-0.6,0.73-1.41,0.73-2.43c0-0.99-0.18-1.9-0.54-2.72c-0.36-0.82-0.79-1.5-1.27-2.02
					c-0.48-0.52-1.16-1.17-2.05-1.95l-4.75-4.07c-1.4-1.2-2.43-2.45-3.12-3.75c-0.68-1.3-1.02-2.92-1.02-4.87
					c0-2.77,0.82-4.92,2.47-6.45c1.65-1.53,3.91-2.32,6.79-2.34c1.32-0.01,2.49,0.15,3.51,0.48c1.02,0.34,1.86,0.79,2.52,1.35
					c0.66,0.57,1.21,1.27,1.66,2.12c0.44,0.85,0.77,1.72,0.99,2.63c0.22,0.91,0.37,1.92,0.46,3.04l-5.63,1.1
					c-0.03-0.72-0.08-1.34-0.14-1.87c-0.07-0.53-0.18-1.07-0.34-1.61s-0.37-0.99-0.62-1.32c-0.25-0.34-0.6-0.61-1.03-0.81
					c-0.43-0.2-0.93-0.28-1.49-0.24c-0.97,0.06-1.72,0.38-2.23,0.96c-0.52,0.58-0.77,1.36-0.77,2.33c0,1.15,0.23,2.09,0.69,2.83
					c0.46,0.74,1.17,1.53,2.15,2.38l4.71,4.04c0.79,0.7,1.47,1.38,2.05,2.04c0.58,0.66,1.14,1.41,1.67,2.26
					c0.53,0.85,0.93,1.78,1.21,2.8c0.28,1.02,0.41,2.09,0.41,3.23c0,2.6-0.83,4.7-2.5,6.32C69.36,113.06,67.18,113.87,64.48,113.87z
					"/>
				<path class="st9" d="M75.29,113.44l7.35-35.66h6.87l7.33,35.66h-6.13l-1.46-8.28h-6.26l-1.48,8.28H75.29z M83.68,100.92h4.84
					L86.1,86.27L83.68,100.92z"/>
				<path class="st9" d="M100.16,113.44V77.77h6.59v31.17h8.66v4.5H100.16z"/>
				<path class="st9" d="M118.67,113.44V77.77h15.13v4.58h-8.55v10.24h6.76v4.58h-6.76v11.77h8.66v4.5H118.67z"/>
			</g>
		</g>
		<g class="st6">
			<path class="st8" d="M37.15,52.71c-0.28,0-0.5-0.22-0.5-0.5V24.66c0-0.27,0.22-0.5,0.49-0.5l30.45-0.41
				c0.27-0.01,0.5,0.22,0.51,0.49c0,0.28-0.22,0.5-0.49,0.51l-29.96,0.41v27.06C37.65,52.49,37.43,52.71,37.15,52.71z"/>
		</g>
		<g class="st6">
			<path class="st8" d="M32.08,38.63C32.08,38.63,32.07,38.63,32.08,38.63c-0.28,0-0.5-0.23-0.5-0.51l0.21-18.23
				c0-0.27,0.22-0.49,0.49-0.49l21.44-0.52c0.26-0.01,0.51,0.21,0.51,0.49c0.01,0.28-0.21,0.5-0.49,0.51l-20.96,0.51l-0.2,17.75
				C32.57,38.41,32.35,38.63,32.08,38.63z"/>
		</g>
		<g class="st6">
			<path class="st8" d="M48.94,136.91c-0.27,0-0.5-0.22-0.5-0.5c0-0.28,0.22-0.5,0.5-0.5l41.16-0.28c0,0,0,0,0,0
				c0.27,0,0.5,0.22,0.5,0.5c0,0.28-0.22,0.5-0.5,0.5L48.94,136.91C48.95,136.91,48.94,136.91,48.94,136.91z"/>
		</g>
		<g class="st6">
			<path class="st8" d="M64.01,141.45c-0.28,0-0.5-0.22-0.5-0.5c0-0.28,0.22-0.5,0.5-0.5l29-0.14c0,0,0,0,0,0
				c0.28,0,0.5,0.22,0.5,0.5c0,0.28-0.22,0.5-0.5,0.5L64.01,141.45C64.02,141.45,64.02,141.45,64.01,141.45z"/>
		</g>
	</g>
	<g class="st5">
		<g class="st6">
			<g>
				<polygon class="st10" points="279.3,266.5 324.41,276.81 296.33,252.89 				"/>
				<polygon class="st11" points="336.8,243.18 279.3,266.5 283.33,239.28 				"/>
				<polygon class="st12" points="340.32,135.8 336.8,243.18 240.69,245.15 228.25,139.34 				"/>
			</g>
			<g>
				<path class="st9" d="M253.06,188.56c-6.88,0-10.5-3.92-10.85-11.77l6.2-1.28c0.16,5.1,1.63,7.65,4.43,7.65
					c1.08,0,1.89-0.33,2.42-0.98c0.53-0.65,0.79-1.53,0.79-2.63c0-1.07-0.2-2.05-0.59-2.94c-0.39-0.89-0.85-1.62-1.37-2.19
					c-0.52-0.57-1.26-1.27-2.22-2.11l-5.14-4.4c-1.51-1.3-2.63-2.66-3.37-4.06c-0.74-1.4-1.11-3.16-1.11-5.27
					c0-2.99,0.89-5.32,2.68-6.98c1.78-1.66,4.23-2.5,7.35-2.54c1.43-0.02,2.7,0.16,3.8,0.52c1.1,0.36,2.01,0.85,2.72,1.46
					c0.71,0.61,1.31,1.38,1.79,2.29c0.48,0.91,0.84,1.87,1.07,2.85c0.24,0.99,0.4,2.08,0.5,3.29l-6.08,1.19
					c-0.03-0.78-0.08-1.45-0.15-2.02c-0.07-0.57-0.19-1.16-0.37-1.75c-0.17-0.59-0.4-1.07-0.67-1.43c-0.28-0.36-0.64-0.66-1.11-0.87
					c-0.46-0.22-1-0.3-1.62-0.26c-1.05,0.06-1.86,0.41-2.42,1.04c-0.56,0.63-0.84,1.47-0.84,2.52c0,1.24,0.25,2.26,0.74,3.06
					c0.5,0.8,1.27,1.66,2.32,2.57l5.09,4.37c0.85,0.76,1.59,1.5,2.22,2.21c0.63,0.71,1.23,1.53,1.8,2.44
					c0.57,0.92,1.01,1.92,1.31,3.02c0.3,1.1,0.45,2.26,0.45,3.49c0,2.81-0.9,5.09-2.7,6.84
					C258.34,187.69,255.98,188.56,253.06,188.56z"/>
				<path class="st9" d="M264.75,188.1l7.95-38.57h7.43l7.92,38.57h-6.63l-1.58-8.96h-6.77l-1.6,8.96H264.75z M273.83,174.56h5.24
					l-2.62-15.84L273.83,174.56z"/>
				<path class="st9" d="M291.65,188.1v-38.57h7.12v33.7h9.36v4.86H291.65z"/>
				<path class="st9" d="M311.66,188.1v-38.57h16.37v4.96h-9.24v11.07h7.31v4.95h-7.31v12.72h9.36v4.86H311.66z"/>
			</g>
			<g>
				<path class="st9" d="M262.48,213.08c-2.63,0-4.01-1.5-4.14-4.49l2.37-0.49c0.06,1.95,0.62,2.92,1.69,2.92
					c0.41,0,0.72-0.12,0.92-0.37c0.2-0.25,0.3-0.58,0.3-1c0-0.41-0.08-0.78-0.23-1.12c-0.15-0.34-0.32-0.62-0.52-0.83
					c-0.2-0.22-0.48-0.48-0.85-0.8l-1.96-1.68c-0.58-0.5-1-1.01-1.29-1.55c-0.28-0.54-0.42-1.21-0.42-2.01
					c0-1.14,0.34-2.03,1.02-2.66c0.68-0.63,1.61-0.96,2.8-0.97c0.54-0.01,1.03,0.06,1.45,0.2c0.42,0.14,0.77,0.33,1.04,0.56
					c0.27,0.23,0.5,0.53,0.68,0.87c0.18,0.35,0.32,0.71,0.41,1.09c0.09,0.38,0.15,0.79,0.19,1.26l-2.32,0.45
					c-0.01-0.3-0.03-0.55-0.06-0.77c-0.03-0.22-0.07-0.44-0.14-0.67c-0.07-0.22-0.15-0.41-0.26-0.54c-0.11-0.14-0.25-0.25-0.42-0.33
					c-0.18-0.08-0.38-0.12-0.62-0.1c-0.4,0.02-0.71,0.16-0.92,0.39c-0.21,0.24-0.32,0.56-0.32,0.96c0,0.47,0.09,0.86,0.28,1.17
					c0.19,0.3,0.48,0.63,0.89,0.98l1.94,1.67c0.32,0.29,0.61,0.57,0.85,0.84c0.24,0.27,0.47,0.58,0.69,0.93
					c0.22,0.35,0.38,0.73,0.5,1.15c0.11,0.42,0.17,0.86,0.17,1.33c0,1.07-0.34,1.94-1.03,2.61
					C264.5,212.75,263.6,213.08,262.48,213.08z"/>
				<path class="st9" d="M267.72,212.9v-14.71h4.29c2.54,0,3.82,1.39,3.82,4.18c0,1.37-0.35,2.37-1.04,3
					c-0.7,0.64-1.68,0.95-2.94,0.95h-1.4v6.58H267.72z M270.43,204.45h0.87c0.77,0,1.29-0.15,1.56-0.45
					c0.27-0.3,0.41-0.85,0.41-1.65c0-0.46-0.02-0.81-0.05-1.06c-0.04-0.25-0.12-0.47-0.25-0.68c-0.13-0.2-0.33-0.34-0.59-0.42
					c-0.26-0.08-0.61-0.12-1.06-0.12h-0.88V204.45z"/>
				<path class="st9" d="M277.18,212.9v-14.71h6.24v1.89h-3.53v4.22h2.79v1.89h-2.79v4.85h3.57v1.85H277.18z"/>
				<path class="st9" d="M288.95,213.08c-0.64,0-1.21-0.08-1.7-0.24c-0.49-0.16-0.9-0.38-1.22-0.67c-0.32-0.28-0.58-0.64-0.78-1.06
					c-0.2-0.42-0.34-0.87-0.42-1.35c-0.08-0.48-0.12-1.03-0.12-1.63v-5.13c0-0.64,0.04-1.21,0.13-1.7c0.08-0.49,0.22-0.95,0.42-1.38
					c0.2-0.42,0.46-0.77,0.78-1.04c0.32-0.27,0.73-0.48,1.21-0.64c0.49-0.15,1.06-0.23,1.71-0.23c0.74,0,1.38,0.1,1.91,0.29
					c0.53,0.2,0.94,0.48,1.25,0.86c0.31,0.38,0.53,0.82,0.67,1.33c0.14,0.51,0.21,1.1,0.21,1.77v1.26h-2.62v-1.25
					c0-0.73-0.04-1.23-0.12-1.48c-0.16-0.5-0.54-0.76-1.14-0.8c-0.05,0-0.1,0-0.14,0c-0.23,0-0.43,0.03-0.6,0.08
					c-0.17,0.05-0.31,0.14-0.42,0.25c-0.11,0.12-0.19,0.24-0.26,0.37c-0.07,0.13-0.12,0.3-0.15,0.51c-0.03,0.21-0.05,0.4-0.06,0.58
					c-0.01,0.18-0.01,0.4-0.01,0.67v6.23c0,0.86,0.11,1.48,0.33,1.85c0.22,0.37,0.61,0.55,1.17,0.55c0.19,0,0.36-0.02,0.51-0.07
					c0.15-0.04,0.27-0.1,0.37-0.17c0.1-0.07,0.18-0.17,0.25-0.29c0.07-0.13,0.12-0.25,0.16-0.36c0.04-0.11,0.06-0.26,0.08-0.46
					c0.02-0.2,0.03-0.36,0.03-0.5c0-0.14,0-0.32,0-0.56v-1.31h2.62v1.21c0,0.55-0.04,1.04-0.12,1.48c-0.08,0.44-0.21,0.85-0.4,1.23
					c-0.19,0.38-0.43,0.7-0.73,0.96c-0.3,0.25-0.68,0.45-1.15,0.6C290.11,213.01,289.56,213.08,288.95,213.08z"/>
				<path class="st9" d="M294.85,212.9v-14.71h2.68v14.71H294.85z"/>
				<path class="st9" d="M298.96,212.9l3.03-14.71h2.83l3.02,14.71h-2.53l-0.6-3.42h-2.58l-0.61,3.42H298.96z M302.42,207.74h2
					l-1-6.04L302.42,207.74z"/>
				<path class="st9" d="M309.22,212.9v-14.71h2.72v12.86h3.57v1.85H309.22z"/>
				<path class="st9" d="M270.31,231.82c-1.54,0-2.64-0.41-3.3-1.23c-0.67-0.82-1-2.03-1-3.61v-5.43c0-0.78,0.07-1.46,0.22-2.03
					c0.15-0.57,0.39-1.07,0.72-1.49c0.33-0.42,0.78-0.74,1.34-0.95c0.56-0.21,1.23-0.32,2.02-0.32c1.53,0,2.63,0.41,3.3,1.22
					c0.67,0.81,1,2,1,3.57v5.43c0,0.77-0.08,1.44-0.23,2.03c-0.15,0.58-0.4,1.09-0.73,1.52c-0.33,0.43-0.78,0.75-1.34,0.97
					C271.76,231.71,271.09,231.82,270.31,231.82z M269.63,229.71c0.19,0.08,0.42,0.12,0.68,0.12c0.26,0,0.49-0.04,0.67-0.12
					c0.19-0.08,0.33-0.18,0.45-0.3c0.11-0.12,0.2-0.29,0.26-0.49c0.06-0.2,0.1-0.4,0.13-0.6c0.02-0.2,0.03-0.44,0.03-0.72v-6.68
					c0-0.36-0.02-0.65-0.05-0.89c-0.04-0.24-0.11-0.46-0.21-0.67c-0.1-0.21-0.26-0.37-0.47-0.47c-0.21-0.1-0.48-0.16-0.8-0.16
					c-0.32,0-0.59,0.05-0.81,0.16c-0.21,0.1-0.37,0.26-0.47,0.47c-0.1,0.21-0.17,0.43-0.21,0.67c-0.04,0.24-0.05,0.53-0.05,0.89
					v6.68c0,0.28,0.01,0.52,0.03,0.72c0.02,0.2,0.06,0.4,0.13,0.6c0.06,0.2,0.15,0.36,0.26,0.49
					C269.29,229.53,269.44,229.64,269.63,229.71z"/>
				<path class="st9" d="M276.51,231.64v-14.71h6.13v1.85h-3.41v4.28h2.73v1.89h-2.73v6.69H276.51z"/>
				<path class="st9" d="M283.97,231.64v-14.71h6.13v1.85h-3.41v4.28h2.73v1.89h-2.73v6.69H283.97z"/>
				<path class="st9" d="M291.44,231.64v-14.71h6.24v1.89h-3.53v4.22h2.79v1.89h-2.79v4.85h3.57v1.86H291.44z"/>
				<path class="st9" d="M299.2,231.64v-14.71h3.42c0.79,0,1.46,0.06,2.02,0.19c0.56,0.13,1.05,0.34,1.47,0.64
					c0.42,0.3,0.73,0.7,0.94,1.22c0.21,0.51,0.31,1.14,0.31,1.88c0,0.92-0.14,1.68-0.42,2.26c-0.28,0.59-0.74,1.01-1.38,1.28
					l2.07,7.25h-2.73l-1.78-6.72h-1.21v6.72H299.2z M301.92,223.21h0.66c0.8,0,1.38-0.17,1.71-0.51c0.34-0.34,0.51-0.91,0.51-1.73
					c0-0.79-0.15-1.35-0.44-1.69c-0.29-0.34-0.83-0.51-1.62-0.51h-0.82V223.21z"/>
			</g>
		</g>
		<g class="st6">
			<path class="st12" d="M224.93,160.12c-0.25,0-0.47-0.19-0.5-0.45l-2.49-25.27c-0.01-0.14,0.03-0.27,0.12-0.38
				c0.09-0.1,0.22-0.17,0.36-0.17l26.52-1.04c0.27-0.01,0.51,0.2,0.52,0.48c0.01,0.28-0.2,0.51-0.48,0.52L223,134.83l2.43,24.75
				c0.03,0.27-0.17,0.52-0.45,0.55C224.97,160.12,224.95,160.12,224.93,160.12z"/>
		</g>
		<g class="st6">
			<path class="st12" d="M218.72,146.66c-0.26,0-0.48-0.2-0.5-0.47l-1.04-15.43c-0.01-0.13,0.04-0.26,0.12-0.36
				c0.09-0.1,0.21-0.16,0.35-0.17l13.88-0.83c0.27-0.04,0.51,0.19,0.53,0.47c0.02,0.28-0.19,0.51-0.47,0.53l-13.38,0.8l1,14.93
				c0.02,0.28-0.19,0.51-0.47,0.53C218.74,146.66,218.73,146.66,218.72,146.66z"/>
		</g>
		<g class="st6">
			<path class="st11" d="M274.34,263.19c-0.02,0-0.04,0-0.06,0c-0.27-0.04-0.47-0.29-0.43-0.56l1.69-13.2l-17.45,0.3
				c-0.27,0.02-0.5-0.21-0.51-0.49c0-0.28,0.22-0.5,0.49-0.51l18.02-0.31c0.13,0.01,0.28,0.06,0.38,0.17
				c0.1,0.11,0.14,0.25,0.12,0.4l-1.76,13.78C274.81,263,274.59,263.19,274.34,263.19z"/>
		</g>
	</g>
	<g class="st5">
		<g class="st6">
			<g>
				<polygon class="st13" points="101.63,267.28 65.53,267.28 74.23,247.39 				"/>
				<polygon class="st14" points="43.31,240.01 101.63,267.28 101.63,227.49 				"/>
				<polygon class="st15" points="48.36,165.84 172.69,163.45 173.76,237.58 43.31,240.01 				"/>
			</g>
			<g>
				<path class="st9" d="M76.72,222.21c-7.38,0-11.25-4.2-11.62-12.61l6.64-1.37c0.17,5.46,1.75,8.2,4.75,8.2
					c1.16,0,2.02-0.35,2.59-1.05c0.56-0.7,0.85-1.64,0.85-2.82c0-1.15-0.21-2.2-0.63-3.15c-0.42-0.96-0.91-1.74-1.46-2.34
					c-0.56-0.61-1.35-1.36-2.37-2.25l-5.51-4.71c-1.62-1.4-2.82-2.84-3.61-4.35c-0.79-1.5-1.19-3.38-1.19-5.64
					c0-3.21,0.96-5.7,2.87-7.47c1.91-1.78,4.53-2.68,7.87-2.72c1.53-0.02,2.89,0.17,4.07,0.56c1.18,0.39,2.15,0.91,2.92,1.57
					c0.77,0.66,1.41,1.47,1.92,2.45c0.51,0.98,0.9,2,1.15,3.05c0.25,1.05,0.43,2.23,0.53,3.53l-6.52,1.27
					c-0.03-0.83-0.09-1.55-0.16-2.17c-0.08-0.61-0.21-1.24-0.39-1.87c-0.19-0.63-0.43-1.14-0.72-1.53c-0.29-0.39-0.69-0.7-1.19-0.93
					c-0.5-0.23-1.07-0.32-1.73-0.27c-1.13,0.07-1.99,0.44-2.59,1.11c-0.6,0.67-0.9,1.57-0.9,2.7c0,1.33,0.27,2.42,0.8,3.28
					c0.53,0.86,1.36,1.77,2.49,2.75l5.46,4.68c0.91,0.81,1.7,1.6,2.38,2.37c0.67,0.76,1.32,1.64,1.93,2.62
					c0.61,0.98,1.08,2.06,1.4,3.24c0.32,1.18,0.48,2.42,0.48,3.74c0,3.01-0.96,5.45-2.89,7.33
					C82.38,221.27,79.85,222.21,76.72,222.21z"/>
				<path class="st9" d="M89.24,221.71l8.51-41.31h7.96l8.49,41.31h-7.1l-1.69-9.59h-7.25l-1.72,9.59H89.24z M98.96,207.21h5.61
					l-2.8-16.97L98.96,207.21z"/>
				<path class="st9" d="M118.05,221.71V180.4h7.63v36.11h10.03v5.21H118.05z"/>
				<path class="st9" d="M139.5,221.71V180.4h17.53v5.31h-9.9v11.86h7.83v5.31h-7.83v13.63h10.03v5.21H139.5z"/>
			</g>
		</g>
		<g class="st6">
			<path class="st15" d="M178.39,190.4c-0.27,0-0.49-0.21-0.5-0.49l-0.9-31.69l-49.79,0.72c0,0,0,0-0.01,0
				c-0.27,0-0.5-0.22-0.5-0.49c0-0.28,0.22-0.5,0.49-0.51l50.28-0.73c0,0,0.01,0,0.01,0c0.27,0,0.49,0.21,0.5,0.49l0.91,32.18
				c0.01,0.28-0.21,0.51-0.49,0.51C178.4,190.4,178.4,190.4,178.39,190.4z"/>
		</g>
		<g class="st6">
			<path class="st15" d="M183.15,171.9c-0.27,0-0.49-0.21-0.5-0.49l-0.53-18.31l-27.12,0.18c0,0,0,0,0,0c-0.27,0-0.5-0.22-0.5-0.5
				c0-0.28,0.22-0.5,0.5-0.5l27.61-0.18c0,0,0,0,0,0c0.27,0,0.49,0.21,0.5,0.49l0.55,18.8c0.01,0.28-0.21,0.51-0.49,0.51
				C183.16,171.9,183.15,171.9,183.15,171.9z"/>
		</g>
		<g class="st6">
			<path class="st14" d="M105.98,262.32C105.98,262.32,105.98,262.32,105.98,262.32c-0.28,0-0.5-0.23-0.5-0.51l0.24-19.02
				c0-0.27,0.22-0.49,0.5-0.49l32.79-0.24c0.27-0.04,0.5,0.22,0.5,0.5c0,0.28-0.22,0.5-0.5,0.5l-32.3,0.24l-0.24,18.53
				C106.48,262.1,106.26,262.32,105.98,262.32z"/>
		</g>
	</g>
	<g>
		<g>
			<g>
				<polygon class="st16" points="316.51,47.32 180.9,41.77 184.02,108.14 357.78,108.3 				"/>
				<polygon class="st17" points="289.92,90.66 357.78,108.3 351.15,68.42 287.15,62.81 				"/>
				<polygon class="st18" points="360.72,35.59 282.65,31.93 289.92,90.66 363.33,88.7 385.54,64.33 				"/>
			</g>
			<g class="st5">
				<g class="st6">
					<path class="st17" d="M304.48,82.79l3.21-23.22h-7.16l-0.31-3.52h11.72l0.24,2.69l-3.2,24.05H304.48z"/>
					<path class="st17" d="M329.12,81.04c-1.08,1.42-2.76,2.13-5.04,2.13c-2.28,0-4.08-0.71-5.42-2.13
						c-1.34-1.42-2.11-3.31-2.32-5.68l-1.05-11.76c-0.22-2.44,0.2-4.36,1.24-5.77c1.05-1.4,2.75-2.1,5.1-2.1
						c2.33,0,4.15,0.7,5.46,2.11c1.31,1.41,2.07,3.33,2.29,5.76l1.05,11.76C330.64,77.73,330.21,79.62,329.12,81.04z M323.73,79.23
						c1.57,0,2.24-1.31,2-3.93l-1.04-11.61c-0.03-0.34-0.07-0.66-0.12-0.94c-0.05-0.29-0.11-0.59-0.19-0.91
						c-0.08-0.32-0.18-0.6-0.32-0.85c-0.14-0.24-0.29-0.47-0.48-0.68c-0.18-0.21-0.41-0.37-0.69-0.48
						c-0.28-0.11-0.58-0.16-0.92-0.16c-0.4,0-0.75,0.08-1.03,0.25c-0.29,0.17-0.5,0.37-0.64,0.62c-0.14,0.25-0.24,0.56-0.3,0.94
						c-0.06,0.38-0.09,0.74-0.08,1.07c0,0.33,0.02,0.71,0.06,1.14l1.04,11.61C321.26,77.92,322.16,79.23,323.73,79.23z"/>
					<path class="st17" d="M335.01,64.8c-1.2,0-2.1-0.33-2.71-1c-0.61-0.66-0.97-1.65-1.08-2.95l-0.07-0.83
						c-0.12-1.33,0.06-2.31,0.53-2.94c0.47-0.63,1.33-0.94,2.56-0.94s2.15,0.31,2.74,0.92c0.59,0.61,0.95,1.58,1.06,2.89l0.08,0.95
						c0.12,1.3-0.07,2.28-0.56,2.93C337.07,64.48,336.22,64.8,335.01,64.8z M334.85,62.98c0.2,0,0.36-0.04,0.5-0.11
						c0.14-0.08,0.24-0.17,0.31-0.29c0.07-0.12,0.12-0.27,0.15-0.46c0.03-0.19,0.04-0.39,0.04-0.58c0-0.19-0.02-0.42-0.04-0.69
						L335.72,60c-0.03-0.28-0.05-0.51-0.08-0.69c-0.03-0.18-0.07-0.36-0.13-0.54c-0.06-0.18-0.13-0.32-0.22-0.43
						c-0.09-0.1-0.21-0.19-0.36-0.25c-0.15-0.06-0.32-0.09-0.53-0.09c-0.2,0-0.37,0.03-0.51,0.1c-0.14,0.07-0.24,0.15-0.31,0.25
						c-0.07,0.1-0.12,0.25-0.14,0.43c-0.02,0.19-0.04,0.37-0.03,0.55c0,0.17,0.02,0.4,0.04,0.69l0.08,0.86
						c0.03,0.34,0.07,0.62,0.11,0.85c0.05,0.23,0.12,0.44,0.21,0.65c0.09,0.21,0.22,0.37,0.39,0.46
						C334.4,62.93,334.61,62.98,334.85,62.98z M337.69,71.8l3.07-15.59h1.88l-3.07,15.59H337.69z M346.08,71.86
						c-1.2,0-2.11-0.33-2.71-1c-0.61-0.66-0.97-1.65-1.08-2.95l-0.07-0.83c-0.12-1.33,0.06-2.31,0.53-2.94
						c0.47-0.63,1.33-0.95,2.56-0.95c1.23,0,2.14,0.31,2.74,0.92c0.59,0.61,0.95,1.57,1.06,2.88l0.09,0.96
						c0.12,1.3-0.07,2.28-0.56,2.93C348.14,71.54,347.29,71.86,346.08,71.86z M345.91,70.03c0.2,0,0.37-0.04,0.5-0.11
						c0.13-0.08,0.24-0.17,0.31-0.29c0.07-0.12,0.12-0.27,0.15-0.46c0.03-0.19,0.04-0.39,0.04-0.57c0-0.19-0.02-0.42-0.04-0.69
						l-0.08-0.85c-0.03-0.28-0.05-0.51-0.08-0.69c-0.03-0.18-0.07-0.36-0.13-0.55c-0.06-0.18-0.13-0.33-0.22-0.43
						c-0.09-0.1-0.21-0.18-0.35-0.25c-0.15-0.07-0.33-0.1-0.54-0.1c-0.2,0-0.38,0.03-0.51,0.1c-0.14,0.07-0.24,0.15-0.31,0.25
						c-0.07,0.1-0.12,0.25-0.14,0.44c-0.02,0.19-0.04,0.37-0.03,0.54c0,0.18,0.02,0.4,0.04,0.69l0.08,0.85
						c0.03,0.34,0.07,0.62,0.11,0.85c0.05,0.23,0.12,0.45,0.21,0.65c0.09,0.21,0.22,0.36,0.39,0.46
						C345.47,69.98,345.67,70.03,345.91,70.03z"/>
				</g>
				<g class="st6">
					<path class="st17" d="M340.83,79.21c0.1,1.15-0.11,2.03-0.63,2.65c-0.52,0.62-1.32,0.92-2.4,0.92c-1.08,0-1.93-0.31-2.56-0.92
						c-0.63-0.62-1-1.5-1.1-2.66c-0.1-1.15,0.11-2.04,0.63-2.64c0.52-0.61,1.33-0.91,2.41-0.91s1.93,0.31,2.56,0.92
						C340.36,77.18,340.72,78.06,340.83,79.21z M335.7,79.21c0.07,0.78,0.27,1.36,0.6,1.75c0.33,0.39,0.8,0.59,1.39,0.59
						c1.19,0,1.71-0.78,1.58-2.34c-0.14-1.56-0.8-2.34-1.98-2.34c-0.59,0-1.02,0.2-1.29,0.59C335.73,77.85,335.63,78.44,335.7,79.21
						z"/>
					<path class="st17" d="M343.86,82.69h-1.47l-0.62-6.94h4.03l0.11,1.21h-2.56l0.16,1.79h2.38l0.11,1.2h-2.38L343.86,82.69z"/>
					<path class="st17" d="M349.07,82.69h-1.47l-0.62-6.94h4.03l0.11,1.21h-2.56l0.16,1.79h2.38l0.11,1.2h-2.38L349.07,82.69z"/>
				</g>
				<g class="st6">
					<path class="st17" d="M311.21,40.64l0.64,7.18c0.07,0.82-0.05,1.54-0.37,2.16c-0.32,0.62-0.81,1.09-1.49,1.42
						c-0.67,0.33-1.49,0.49-2.45,0.49c-1.45,0-2.6-0.37-3.47-1.1c-0.87-0.73-1.36-1.73-1.47-3l-0.64-7.15h2.38l0.61,6.8
						c0.08,0.86,0.31,1.48,0.69,1.88c0.38,0.4,0.98,0.6,1.79,0.6c0.78,0,1.33-0.2,1.64-0.6c0.32-0.4,0.44-1.03,0.36-1.89l-0.6-6.78
						H311.21z"/>
					<path class="st17" d="M321.73,44.11c0.11,1.2-0.19,2.11-0.89,2.74c-0.7,0.63-1.75,0.95-3.14,0.95h-1.02l0.35,3.95h-2.38
						l-0.99-11.1h3.59c1.37,0,2.43,0.29,3.19,0.87C321.2,42.09,321.63,42.96,321.73,44.11z M316.5,45.87h0.79
						c0.73,0,1.27-0.14,1.61-0.43c0.34-0.29,0.48-0.7,0.43-1.25c-0.05-0.55-0.24-0.96-0.57-1.22c-0.33-0.26-0.82-0.4-1.47-0.4h-1.09
						L316.5,45.87z"/>
					<path class="st17" d="M328.56,51.75h-2.39l-0.81-9.14h-3.06l-0.17-1.96h8.5l0.17,1.96h-3.06L328.56,51.75z"/>
					<path class="st17" d="M342.76,46.18c0.16,1.84-0.17,3.25-1.01,4.24c-0.84,0.99-2.12,1.48-3.84,1.48s-3.09-0.49-4.1-1.48
						c-1.01-0.99-1.6-2.4-1.76-4.25c-0.17-1.85,0.17-3.26,1.01-4.23c0.84-0.97,2.12-1.46,3.85-1.46s3.1,0.49,4.1,1.47
						C342.01,42.92,342.59,44.34,342.76,46.18z M334.54,46.18c0.11,1.24,0.43,2.17,0.97,2.8c0.53,0.63,1.28,0.94,2.22,0.94
						c1.9,0,2.75-1.25,2.52-3.74c-0.22-2.5-1.28-3.75-3.17-3.75c-0.95,0-1.64,0.31-2.06,0.95C334.59,44,334.43,44.94,334.54,46.18z"
						/>
				</g>
			</g>
			<g class="st5">
				<path class="st19" d="M207.06,93.73c-6.55,0-9.99-3.73-10.32-11.2l5.9-1.22c0.15,4.85,1.56,7.28,4.22,7.28
					c1.03,0,1.8-0.31,2.3-0.93c0.5-0.62,0.75-1.45,0.75-2.5c0-1.02-0.19-1.95-0.56-2.8c-0.37-0.85-0.81-1.54-1.3-2.08
					c-0.49-0.54-1.2-1.21-2.11-2l-4.89-4.18c-1.44-1.24-2.5-2.53-3.21-3.86c-0.7-1.33-1.05-3.01-1.05-5.01
					c0-2.85,0.85-5.06,2.55-6.64c1.7-1.58,4.03-2.38,6.99-2.41c1.36-0.01,2.57,0.15,3.61,0.5c1.05,0.35,1.91,0.81,2.59,1.39
					c0.68,0.58,1.25,1.31,1.71,2.18c0.46,0.87,0.8,1.77,1.02,2.71c0.22,0.94,0.38,1.98,0.47,3.13l-5.79,1.13
					c-0.03-0.74-0.08-1.38-0.15-1.93c-0.07-0.55-0.18-1.1-0.35-1.66c-0.17-0.56-0.38-1.01-0.64-1.36c-0.26-0.35-0.61-0.62-1.05-0.83
					c-0.44-0.21-0.95-0.29-1.54-0.24c-1,0.06-1.77,0.39-2.3,0.99c-0.53,0.6-0.8,1.4-0.8,2.4c0,1.18,0.24,2.15,0.71,2.91
					c0.47,0.76,1.21,1.58,2.21,2.45l4.85,4.16c0.81,0.72,1.51,1.42,2.11,2.1c0.6,0.68,1.17,1.45,1.72,2.32
					c0.55,0.87,0.96,1.83,1.25,2.88c0.28,1.05,0.43,2.15,0.43,3.32c0,2.67-0.86,4.84-2.57,6.51
					C212.09,92.9,209.85,93.73,207.06,93.73z"/>
				<path class="st19" d="M218.19,93.29l7.56-36.69h7.07l7.54,36.69h-6.3l-1.5-8.52h-6.44l-1.53,8.52H218.19z M226.83,80.41h4.98
					l-2.49-15.07L226.83,80.41z"/>
				<path class="st19" d="M243.78,93.29V56.59h6.78v32.07h8.91v4.62H243.78z"/>
				<path class="st19" d="M262.83,93.29V56.59h15.57v4.71h-8.8v10.53h6.96v4.71h-6.96v12.11h8.91v4.62H262.83z"/>
			</g>
		</g>
		<g class="st5">
			<path class="st20" d="M280.2,42.72c-0.01,0-0.02,0-0.02,0l-31.18-1.45c-0.28-0.01-0.49-0.25-0.48-0.52
				c0.01-0.28,0.25-0.5,0.52-0.48l30.57,1.42l-1.98-13.7c-0.04-0.27,0.15-0.53,0.42-0.57c0.27-0.03,0.53,0.15,0.57,0.42l2.07,14.29
				c0.02,0.15-0.02,0.3-0.12,0.41C280.47,42.66,280.34,42.72,280.2,42.72z"/>
		</g>
		<g>
			<path class="st16" d="M215.66,112.11C215.66,112.11,215.66,112.11,215.66,112.11l-35.36-0.28c-0.26,0-0.48-0.21-0.5-0.47
				l-0.83-16.57c-0.01-0.28,0.2-0.51,0.47-0.52c0.28-0.02,0.51,0.2,0.52,0.47l0.81,16.1l34.88,0.27c0.28,0,0.5,0.23,0.5,0.5
				C216.16,111.89,215.94,112.11,215.66,112.11z"/>
		</g>
		<g>
			<path class="st16" d="M197.43,115.71H176.3c-0.26,0-0.47-0.2-0.5-0.45l-0.83-8.98c-0.03-0.28,0.18-0.52,0.45-0.54
				c0.28-0.01,0.52,0.18,0.54,0.45l0.79,8.52h20.67c0.28,0,0.5,0.22,0.5,0.5C197.93,115.48,197.71,115.71,197.43,115.71z"/>
		</g>
		<g>
			<path class="st17" d="M300.74,114.19c-0.27,0-0.5-0.22-0.5-0.49c0-0.28,0.22-0.5,0.49-0.51l52.62-0.83
				c0.28,0.01,0.5,0.22,0.51,0.49c0,0.28-0.22,0.5-0.49,0.51L300.74,114.19C300.74,114.19,300.74,114.19,300.74,114.19z"/>
		</g>
	</g>
</g>
<text transform="matrix(1 0 0 1 183.4576 78.5071)" class="st9 st21 st22">تخفیف ویژه</text>
<text transform="matrix(1 0 0 1 308.1945 70.9467)" class="st17 st23 st24">50%</text>
</svg>
