<?xml version="1.0" encoding="utf-8"?>
<!-- Generator: Adobe Illustrator 27.5.0, SVG Export Plug-In . SVG Version: 6.00 Build 0)  -->
<svg version="1.1" id="Layer_1" xmlns="http://www.w3.org/2000/svg" xmlns:xlink="http://www.w3.org/1999/xlink" x="0px" y="0px"
	 viewBox="0 0 16 16" style="enable-background:new 0 0 16 16;" xml:space="preserve">
<style type="text/css">
	.st0{fill:#93AFC5;}
</style>
<path class="st0" d="M7.05,7.85l5.72-5.72c0.31-0.31,0.31-0.8,0-1.11c-0.31-0.31-0.8-0.31-1.11,0L5.48,7.2
	C5.45,7.23,5.4,7.24,5.37,7.28C5.21,7.44,5.13,7.65,5.14,7.85C5.13,8.06,5.21,8.27,5.37,8.43C5.4,8.46,5.45,8.48,5.48,8.51
	l6.17,6.17c0.31,0.31,0.8,0.31,1.11,0c0.31-0.31,0.31-0.8,0-1.11L7.05,7.85z"/>
</svg>
