<?xml version="1.0" encoding="utf-8"?>
<!-- Generator: Adobe Illustrator 27.5.0, SVG Export Plug-In . SVG Version: 6.00 Build 0)  -->
<svg version="1.1" id="Layer_1" xmlns="http://www.w3.org/2000/svg" xmlns:xlink="http://www.w3.org/1999/xlink" x="0px" y="0px"
	 viewBox="0 0 30 30" style="enable-background:new 0 0 30 30;" xml:space="preserve">
<style type="text/css">
	.st0{clip-path:url(#SVGID_00000030467995316769990950000018290869436653571477_);fill:#21344D;}
	.st1{clip-path:url(#SVGID_00000030467995316769990950000018290869436653571477_);fill:#FEFEFF;}
	.st2{clip-path:url(#SVGID_00000030467995316769990950000018290869436653571477_);fill:#FFC30F;}
	.st3{display:none;}
	.st4{font-family:'MyriadPro-Regular';}
	.st5{font-size:2.9927px;}
</style>
<g>
	<g>
		<defs>
			<path id="SVGID_1_" d="M29,14.53c0,7.8-6.33,14.13-14.13,14.13c-7.8,0-14.13-6.33-14.13-14.13c0-7.8,6.33-14.13,14.13-14.13
				C22.67,0.4,29,6.72,29,14.53z"/>
		</defs>
		<clipPath id="SVGID_00000051344632407408202720000004106295999850568112_">
			<use xlink:href="#SVGID_1_"  style="overflow:visible;"/>
		</clipPath>
		<path style="clip-path:url(#SVGID_00000051344632407408202720000004106295999850568112_);fill:#21344D;" d="M29,14.53
			c0,7.8-6.33,14.13-14.13,14.13c-7.8,0-14.13-6.33-14.13-14.13c0-7.8,6.33-14.13,14.13-14.13C22.67,0.4,29,6.72,29,14.53z"/>
		<path style="clip-path:url(#SVGID_00000051344632407408202720000004106295999850568112_);fill:#FEFEFF;" d="M20.19,11.34
			c0,2.94-2.38,5.32-5.32,5.32c-2.94,0-5.32-2.38-5.32-5.32c0-2.94,2.38-5.32,5.32-5.32C17.81,6.02,20.19,8.4,20.19,11.34z"/>
		<path style="clip-path:url(#SVGID_00000051344632407408202720000004106295999850568112_);fill:#FEFEFF;" d="M24.52,23.55
			c-0.14-1.71-1.01-3.27-2.39-4.29l-0.94-0.7c-0.94-0.7-2.17-0.76-3.24-0.29c-0.94,0.42-1.98,0.65-3.08,0.65
			c-1.1,0-2.14-0.23-3.08-0.65c-1.07-0.48-2.3-0.41-3.24,0.29l-0.94,0.7c-1.38,1.02-2.24,2.58-2.39,4.29l-0.38,6.16H24.9
			L24.52,23.55z"/>
		<path style="clip-path:url(#SVGID_00000051344632407408202720000004106295999850568112_);fill:#FFC30F;" d="M16.45,19.53h-3.16
			c-0.32,0-0.55,0.31-0.45,0.62l0.67,2.04c0.06,0.19,0.24,0.32,0.45,0.32h1.83c0.2,0,0.38-0.13,0.45-0.32l0.67-2.04
			C17,19.84,16.77,19.53,16.45,19.53z"/>
		<path style="clip-path:url(#SVGID_00000051344632407408202720000004106295999850568112_);fill:#FFC30F;" d="M15.93,23.34
			c-0.03-0.2-0.2-0.34-0.4-0.34h-1.32c-0.2,0-0.37,0.15-0.4,0.34l-0.74,5.3c-0.03,0.24,0.15,0.46,0.4,0.46h2.8
			c0.24,0,0.43-0.21,0.4-0.46L15.93,23.34z"/>
	</g>
	<text transform="matrix(1 0 0 1 6.4038 24.6172)" class="st3 st4 st5">  </text>
</g>
</svg>
