<?xml version="1.0" encoding="utf-8"?>
<!-- Generator: Adobe Illustrator 27.5.0, SVG Export Plug-In . SVG Version: 6.00 Build 0)  -->
<svg version="1.1" id="Layer_1" xmlns="http://www.w3.org/2000/svg" xmlns:xlink="http://www.w3.org/1999/xlink" x="0px" y="0px"
	 viewBox="0 0 18 18" style="enable-background:new 0 0 18 18;" xml:space="preserve">
<style type="text/css">
	.st0{fill:none;stroke:#BCBCBC;stroke-width:0.75;stroke-linecap:round;stroke-linejoin:round;stroke-miterlimit:10;}
</style>
<path class="st0" d="M15.78,7.97h-1.29c-0.14-0.64-0.4-1.24-0.74-1.78l0.91-0.91c0.18-0.18,0.18-0.47,0-0.65L13.64,3.6
	c-0.18-0.18-0.47-0.18-0.65,0l-0.91,0.91c-0.54-0.35-1.14-0.6-1.78-0.74V2.49c0-0.25-0.2-0.46-0.46-0.46H8.39
	c-0.25,0-0.46,0.2-0.46,0.46v1.29c-0.64,0.14-1.24,0.4-1.78,0.74L5.24,3.6c-0.18-0.18-0.47-0.18-0.65,0L3.57,4.63
	c-0.18,0.18-0.18,0.47,0,0.65l0.91,0.91c-0.35,0.54-0.6,1.14-0.74,1.78H2.46C2.2,7.97,2,8.17,2,8.42v1.45c0,0.25,0.2,0.46,0.46,0.46
	h1.29c0.14,0.64,0.4,1.24,0.74,1.78l-0.91,0.91c-0.18,0.18-0.18,0.47,0,0.65L4.6,14.7c0.18,0.18,0.47,0.18,0.65,0l0.91-0.91
	c0.54,0.35,1.14,0.6,1.78,0.74v1.29c0,0.25,0.2,0.46,0.46,0.46h1.45c0.25,0,0.46-0.2,0.46-0.46v-1.29c0.64-0.14,1.24-0.4,1.78-0.74
	l0.91,0.91c0.18,0.18,0.47,0.18,0.65,0l1.03-1.03c0.18-0.18,0.18-0.47,0-0.65l-0.91-0.91c0.34-0.54,0.6-1.14,0.74-1.78h1.29
	c0.25,0,0.46-0.2,0.46-0.46V8.42C16.24,8.17,16.03,7.97,15.78,7.97z M9.12,12.73c-1.98,0-3.59-1.61-3.59-3.59s1.61-3.59,3.59-3.59
	c1.98,0,3.59,1.61,3.59,3.59S11.09,12.73,9.12,12.73z"/>
</svg>
